<svg width="30" height="27" viewBox="0 0 30 27" fill="none" xmlns="http://www.w3.org/2000/svg">
<path d="M27.6667 23.0002C28.5411 23.0002 29.25 23.709 29.25 24.5835C29.25 25.3955 28.6388 26.0647 27.8513 26.1562L27.6667 26.1668H2.33333C1.45889 26.1668 0.75 25.458 0.75 24.5835C0.75 23.7715 1.36124 23.1023 2.14868 23.0108L2.33333 23.0002H27.6667ZM27.6667 11.9168C28.5411 11.9168 29.25 12.6257 29.25 13.5002C29.25 14.3746 28.5411 15.0835 27.6667 15.0835H2.33333C1.45889 15.0835 0.75 14.3746 0.75 13.5002C0.75 12.6257 1.45889 11.9168 2.33333 11.9168H27.6667ZM27.6667 0.833496C28.5411 0.833496 29.25 1.54239 29.25 2.41683C29.25 3.29127 28.5411 4.00016 27.6667 4.00016H2.33333C1.45889 4.00016 0.75 3.29127 0.75 2.41683C0.75 1.54239 1.45889 0.833496 2.33333 0.833496H27.6667Z" fill="black"/>
</svg>
