<?xml version="1.0" encoding="UTF-8" standalone="no"?>
<svg
   xmlns:dc="http://purl.org/dc/elements/1.1/"
   xmlns:cc="http://creativecommons.org/ns#"
   xmlns:rdf="http://www.w3.org/1999/02/22-rdf-syntax-ns#"
   xmlns:svg="http://www.w3.org/2000/svg"
   xmlns="http://www.w3.org/2000/svg"
   viewBox="0 0 689.02667 866.5733"
   height="866.5733"
   width="689.02667"
   xml:space="preserve"
   id="svg2"
   version="1.1"><metadata
     id="metadata8"><rdf:RDF><cc:Work
         rdf:about=""><dc:format>image/svg+xml</dc:format><dc:type
           rdf:resource="http://purl.org/dc/dcmitype/StillImage" /></cc:Work></rdf:RDF></metadata><defs
     id="defs6" /><g
     transform="matrix(1.3333333,0,0,-1.3333333,0,866.57333)"
     id="g10"><g
       transform="scale(0.1)"
       id="g12"><path
         id="path14"
         style="fill:#bb8f6d;fill-opacity:1;fill-rule:nonzero;stroke:none"
         d="m 4098.08,4773.63 c -6.63,-9.07 -3.06,-19.21 -2.17,-28.64 3.85,-40.64 7.25,-81.37 10.52,-122.02 5.24,-65.09 24.65,-124.02 63.49,-176.38 9.75,-13.15 15.56,-28.46 24.67,-41.81 27.02,-39.61 49.39,-82.01 74.46,-122.8 9.55,-15.54 16.28,-32.73 21.84,-50.21 2.65,-8.36 -0.54,-15.27 -6.65,-20.86 -6.07,-5.55 -12.82,-4.83 -19.56,-1.11 -24.23,13.4 -50.88,20.4 -77,28.63 -53.16,16.75 -103.16,41.38 -155.08,61.21 -9,3.43 -17.6,8.97 -27.47,7.1 -4.34,-4.65 -1.49,-8.64 -0.07,-12.21 22.36,-56.18 40.25,-114.19 69.47,-167.57 13.17,-24.06 21.45,-50.59 36.74,-73.68 4.81,-7.26 7.59,-15.87 0.28,-23.33 -6.61,-6.74 -14.6,-6.82 -23.44,-3.5 -40.23,15.07 -81.1,28.19 -122.59,39.39 -4.08,1.1 -8.07,2.54 -12.16,3.58 -18.5,4.69 -18.41,4.59 -28.36,-11.3 -25.05,-40 -49.67,-80.29 -75.47,-119.81 -26.27,-40.25 -59.78,-74.82 -90.53,-111.54 -5.6,-6.68 -5.04,-10.24 1.86,-14.14 -28.66,-23.35 -50.75,-53.01 -76.28,-79.38 -56.29,-54.46 -119.54,-99.61 -186.71,-139.44 -40.11,-23.79 -84.11,-38.29 -128.09,-52.86 -57.66,9.51 -115.4,18.32 -173.4,25.31 -128.81,15.52 -256.75,16.78 -383.18,-19.46 -45.97,-13.17 -93.02,-22.73 -139.53,-34.14 -50.54,-12.39 -100.61,-6.21 -150.51,4.82 -60.56,13.39 -119.14,34.12 -179.48,48.34 -10.32,2.43 -20.52,4.94 -31.15,4.96 -30.19,7.66 -57.72,22.16 -86.01,34.55 -74.3,32.52 -146.12,69.66 -211.52,118.19 -26.46,18 -51.92,37.4 -77.76,56.27 -6,4.39 -12.92,8.45 -15.85,16.11 -2.02,2.82 -3.58,6.18 -6.15,8.37 -46.81,39.98 -88,85.38 -125.66,133.78 -25.49,32.74 -48.43,67.51 -71.74,101.89 -9.21,13.59 -19.72,25.63 -32.12,36.19 -12.97,11.05 -26.68,13.53 -43.07,6.89 -41.75,-16.91 -82.18,-37.09 -125.25,-50.73 -11.39,-3.61 -22.76,-7.43 -34.37,-10.19 -17.58,-4.18 -29.1,6.94 -25.67,24.74 1.32,6.84 3.89,13.59 6.88,19.92 19.31,40.79 32.71,83.91 48.53,126.01 9.74,25.9 16.03,53.72 17.37,84.07 -10.3,-1.67 -19.77,-2.87 -29.09,-4.78 -56.47,-11.63 -112.82,-23.88 -169.42,-34.88 -17.9,-3.49 -36.11,-5.47 -53.94,-9.69 -9.07,-2.14 -17.08,0.5 -21.81,8.9 -5.07,9.02 -3.51,17.32 3.84,24.96 65.07,67.67 117.05,146.18 179.03,216.42 55.71,63.13 83.37,137.84 89.54,221.1 0.49,6.7 3.56,14.13 -3.18,19.8 1.4,9.45 9.42,6.82 14.85,7.44 115,13.24 218.76,55.6 316.76,116.33 56.38,34.93 105.41,78.1 153.26,122.66 53.88,50.19 114.6,89.23 180.03,121.29 65.21,31.95 130.36,66.04 201.05,83.16 106.08,25.69 212.9,48.99 322.74,54.29 59.79,2.88 119.46,7.8 179.38,8.03 84.93,0.33 166.46,-17.39 246.16,-45.21 98.72,-34.46 188.91,-84.5 272.56,-147.15 40.7,-30.49 86.9,-52.47 130.53,-78.44 83.44,-49.67 172.3,-86.97 265.54,-114.23 69.81,-20.41 140.69,-36.16 211.77,-51.05 22.07,-4.62 44,-10.07 66.36,-13.39 5.07,-0.75 11.97,-0.46 11.98,-8.77" /><path
         id="path16"
         style="fill:#79704f;fill-opacity:1;fill-rule:nonzero;stroke:none"
         d="m 1704.78,1775.76 c 5.65,9.35 2.46,19.35 1.46,28.9 -3.9,37.11 -6.43,74.35 -6.66,111.59 -0.47,80.48 7.45,160.05 31.19,237.45 1.02,3.35 1.44,6.88 2.15,10.33 2.67,4.34 -1.37,10.55 3.94,14.17 26.17,-14.03 54.42,-24.2 78.47,-42.2 12.23,-21.08 34.25,-14.78 52.6,-18.77 37.2,-12.55 73.18,-28.49 110.84,-39.79 6.62,-1.99 13.53,-4.23 16.88,-11.41 -17.25,-24.36 -9.53,-47.15 2.94,-70.74 27.66,-52.32 54.18,-105.25 82.81,-157.05 17.79,-32.19 30.31,-66.67 44.6,-100.4 20.18,-47.63 22.96,-48.82 74.03,-42.04 22.37,2.97 44.54,7.16 66.57,11.85 24.92,5.31 33.5,15.68 30.25,40.04 -5.72,42.9 -3.3,85.87 -3.26,128.78 0.06,59.18 -7.55,118.15 -4.35,177.36 0.51,9.38 -2.66,20.12 7.61,26.88 12.56,-8.33 8.34,-21.44 8.6,-32.74 1.29,-57.62 -8.04,-51.44 53.6,-61.92 82.06,-13.95 164.76,-19.93 247.94,-18.27 56.95,1.13 114.03,-3.94 170.83,3.83 27.12,3.71 32.28,10.09 29.07,37.52 -1.07,9.14 -1.01,18.21 -0.81,27.38 0.56,26.26 5.23,52.98 -7.44,78.01 16.84,8.63 32.94,7.88 48.17,-3.8 9.33,-27.11 3.3,-55.91 8.97,-83.48 1.12,-5.45 0.39,-11.26 1.03,-16.87 3.75,-32.53 13.56,-42.25 46.04,-42.47 77.54,-0.53 155.14,-1.93 232.63,0.2 197.53,5.44 393.66,24.38 586.92,67.36 53.01,11.79 105.24,26.57 156.84,43.56 9.17,3.01 18.11,8.48 28.51,5.07 8.81,-76.33 11.07,-152.91 7.83,-229.64 -1.72,-40.73 -5.4,-81.33 -11.39,-121.68 -7.49,-5.99 -14.81,-1.19 -22.06,0.51 -52.18,12.24 -102.58,30.71 -154.34,44.42 -17.06,4.53 -34.22,7.5 -51.91,8.97 -28.66,2.39 -47.65,-11.53 -60.24,-34.52 -25.73,-47 -49.12,-95.19 -66.23,-146.14 -4.04,-12.05 -7.99,-24.12 -0.77,-36.71 4.88,-8.52 0.69,-16.56 -3.59,-23.9 -27.68,-47.49 -52.68,-96.44 -79.7,-144.28 -14.65,-25.95 -24.54,-53.74 -34.29,-81.73 -6.64,-19.08 -2.07,-33.74 12.03,-47.68 31.36,-30.96 69.45,-50.18 110.17,-64.77 23.2,-8.31 46.58,-16.22 70.31,-23 5.45,-1.56 13.56,-0.63 13.47,-10.05 -4.07,-0.83 -8.03,-1.45 -11.43,-4.53 -43.35,-39.27 -95.57,-62.57 -149.68,-82.18 -11.06,-4.01 -20.11,-9.03 -24.38,-20.47 -6.97,1.06 -13.94,2.09 -20.98,0.43 -111.95,-26.43 -218.94,-9.1 -323.94,34.03 -34.04,13.98 -67.82,27.26 -97.44,49.45 -7.32,5.49 -15.2,10.32 -19.61,18.81 -0.55,1.29 -0.83,2.83 -1.7,3.85 -28.16,32.92 -33.71,72.81 -37.19,114.09 -6.67,79.36 -7.44,158.78 -6.33,238.31 0.1,7.36 2.17,16.4 -9.91,16.84 2.86,11.58 12.77,8.86 20.47,9.62 67.55,6.65 129.58,32.75 192.77,54.69 6.33,2.19 14.81,6.12 11.82,14.72 -2.96,8.53 -12.03,6.67 -18.43,4.39 -39.44,-14.07 -81.44,-17.03 -121.42,-28.7 -34.04,-9.93 -68.87,-13.98 -104.38,-14.82 -41.53,-0.98 -82.82,-7.26 -124.36,-7.97 -52.47,-0.91 -103.74,9.46 -155.04,19.05 -37.4,7 -74.69,14.05 -113.03,15.57 -28.9,1.14 -56.68,10.77 -84.42,19.1 -10.26,3.08 -25.13,11.11 -30.2,-1.49 -4.62,-11.47 11.58,-15.71 20.61,-19.62 57.7,-24.99 116.18,-47.6 179.2,-55.77 7.37,-0.95 17.54,2.17 21.38,-8.64 -7.81,-5.01 -4.41,-12.8 -4.12,-19.28 2.05,-46.42 0.13,-92.87 1.53,-139.26 1.55,-51.14 -7.1,-101 -16.17,-150.86 -2.64,-14.54 -6.77,-28.89 -15.05,-41.46 -3.72,-5.66 -4.29,-11.72 -4.23,-18.1 -35.21,-42.16 -81.26,-69.17 -130.95,-89.45 -62.96,-25.7 -128.89,-38.65 -197.28,-39.66 -28.69,-0.42 -57.32,-6.12 -86.17,-2.34 -8.42,1.1 -12.2,-5.88 -18.03,-9.31 -2.63,13.11 -9.65,17.78 -23.89,19.61 -48.44,6.24 -94.28,22.62 -138.04,43.88 -39.92,19.38 -73.28,47.08 -96.31,85.88 -0.88,2.47 -0.3,4.51 1.73,6.16 20.36,9.22 42.68,8.61 64.09,12.54 40.27,7.39 80.85,13.31 117.1,34.36 6.71,3.9 13.25,8.06 19.93,11.96 21.97,12.86 27.76,31.64 23.61,55.82 -5.15,29.99 -11.23,59.68 -21.86,88.22 -16.75,44.95 -29.74,91.22 -47.58,135.79 -5.65,14.12 -7.66,27.83 -0.26,42.78 6.1,12.31 3.22,26.34 0.71,39.59 -9.2,48.6 -22.21,96.25 -37.35,143.29 -11.57,35.94 -30.86,50.13 -69.29,49.89 -48.05,-0.31 -95.27,-10.01 -142.95,-14.67 -34.69,-3.39 -69.29,-7.5 -103.81,-12.27" /><path
         id="path18"
         style="fill:#79704f;fill-opacity:1;fill-rule:nonzero;stroke:none"
         d="m 1464.5,4917.24 c 2.56,15.6 -0.98,31.77 4.51,47.08 32.23,9.29 61.7,24 85.59,47.75 31.66,31.48 21.09,79.66 -20.04,96.94 -10.31,4.33 -22.48,3.25 -31.4,11.25 4.62,23.62 13.36,45.93 21.86,68.32 3.71,9.77 7.42,19.54 11.13,29.32 31.55,19.36 63.73,37.72 88.28,66.57 9.1,10.71 18.18,21.31 25.22,33.44 17.64,30.36 8.65,57.99 -23.23,72.07 -3.2,1.42 -6.54,2.49 -8.75,5.45 4.94,8.98 7.75,19.25 15.9,26.29 2.31,0.3 3.82,1.8 5.21,3.48 l -0.08,-0.07 c 19.7,9.38 42.43,6.89 62.19,15.95 1.96,0.69 3.97,1.24 5.96,1.8 2.88,0.94 5.73,2 8.52,3.21 53.1,23.39 94.32,62.37 134.87,102.34 5.42,5.33 8.55,15.73 19.79,11.95 15.98,-14.67 34.51,-18.02 55.05,-12.47 80.26,21.7 159.78,45.49 234.26,83.38 8.77,4.46 17.16,9.69 24.96,15.82 12.79,10.07 19.41,22.74 14.34,38.87 -5.31,16.88 -17.25,27.15 -35.16,29.27 -14.99,1.77 -29.3,-3.02 -43.87,-5.36 -23.25,-3.73 -45.65,-6.76 -64.06,14.65 -9.62,11.19 -24.29,8.5 -37.81,5.07 -10.57,-2.68 -20.6,-10.31 -32.41,-4.58 -4.7,8.12 -0.37,14.96 3.64,21.38 20.3,32.47 31.27,68.27 38.97,105.42 2.51,12.09 3.31,25.17 13.23,34.57 9.34,10.07 21.02,16.71 33.15,22.69 3.2,-1.95 4.57,-5.16 5.96,-8.43 15.47,-36.48 38.32,-48.06 77.09,-39.37 38.77,8.7 73.9,27.41 111.07,40.52 14.41,5.08 24.83,5.01 35.23,-7.79 16.52,-20.34 39.56,-16.51 60.71,-11.23 40.3,10.05 79.07,25.74 119.55,35.2 48.62,11.37 91.97,35.29 136.58,56.01 17.65,8.21 34.15,20.89 36.76,43.17 3.21,27.31 -11.72,45.7 -43.73,52.13 -49.29,9.91 -98.62,15.75 -147.04,-5.17 -9.65,-4.17 -20.29,-6.09 -30.02,-10.13 -23.51,-9.73 -42.34,-3.61 -57.97,15.41 59.99,21.88 119.6,45.01 182.86,56.17 31.11,5.49 62.9,6.5 93.73,13.9 25.15,-32.47 59.73,-50.48 97.26,-64.45 19.75,-7.36 37.57,-18.98 57.53,-26.41 45.48,-16.94 92.23,-25.37 140.56,-24.96 16.34,0.14 29.74,-3.98 42.27,-15.15 30.06,-26.78 61.88,-36.2 99.8,-12.11 20.14,12.8 42.82,21.3 57.46,41.62 2.89,4 7.5,6.96 12.29,7.9 24.39,4.81 39.83,19.16 47.07,42.71 36.67,-11.74 73.35,-23.48 110.03,-35.22 3.33,-1.07 6.94,-1.61 9.99,-3.22 40.89,-21.59 84.33,-37.58 125.95,-57.56 -8,-21.73 -9.21,-43.88 -4.43,-66.48 2.54,-12.05 0.18,-23.79 -2.53,-35.58 -8.49,-36.94 10.89,-78.73 45.76,-92.33 36.11,-14.09 72.15,-28.69 109.04,-40.54 28.73,-9.22 58.37,-8.2 86.92,3.53 10.33,-2.59 13.35,-11.71 16.67,-19.89 7.06,-17.45 15.54,-34.22 23.3,-51.33 14.99,-28.56 29.27,-57.51 47.1,-84.51 4.11,-6.23 9.56,-12.84 3.41,-21.02 -8.13,-6.64 -17.9,-7.77 -27.84,-8.2 -7.74,-0.34 -15.5,-0.08 -23.24,-0.21 -27.17,-0.47 -45.51,-11.07 -51,-29.43 -6.44,-21.53 1.88,-42.01 23.73,-58.39 3.38,-2.54 6.61,-5.45 10.43,-7.19 57.52,-26.17 111.24,-61.09 173.72,-75.92 23.62,-5.6 47.27,-6.49 70.92,-0.15 22.78,-6.06 38.66,-24 58.91,-34.53 6.45,-3.36 2.3,-11.97 5.8,-17.26 21.86,-47.16 42.32,-94.9 59.26,-144.08 -29.93,0.79 -55.5,14 -79.46,29.91 -24.94,16.56 -50.83,30.06 -80.09,37.01 -25.66,6.1 -50.78,5.8 -73.66,-8.22 -25.69,-15.72 -51.88,-16.24 -79.06,-6.11 -40.95,15.25 -84.78,20.92 -125,38.91 -24.05,10.75 -38.43,7.53 -50.18,-6.4 -12.39,-14.68 -13.52,-41.72 -2.59,-59.79 4.87,-8.05 11.58,-14.25 19.52,-18.99 63.44,-37.94 123.33,-81.82 191.23,-112.3 25.93,-11.65 52.05,-21.04 80.42,-24.58 27.95,-3.49 55.87,-7.52 83.43,-13.54 11.12,-2.42 22.75,-4.71 33.54,-1.66 31.84,9.01 62.91,3.33 94.02,-2.92 13.48,-2.71 26.55,-2.39 39.65,1.43 9.77,-30.98 17.77,-62.44 24.82,-94.14 -2.26,-1.86 -4.95,-3.23 -7.77,-2.52 -83.61,21.27 -171.05,16.19 -254.79,37.36 -34.94,8.84 -69.75,17.14 -102.72,32.16 -110.4,50.3 -219.01,103.17 -319.53,172.56 -93.46,64.51 -192.8,120.14 -298.63,162.37 -57.95,23.13 -119.33,33.55 -181.67,36.73 -78.77,4.02 -157.39,11.54 -236.44,8.77 -122.78,-4.29 -244.58,-13.36 -363.06,-50.54 -108.44,-34.02 -210.06,-81.1 -305.88,-142.2 -59.75,-38.09 -112.45,-84.82 -168.26,-127.77 -57.61,-44.35 -119.18,-82.08 -184.34,-115.27 -80.04,-40.76 -165.94,-52.63 -252.42,-65.14 -6.23,-0.9 -12.65,-2.58 -17.82,3" /><path
         id="path20"
         style="fill:#79704f;fill-opacity:1;fill-rule:nonzero;stroke:none"
         d="m 1921.39,3795.9 c 22.85,-12.22 42.36,-29.26 62.96,-44.61 10.52,-7.85 23.48,-12.74 31.32,-24.09 11.16,-25.19 8.83,-52.35 10.51,-78.71 3.72,-58.48 -5.81,-116.95 -3.23,-175.3 2.19,-49.35 4.92,-98.41 -0.55,-147.67 -1.8,-16.17 -3.01,-32.28 -8.92,-47.56 -2.33,-5.17 -5.11,-10.49 -10.08,-13.26 -40.47,-22.58 -43.45,-58.12 -34.36,-97.98 0.63,-2.75 -0.47,0.64 0.19,-2.11 -4.52,-25.28 -18.39,-46.94 -28.47,-69.9 -19.75,-44.98 -37.62,-90.72 -57.27,-135.72 -27.8,-30.51 -63.49,-50.48 -97.56,-72.54 -27.1,-17.55 -28.16,-19 -14.02,-48.33 9.77,-20.25 17.26,-41.41 26.18,-61.98 10.5,-24.21 11.7,-48.7 3.87,-73.78 -70.45,-116.02 -180.96,-177.11 -303.66,-221.47 -4.65,5.75 -7.38,12.15 -16.09,15.14 -62.99,21.55 -115.61,59.52 -165.57,102.86 -62.7,54.4 -105.21,121.6 -139.1,196.36 -31.96,70.47 -37.76,142.52 -20.14,216.34 11.46,47.98 32.54,92.98 55.83,136.46 22.3,41.64 49.5,80.24 78.69,117.37 5.28,6.71 8.64,14.2 12.21,21.71 15.51,-11.47 34.33,-12.01 52.16,-15.56 51.91,-10.35 104.96,-12.33 157.13,-20.98 18.29,-3.03 34.76,1.63 48.37,15.46 53.46,54.28 111.57,103.52 168.48,154.05 9.91,8.8 14.02,16.89 6.6,29.06 -25.67,42.06 -47.24,86.73 -82.28,122.68 -11.9,12.2 -26.08,21.32 -38.12,33.08 32.04,21.54 60.22,48.06 91.29,70.86 66.37,48.69 135.43,92.53 213.63,120.12" /><path
         id="path22"
         style="fill:#79704f;fill-opacity:1;fill-rule:nonzero;stroke:none"
         d="m 3682.69,3735.5 c 1.01,4.95 3.42,9.1 7.07,12.57 17.22,16.37 33.29,33.79 48.1,52.38 5.87,7.37 12.8,12.9 23,12.18 21.68,-4.51 40.86,-15.11 59.41,-26.32 45.65,-27.58 92.12,-54.07 133.49,-88.08 31.96,-26.27 64.38,-52.04 94.32,-80.69 1.93,-9.95 -6.86,-13.26 -12.14,-17.91 -41.75,-36.81 -73.34,-81.64 -102.55,-128.38 -13.15,-21.03 -12.17,-23.2 5.62,-40.92 50.91,-50.69 103.52,-99.78 150.34,-154.42 16.96,-19.78 36.69,-29.01 63,-26.25 60.14,6.29 120.78,6.92 180.7,15.97 9.92,1.5 19.18,4.08 28.09,8.42 55.38,-75.48 99.02,-157.09 125.84,-246.98 15.54,-52.06 16.36,-105.19 7.96,-158.95 -8.9,-57 -37.47,-105.54 -62.4,-155.91 -30.12,-60.84 -77.94,-106.29 -127.17,-150.79 -44.91,-40.6 -95.18,-72.24 -152.49,-92.19 -5.13,-1.78 -7.45,-6.18 -11.37,-8.99 -19.03,-1.81 -36.14,5.11 -52.53,13.02 -75.8,36.57 -146.2,80.93 -203.58,145.49 0.38,-6.68 2.88,-13.08 -5.61,-14.48 -3.3,1.86 -5.38,4.85 -5.87,8.36 -6.74,48.77 -20.13,96.36 -25.91,145.29 0.17,2.19 0.62,4.35 1.23,6.47 0.83,3.03 1.98,5.97 2.98,8.94 7.43,22.05 16.02,43.76 27.19,64.1 8.39,15.28 4.95,23.94 -9.23,32.53 -21.06,12.77 -41.39,26.81 -59.99,43.17 -18.95,20.05 -19.83,47.53 -28.9,71.56 -14.64,38.79 -26.16,78.68 -36.21,118.96 -7.56,30.3 -26.07,56.03 -36.37,85.25 -2.61,12.5 -1.51,25.16 -1.88,37.75 -0.35,12.01 -0.59,24.69 -7.75,34.4 -12.16,16.51 -12.68,34.71 -13.06,53.89 -0.67,33.52 3.7,67.22 -3.05,100.56 -4.05,35.68 -3.62,71.7 -4.63,107.39 -1.67,59.03 -7.28,117.97 -5.62,177.1 0.36,12.74 0.03,25.52 9.97,35.51" /><path
         id="path24"
         style="fill:#635d42;fill-opacity:1;fill-rule:nonzero;stroke:none"
         d="m 1464.5,4917.24 c 53.88,8.61 107.98,16.09 161.55,26.35 23.22,4.45 45.91,12.91 67.39,23.83 17.55,8.92 35.58,16.94 53.61,24.87 59.07,25.97 111.39,63.22 162.32,101.66 40.78,30.78 79.33,64.77 119.6,96.39 24.89,19.55 52.68,34.96 79.9,51.07 30.24,17.9 59.72,37.36 91.09,53.02 52.2,26.07 106.26,47.74 162.15,65.29 51.61,16.22 103.47,31.11 156.51,41.49 28.81,5.65 58.21,7.95 87.38,11.56 35.1,4.34 70.52,0.6 105.24,4.62 53.53,6.19 107.02,3.94 160.33,2.39 26.94,-0.79 54.77,0.1 81.57,-6.77 4,-1.03 8.42,-0.58 12.64,-0.57 68.71,0.28 135.4,-11.74 200.46,-33.26 13.31,-4.41 26.38,-9.79 39.09,-15.74 54.8,-25.63 108.51,-53.26 161.07,-83.4 31.76,-18.2 62.25,-38.36 93.78,-56.85 18.14,-10.63 34.73,-23.86 52.37,-35.36 35.93,-23.41 71.43,-48.17 110.21,-66.16 65.13,-30.2 127.76,-65.73 194.88,-91.67 29.64,-11.45 60.51,-18.04 91.53,-23.96 30.93,-5.9 61.93,-11.54 93.06,-16.28 18.68,-2.84 37.91,-3.22 56.59,-3.95 34.23,-1.34 66.55,-9.12 99.01,-18.08 13.89,-10.58 29.65,-18.34 42.09,-31.22 34.27,-35.46 38.1,-79.71 19.66,-120.68 -10.67,-23.71 -32.16,-36.81 -57.01,-42.61 -21.28,-4.96 -43.03,-6.25 -64.48,0.41 -26,5.4 -52.01,10.69 -77.97,16.23 -35.75,7.62 -71.61,14.82 -107.15,23.31 -47.91,11.43 -95.46,24.14 -142.32,39.62 -64.35,21.28 -127.06,45.56 -186.33,79.15 -44.09,24.98 -87.78,50.7 -132.26,74.95 -36.72,20.02 -68.19,47.46 -103.18,69.89 -61.9,39.69 -126.55,73.43 -195.77,98.71 -51.73,18.89 -104.77,32.31 -158.46,43.72 -4.12,0.88 -8.28,1.91 -12.46,2.11 -50.65,2.53 -101.27,7.01 -152.04,4.02 -51.98,-3.06 -103.97,-5.78 -155.96,-8.58 -35.75,-1.93 -71.2,-8.87 -106.18,-16.66 -49.43,-11 -99.84,-16.47 -149.17,-28.24 -33.78,-8.06 -66.25,-19.27 -97.93,-32.76 -46.63,-19.87 -93.48,-39.36 -138.5,-62.8 -60.82,-31.65 -117.79,-68.28 -168.53,-115.38 -38.56,-35.79 -75.85,-73.64 -121.09,-101.87 -47.24,-29.48 -94.29,-59.1 -144.9,-82.79 -21.25,-9.95 -43.52,-16.32 -65.59,-23.3 -33.51,-10.6 -66.88,-22.2 -101.7,-27.99 -18.34,-3.05 -37,-4.26 -55.5,-6.3 -20.98,-1.54 -41.75,-2.94 -62.77,2.04 -36,8.52 -55.27,33.73 -63.14,66.54 -8.67,36.14 -2.38,70.83 21.84,101.39 11.71,14.78 28.93,19.21 43.47,28.6" /><path
         id="path26"
         style="fill:#d3b399;fill-opacity:1;fill-rule:nonzero;stroke:none"
         d="m 1595.85,729.41 c -15.08,-18.808 -34.53,-32.691 -53.08,-47.66 -32.3,-26.07 -63.87,-53.098 -97.96,-76.871 -52.15,-36.359 -106.45,-69.379 -166.5,-90.688 -54.47,-19.339 -110.94,-31.132 -169.26,-31.031 -30.32,0.051 -60.69,-0.738 -90.95,0.699 -83.791,3.981 -164.37,22.02 -239.674,59.883 -34.723,17.449 -65.656,40.457 -94.832,66.449 -39.09,34.829 -74.317,72.84 -106.106,114.321 -29.894,39.019 -49.8,82.949 -68.086,128.25 -17.418,43.16 -19.925,87.386 -17.961,132.718 0.469,10.739 3.313,20.92 6.395,30.91 22.578,73.17 64.398,132.23 129.172,174.18 93.39,27.92 176.633,5.49 251.437,-52.91 45.754,-35.71 78.032,-82.49 104.762,-133.93 26.653,-51.289 47.063,-105.589 78.223,-154.73 78.1,-123.148 194.2,-172.789 334.41,-167.941 62.03,2.152 125.28,12.132 180.56,46.66 5.94,3.722 12.44,7.332 19.45,1.691" /><path
         id="path28"
         style="fill:#bb8f6d;fill-opacity:1;fill-rule:nonzero;stroke:none"
         d="m 1595.85,729.41 c -4.26,-0.121 -8.45,-0.43 -12.09,-3.031 -29.25,-20.797 -62.34,-31.609 -97.33,-37.566 -40.04,-6.813 -79.59,-17.083 -120.79,-14.922 -53.77,2.82 -105.81,12.941 -154.65,36.3 -18.38,8.801 -36.61,17.93 -54.3,28.239 -30.01,17.492 -50.8,43.902 -72.07,70.14 -28.51,35.192 -50.76,73.739 -68.89,115.422 -18.492,42.547 -38.628,84.818 -63.968,123.728 -49.082,75.38 -115.672,128.32 -205.805,145.74 -34.398,6.65 -69.602,5.04 -103.906,-4.2 -5.301,-1.43 -10.543,-5.22 -15.043,1.31 42.687,31.66 92.101,45.29 143.707,50.66 75.07,7.8 145.055,-12.59 212.144,-44.1 45.001,-21.14 84.891,-50.36 120.611,-84.7 17.71,-17.02 33.28,-36.42 48.6,-55.71 9.3,-11.7 19.86,-15.52 34.54,-15.58 46.1,-0.18 88.79,13.74 131.15,29.42 90.99,33.7 170.8,85.17 243.42,149.36 44.64,39.46 85.37,82.01 120.44,129.91 19.59,26.74 34.06,56.7 48.51,86.52 3.27,6.75 2.53,13.71 2.66,20.7 11.48,-3.08 10.31,-13.82 12.55,-21.93 11.64,-42.03 17.55,-85.37 28.74,-127.54 5.61,-21.15 12.56,-41.8 21.66,-61.6 13.27,-28.87 32.79,-50.72 66.9,-54.48 7,-0.78 13.93,-2.61 17.74,-9.68 0.13,-10.33 -5.66,-18.77 -9.31,-27.79 -30.65,-75.65 -63.91,-150.29 -107.63,-219.249 -33.08,-52.16 -67.95,-103.609 -111.69,-147.961 -18.75,-19.019 -35.11,-40.39 -55.9,-57.41" /><path
         id="path30"
         style="fill:#c5af59;fill-opacity:1;fill-rule:nonzero;stroke:none"
         d="m 2930.13,805.281 c 4.52,23.469 9.71,46.84 13.42,70.438 5.72,36.39 18.01,70.871 29.27,105.66 1.67,5.191 5.61,9.641 8.51,14.434 8.68,5.967 16.23,-0.133 23.92,-2.563 51.76,-16.371 103.01,-34.352 156.13,-46.211 24.87,-5.547 50.49,-5.098 75.28,-10.719 19.29,-7.871 11.86,-19.257 3.16,-29.629 -26.5,-31.589 -46.1,-67.23 -64.09,-104.109 -17.6,-36.082 -18.32,-55.562 36.48,-65.43 10.81,-1.941 19.45,0.996 26.62,8.95 10.38,11.5 21.31,22.48 31.32,34.359 13.7,16.281 21.59,16.418 47.3,8.34 16.98,-5.332 20.7,-16.332 20.42,-32.039 -1.3,-72.242 3.24,-60.793 62.17,-77.922 39.11,-11.36 42.86,-9.5 65.66,25.32 44.92,68.57 105.48,116.211 184.43,139.699 52.89,-33.64 90.76,-80.339 118.34,-136 -4.17,-3.757 -9.17,-2.668 -14.07,-2.55 -64.56,1.66 -109.67,-47.418 -102.03,-111.329 1.51,-12.621 2.77,-25.167 3.38,-37.89 2.05,-42.629 -18.67,-71.59 -54.93,-89.949 -51.43,-26.032 -105.25,-21.649 -159.17,-9.11 -10.94,2.551 -15.87,10.821 -18.01,21.289 -3.39,16.602 -6.74,33.262 -8.11,50.121 -1.52,18.622 -10.77,29.821 -28.33,35.149 -8.12,2.449 -16.42,4.191 -24.5,6.629 -17.52,5.293 -29.97,-0.399 -39.5,-15.547 -6.76,-10.75 -13.71,-21.383 -20.51,-32.102 -13.54,-21.328 -20.59,-23.672 -43.76,-15.058 -7.94,2.949 -15.71,6.32 -23.66,9.23 -35.62,13.039 -35.65,13.028 -35.73,51.688 -0.13,55.582 -0.22,55.25 -53.67,70.761 -15.88,4.61 -26.61,1.45 -35.89,-12.793 -25.16,-38.628 -38.12,-40.609 -74.66,-11.488 -25.72,20.481 -39.73,48.75 -40.78,80.762 -1.6,49.187 -18.34,87.508 -64.41,109.609" /><path
         id="path32"
         style="fill:#c5af59;fill-opacity:1;fill-rule:nonzero;stroke:none"
         d="m 2624.39,991.031 c 18.7,-47.191 31.16,-96.031 39.15,-146.109 2.32,-14.531 6.2,-28.801 9.37,-43.192 -0.42,-0.558 -0.73,-1.441 -1.29,-1.648 -46.49,-17.133 -60.05,-53.441 -63.02,-99.582 -2.83,-43.848 -18.43,-82.59 -64.31,-101.051 -22.4,-9.019 -30.96,-7.5 -44.97,11.891 -7.6,10.5 -11.53,26.629 -27.81,26.07 -22.04,-0.75 -42.89,-7.961 -61.49,-19.949 -6.98,-4.5 -7.08,-13.391 -7.36,-21.231 -0.42,-11.988 -0.11,-23.98 -0.22,-35.968 -0.04,-4.93 0.55,-10.032 -0.7,-14.762 -9.52,-35.891 -44.54,-31.68 -69.34,-42.852 -16.48,-7.418 -25.69,5.754 -33.22,18.481 -4.31,7.293 -8.9,14.41 -13.67,21.391 -7.39,10.82 -11.86,26.378 -27.6,26.621 -21.27,0.308 -42.21,-4.36 -60.36,-16.282 -8.21,-5.39 -9.14,-15.55 -10.32,-24.668 -2.28,-17.48 -5.08,-34.871 -8.5,-52.179 -2.26,-11.391 -7.88,-19.832 -19.66,-22.27 -45.17,-9.363 -90.14,-15.543 -135.56,0.309 -59.36,20.719 -84.01,59.097 -76.01,121.679 1.25,9.801 2.97,19.489 3.01,29.43 0.25,56.551 -41.27,97.719 -97.59,96.832 -6.85,-0.113 -14.08,-2.711 -20.47,2.11 27.77,54.179 62.94,101.98 115.92,134.41 23.66,1.258 44.26,-8.801 63.25,-20.371 51.54,-31.391 97.8,-68.481 129.05,-122.09 17.35,-29.77 21.55,-29.699 55.42,-20.969 8.2,2.109 16.24,4.707 24.37,7.039 41.9,11.961 43.65,14.301 43.72,58.77 0.06,37.422 2.12,40.269 27.32,48.691 15.22,5.078 27.17,2.199 38.34,-9.121 9.95,-10.07 17.75,-21.902 27.71,-31.902 20.03,-20.09 58.1,-16.86 74.53,6.113 6.75,9.43 3.9,18.738 0.55,28.168 -14.31,40.219 -35.74,76.461 -61.48,110.34 -7.75,10.211 -17.73,21.16 1.75,30.101 51.08,5.43 102.34,9.719 152.13,23.489 32.12,8.878 62.83,20.859 89.66,41.281 2.82,2.14 5.89,3.879 9.7,2.98" /><path
         id="path34"
         style="fill:#635d42;fill-opacity:1;fill-rule:nonzero;stroke:none"
         d="m 3907.75,2084.09 c -37.07,-17.66 -77.12,-26.14 -116.1,-37.96 -54.51,-16.53 -110.63,-26.03 -166.35,-36.56 -41.85,-7.91 -84.1,-14.96 -126.71,-19.11 -20.83,-2.03 -41.51,-6.47 -62.26,-9.73 -9.84,-1.54 -19.5,-2.3 -29.31,-2.44 -23.2,-0.33 -46.04,-4.02 -68.92,-7.28 -2.79,-0.4 -5.6,-1.23 -8.36,-1.05 -39.5,2.57 -78.71,-2.83 -118.01,-4.79 -102.13,-5.11 -204.29,-3.69 -306.45,-3.82 -5.65,-0.01 -11.45,-0.79 -16.91,0.24 -19.05,3.59 -30.35,6.15 -34.59,30.47 -6.76,38.85 -9.23,78.06 -8.37,117.48 6.65,6.87 15.42,6.09 23.77,6.29 15.5,0.36 31.01,0.19 46.52,0.12 182.03,-0.87 363.09,10.87 543.06,39.33 86.98,13.76 174.73,22.21 261.49,37.85 41.08,7.4 81.14,17.95 120.84,30.37 6.72,2.1 13.22,5.01 20.46,4.57 6.92,-0.6 12.08,-4.37 14.55,-10.5 14.24,-35.33 34.1,-68.85 35.71,-108.35 1.29,-8.8 2.58,-17.61 -4.06,-25.13" /><path
         id="path36"
         style="fill:#a48e41;fill-opacity:1;fill-rule:nonzero;stroke:none"
         d="m 2930.13,805.281 c 29.05,-5.992 48.79,-22.82 59.84,-50.422 9.08,-22.679 6.96,-47.07 11.8,-70.398 6.94,-33.43 21.9,-60.512 54.19,-75.602 28.52,-13.32 25.53,-19.5 44.85,13.161 18.14,30.66 19.62,31.601 53.34,20.3 10.01,-3.351 20.08,-6.531 29.99,-10.148 16.4,-6.012 21.04,-12.442 21.2,-29.652 0.18,-18.34 0.47,-36.7 -0.21,-55.02 -0.42,-11.289 5.07,-17.59 14.85,-20 16.51,-4.059 31.72,-11.289 47.39,-17.48 14.06,-5.551 17.35,-4.379 26.23,8.781 9.04,13.398 17.51,27.199 25.9,41.031 3.74,6.156 8.89,10.887 13.91,15.809 3.75,3.679 8.06,5.711 13.41,4.05 16.71,-5.171 34.02,-7.57 50.74,-13.511 16.5,-5.86 21.89,-17.18 23.14,-31.59 1.65,-18.949 6.03,-37.371 8.52,-56.102 1.31,-9.867 4.67,-14.468 14.9,-16.789 40.99,-9.308 82.18,-12.269 123.24,-2.918 28.09,6.391 51.66,21.867 70.14,44.41 8.46,10.329 10.66,23.309 11.68,35.598 1.33,15.973 1.4,32.09 -1.86,48.34 -13.95,69.613 34.81,116.312 92.11,124.812 10.11,1.5 19.47,-1.941 29.04,-4.082 51.88,-88.66 42.91,-200.347 -30.92,-267.379 -37.22,-33.808 -78.64,-51.949 -128.94,-55 -53.74,-3.25 -107.02,-2.71 -160.25,4.821 -34.24,4.84 -67.46,14.351 -100.61,23.781 -67.75,19.277 -133.75,43.598 -199.22,69.539 -40.58,16.078 -82.35,28.942 -124.03,41.891 -23.6,7.328 -46.26,16.668 -68.23,28.117 -31.49,16.402 -44.95,43.383 -47.43,77.062 -2.13,28.891 -1.59,57.668 4.12,86.34 4.12,20.711 6,41.848 9.44,62.699 1.44,8.758 0.39,18.5 7.73,25.551" /><path
         id="path38"
         style="fill:#a48e41;fill-opacity:1;fill-rule:nonzero;stroke:none"
         d="m 1832.45,704.102 c 60.33,19.238 123.21,-30.782 124.19,-93.153 0.31,-19.867 -4.82,-38.91 -4.96,-58.73 -0.28,-40.809 18.71,-68.66 54.49,-84.867 33.75,-15.289 69.02,-22.551 106.66,-14.821 14.25,2.918 29.24,3.09 43.74,5.782 9.03,1.667 14.77,5.257 16.16,16.027 3.06,23.57 8.33,46.859 11.63,70.422 1.41,10.109 7.19,14.609 15.46,17.879 16.41,6.48 33.67,9.82 50.79,13.601 14.6,3.238 24.2,-4.062 31.32,-15.953 8.66,-14.469 17.22,-29.019 26.09,-43.367 7.5,-12.121 10.49,-13.363 24.07,-8.813 16.66,5.563 33.02,12.032 49.68,17.633 11.06,3.719 15.29,11.047 14.98,22.399 -0.44,16.211 -0.23,32.429 -0.14,48.648 0.11,22.242 3.48,27.031 23.8,33.871 12.67,4.27 25.24,8.942 38.12,12.422 20.14,5.43 27.51,1.918 38.02,-16.32 19.8,-34.41 20.13,-33.75 55.07,-17.5 23.29,10.828 35.07,29.859 43.23,52.027 5.56,15.109 8.62,31.051 9.2,47.34 0.64,17.633 3.41,34.82 10.87,51.082 11.47,25 30.58,39.168 57.99,42.019 8.3,-13.898 6.94,-29.859 9.16,-44.96 6.03,-41.051 15.23,-81.688 11.58,-123.86 -3.21,-37.078 -16.56,-65.808 -51.49,-83.441 -29.17,-14.731 -59.81,-24.906 -90.72,-34.489 -48.48,-15.019 -95.63,-33.601 -143.17,-51.23 -81.83,-30.34 -164.05,-60.23 -250.58,-74.758 -65.81,-11.051 -132.43,-12.203 -198.03,-1.332 -61.44,10.192 -106.37,48.32 -135.15,102.379 -38.32,71.981 -29.78,143.992 7.94,214.063" /><path
         id="path40"
         style="fill:#bb8f6d;fill-opacity:1;fill-rule:nonzero;stroke:none"
         d="m 1706.88,5438.2 c -21.66,-9.9 -44.31,-14.64 -68.18,-13.07 -3.83,18.9 -14.19,35.19 -21.06,52.88 -18.59,47.93 -34.1,96.88 -48.59,146.17 -15.68,53.35 -31.67,106.64 -38.33,162.06 -5.2,43.29 -11.71,86.47 -11.4,130.3 0.12,17.72 2.23,35.15 5.43,52.45 3.71,20.04 14.71,34.69 34.06,42.46 16.5,6.63 33.58,9.96 51.37,10.8 45.63,2.15 89.71,-6.66 133.21,-18.77 69.17,-19.26 137.23,-41.39 201.3,-74.74 31.13,-16.2 62.94,-31.38 96.48,-42.34 -9.21,-44.06 -17.47,-88.36 -39.11,-128.71 -5.61,-10.48 -14.48,-19.32 -16.52,-31.66 -1.9,-1.41 -3.98,-1.76 -6.24,-1.07 -72.45,39.31 -143.01,81.92 -214.43,123.06 -28.71,16.53 -58.26,31.51 -89.28,43.37 -26.89,10.29 -43.8,3.75 -56.4,-23.34 -14.36,-30.89 -12.37,-64.24 -5.55,-95.55 23.54,-108.1 53.34,-214.59 92.06,-318.39 1.93,-5.18 5.25,-10.28 1.18,-15.91" /><path
         id="path42"
         style="fill:#635d42;fill-opacity:1;fill-rule:nonzero;stroke:none"
         d="m 1880.38,1181.82 c -6.87,1.45 -13.69,3.55 -20.64,4.22 -24.22,2.34 -42.28,14.66 -55.78,34.09 -17.15,24.69 -25.77,53.07 -33.99,81.55 -10.94,37.9 -16.42,77.03 -25.98,115.22 -3.36,13.44 -3.47,27.92 -11.2,40.16 -1.44,4.71 -3.59,9.35 -4.16,14.17 -1.15,9.73 -5.22,15.25 -15.75,16.23 -11.65,1.08 -16.24,9.91 -18.53,20.22 -7.51,33.78 -13.9,67.85 -14.54,102.46 -0.71,38.05 0.4,76.14 1.31,114.2 0.49,20.28 4.94,39.28 23.66,51.42 12.48,8.61 26.43,11.23 41.42,12.19 21.6,1.39 43.03,5.72 64.63,6.72 30.18,1.38 59.53,8.8 89.71,10.29 19.55,0.97 38.94,5.23 58.69,3.83 22.59,-1.6 43.08,-7.63 55.67,-28.51 4.35,-7.22 8.76,-14.75 11.16,-22.73 15.34,-51.03 30.76,-102.15 39.39,-154.77 2.39,-14.61 7.48,-32.22 -7.76,-45.52 -3.53,-3.08 -0.33,-9.67 0.98,-14.05 3.21,-10.74 7.93,-21.02 11.61,-31.63 15.62,-45.12 31.75,-90.08 46.36,-135.53 9.86,-30.69 17.42,-62.05 17.75,-94.76 0.12,-12.29 -3.88,-20.01 -13.86,-28.25 -39.42,-32.57 -85.53,-46.57 -134.78,-54.38 -28.33,-4.5 -56.49,-9.94 -85.07,-12.76 -6.18,-4.21 -14.37,1.66 -20.25,-4.06 l -0.05,-0.02" /><path
         id="path44"
         style="fill:#635d42;fill-opacity:1;fill-rule:nonzero;stroke:none"
         d="m 3637.04,1173.89 c -27.22,8.72 -54.79,16.51 -81.58,26.42 -26.94,9.96 -54.31,19.68 -78,36.49 -15.98,11.35 -31.53,23.39 -45.05,37.86 -10.65,11.39 -13.91,23.97 -9.03,38.79 11.44,34.74 24.68,68.41 43.07,100.47 20.22,35.26 38.74,71.57 58.57,107.12 6.15,11.05 12.49,21.99 18.57,33.07 2.75,5.01 5.08,9.71 -1.05,14.81 -6.83,5.68 -5.23,13.13 -3.37,21.2 7.79,33.86 23.2,64.73 36.99,96.18 9.61,21.9 21.09,42.98 31.84,64.38 2.83,5.64 6.34,10.83 9.98,16.05 20.38,29.28 49.92,28.53 79.72,23.75 30.46,-4.89 59.91,-14.65 89.22,-24.12 38.74,-12.51 78.13,-22.58 117.27,-33.59 27.98,-11.71 38.08,-26.72 37.84,-56.5 -0.2,-24.8 -6.17,-48.89 -9.44,-73.31 -6.38,-47.67 -18.72,-93.87 -36.47,-138.63 -5.96,-15.03 -12.15,-28.9 -32.22,-27.4 -7.03,0.53 -8.54,-5.9 -11.1,-10.95 -18.17,-35.87 -32.37,-73.46 -47.74,-110.53 -14.85,-35.84 -30.69,-71.11 -52,-103.77 -25.02,-38.33 -61.51,-55.35 -116.02,-37.79" /><path
         id="path46"
         style="fill:#bb8f6d;fill-opacity:1;fill-rule:nonzero;stroke:none"
         d="m 3725.78,5687.43 c -11.17,24.05 -22.34,48.11 -33.51,72.16 -18.92,26.91 -24.69,56.93 -21.05,89.17 27.12,0.65 52.69,9.56 77.89,17.62 30.21,9.65 60.6,18.36 91.19,26.58 68.01,18.28 136.34,35.2 205.96,46.19 21.41,3.38 42.79,7.44 65.01,3.4 23.22,-4.23 37.82,-16.46 46.1,-38.26 13.1,-34.48 15.24,-70.03 11.87,-106.2 -3.2,-34.37 -9.71,-68.27 -15.44,-102.27 -1.05,-6.23 -2.33,-12.51 -4.37,-18.46 -22.9,-66.63 -45.2,-133.52 -72.18,-198.62 -13.75,-33.18 -30.37,-65.16 -45.48,-97.79 -4.12,-8.9 -9,-17.64 -9.79,-27.76 -4.24,10.77 -11.67,17.78 -22.59,22.22 -15.5,6.29 -27.17,18.6 -40.67,28.07 -7.15,-0.14 -10.27,3.06 -8.55,10.29 25.06,25.96 37.6,59.02 51.71,91.21 25.74,58.69 52.24,117.06 74.87,177.07 10.2,27.06 19.46,54.42 20.48,83.74 0.34,9.89 -0.35,19.69 -2.74,29.36 -7.3,29.52 -23.83,39.45 -53.08,31.81 -47.88,-12.49 -93.4,-31.39 -138.62,-51.05 -44.57,-19.38 -89.29,-38.41 -134.57,-56.04 -17.56,-6.85 -32.94,-15.53 -42.44,-32.44" /><path
         id="path48"
         style="fill:#635d42;fill-opacity:1;fill-rule:nonzero;stroke:none"
         d="m 4133.01,5061.87 c -1.19,-8.12 -6.78,-8.98 -13.78,-9.59 -15.76,-1.4 -30.93,2.81 -45.84,5.71 -23.02,4.46 -44.96,6.55 -68.03,-0.11 -11.83,-3.41 -25.02,-2.13 -37.66,0.7 -31.43,7.03 -63.36,11.11 -95.28,15.31 -21.65,2.85 -42.36,9.71 -62.22,19.02 -54.25,25.43 -106.18,54.87 -155.71,88.64 -17.39,11.86 -36.36,21.41 -53.62,33.44 -27.28,19.02 -31.8,63.15 -9.78,85.79 10.57,10.86 22.18,15.53 37.89,11.05 8.86,-2.52 17.29,-5.75 25.67,-9.22 44.27,-18.35 91.77,-25.84 137,-41.04 16.21,-5.45 32.01,-1.25 46.41,7.75 21.72,13.58 45.57,19.65 70.66,15.49 24.98,-4.14 50.48,-10.29 71.02,-25.34 31.16,-22.82 66.11,-36.74 101.5,-50.35 18.55,-34.53 30.85,-71.52 42.32,-108.78 3.88,-12.6 6.34,-25.63 9.45,-38.47" /><path
         id="path50"
         style="fill:#635d42;fill-opacity:1;fill-rule:nonzero;stroke:none"
         d="m 4361.14,3274.05 c -0.75,-7.11 -3.95,-12.14 -11.69,-12.55 -29.42,-1.53 -58.65,-5.78 -87.73,-9.55 -31.44,-4.08 -63.17,-0.24 -94.43,-6.85 -13.52,-2.86 -28.12,-0.79 -42.22,-0.61 -8.1,0.11 -15.32,3.54 -20.76,9.28 -14.02,14.79 -30.08,27.55 -41.87,44.64 -6.32,9.15 -15.38,16.44 -23.35,24.42 -32.39,32.48 -64.81,64.92 -97.27,97.32 -4.48,4.48 -8.98,9.01 -13.89,13 -13.38,10.89 -14.76,13.18 -6.62,27.86 15.36,27.71 33.65,53.62 52.14,79.3 21.1,29.32 48.33,52.86 74.63,77.23 4.15,-0.35 8.29,-0.7 12.44,-1.06 2.16,-2.15 6.09,-0.89 7.74,-4.03 11.72,-7.04 19.33,-18.4 27.67,-28.5 42.55,-51.57 92.69,-96.02 136.3,-146.56 14.23,-16.49 28.96,-32.56 42.67,-49.46 24.35,-30.01 48.25,-60.38 71.97,-90.88 5.5,-7.08 12.57,-13.45 14.27,-23" /><path
         id="path52"
         style="fill:#635d42;fill-opacity:1;fill-rule:nonzero;stroke:none"
         d="m 1616.47,3604.92 c 17.98,-1.09 27.74,-15.04 38.96,-25.94 38.33,-37.24 60.73,-85.51 88.36,-130.13 8.63,-13.95 7.01,-20.74 -6.49,-30.18 -19.08,-13.34 -33.9,-31.34 -51.89,-46.04 -41.28,-33.75 -80.78,-69.81 -117.38,-108.64 -17.76,-18.84 -38.23,-22.43 -61.31,-18.51 -31.73,5.39 -63.75,7.92 -95.61,11.95 -33.24,4.19 -66.14,11.11 -99.2,16.73 -7.89,1.34 -6.84,7.66 -7.78,12.97 0.48,7.02 5.61,11.26 9.99,15.64 28.93,28.89 55.4,59.96 81.87,91.07 30.66,36.02 66.15,67.32 100.41,99.69 33.8,31.93 66.89,64.52 99.7,97.43 5.88,5.91 11.01,13.07 20.37,13.96" /><path
         id="path54"
         style="fill:#635d42;fill-opacity:1;fill-rule:nonzero;stroke:none"
         d="m 2378.51,6069.41 c 6.32,-1.18 13.48,-2.57 17.25,-7.3 9.76,-12.2 21.23,-7.98 32.4,-4.75 22.26,6.46 44.28,13.72 66.43,20.54 17.55,5.4 35.67,10.35 53.81,7.39 24,-3.92 48.01,-7.79 71.99,-11.8 6.74,-1.12 13.29,-4.61 19.42,-7.96 28.47,-15.52 33.53,-51.49 11.36,-74.94 -12.86,-13.61 -27.78,-22.68 -45.27,-29.68 -26.72,-10.7 -51.15,-27.03 -78.79,-35.62 -52.95,-16.45 -106.32,-31.57 -159.32,-47.88 -12.54,-3.87 -25.01,-2.99 -37.6,-3.5 -14.1,-0.58 -25.17,5.94 -32.06,17.07 -6.5,10.51 -11.66,11.55 -23.56,7.34 -33.14,-11.74 -64.35,-28.41 -98.36,-37.77 -13.52,-3.71 -26.75,-8.15 -41.15,-7.9 -36,0.61 -57.42,20.23 -60.74,56.44 40.59,30.21 83.78,56.43 127.97,80.83 53.48,29.54 108.75,55.46 166.15,76.62 3.27,1.2 6.71,1.92 10.07,2.87" /><path
         id="path56"
         style="fill:#a48e41;fill-opacity:1;fill-rule:nonzero;stroke:none"
         d="m 3650.13,843.859 c -3.06,-9.078 -12,-8.98 -18.89,-11.629 -62.62,-24.05 -113.52,-63.019 -152.13,-118.05 -9.25,-13.18 -17.05,-27.348 -28.65,-38.989 -9.12,-9.152 -18.14,-11.179 -30.4,-7.382 -19.39,6.004 -39.29,10.363 -58.92,15.632 -20.91,5.61 -27.52,13.528 -28.54,35.821 -0.71,15.457 -0.41,30.98 -0.05,46.457 0.18,8.07 -2.07,13.5 -10.6,15.441 -4.76,1.09 -9.31,3.129 -13.98,4.672 -20.65,6.789 -22.06,5.91 -35.42,-10.723 -10.09,-12.578 -20.88,-24.687 -32.25,-36.109 -7.56,-7.602 -16.18,-10.711 -28.53,-7.91 -13.82,3.14 -26.83,6.531 -38.83,14.16 -13.18,8.379 -16.55,14.77 -13.48,29.742 1.13,5.469 2.81,10.969 5.19,16.008 20.12,42.602 40.3,85.191 72.62,120.469 5.66,6.179 12.47,12.531 1.7,20.222 16.52,11 34.25,2.739 50.91,1.641 26.65,-1.75 53.01,-5.043 79.54,0.379 3.47,0.711 6.99,0.09 9.79,-2.52 6.39,-5.14 14.33,-5.242 21.85,-6.793 81.19,-16.718 161.82,-35.316 236.54,-72.988 4.35,-2.191 8.36,-5.019 12.53,-7.551" /><path
         id="path58"
         style="fill:#a48e41;fill-opacity:1;fill-rule:nonzero;stroke:none"
         d="m 2371.41,919.059 c -9.89,-6.36 -5.08,-12.61 0.27,-18.649 22.11,-24.988 38.21,-53.82 52.78,-83.512 6.48,-13.199 11.72,-27.109 16.37,-41.078 5.03,-15.078 2.61,-21.789 -9.95,-31.05 -8.47,-6.239 -17.41,-12.11 -27.96,-14.2 -18.66,-3.699 -35.69,-3.398 -49.45,13.7 -10.07,12.519 -19.44,25.793 -31.64,36.679 -7.1,6.34 -13.77,9.121 -22.82,5.192 -5.15,-2.231 -10.48,-4.34 -15.94,-5.461 -10.14,-2.059 -13.94,-7.981 -13.67,-17.969 0.39,-14.082 0.28,-28.18 0.08,-42.27 -0.31,-22.66 -6.55,-31.359 -28.67,-38.179 -19.44,-5.992 -39.39,-10.332 -58.67,-16.75 -17.09,-5.692 -28.56,0.789 -37.71,14.148 -10.32,15.07 -20,30.59 -30.31,45.672 -19.38,28.387 -47.75,46.977 -74.06,67.918 -27.41,21.832 -59.38,33.742 -91.69,45.262 27.89,19.597 59.5,31.539 91.27,42.539 45.93,15.91 93.64,25.699 140.6,38.09 4.95,1.308 9.74,1.8 11.15,7.75 34.89,-13.7 71.27,-13.762 107.69,-10.602 17.52,1.52 34.85,5.293 52.5,6.231 6.89,0.359 14.12,2.89 19.83,-3.461" /><path
         id="path60"
         style="fill:#d3b598;fill-opacity:1;fill-rule:nonzero;stroke:none"
         d="m 1737.04,2177.16 c -0.53,-4.65 0.03,-9.63 -4.12,-13.14 -1.76,2.13 0.16,8.42 -5.6,5.8 -3,-1.36 -5.36,-4.5 -7.57,-7.21 -9.03,-11.1 -21.76,-16.13 -34.87,-18.1 -45.43,-6.81 -86.68,3.58 -121.5,34.34 -21.18,18.71 -39.62,39.8 -50.07,66.81 -12.29,31.74 -13.31,64.38 -7.41,97.34 4.35,24.25 14.34,46.85 22.72,69.88 15.62,5.69 32.36,5.34 48.43,10.09 62.62,18.51 113.13,58.02 166.56,92.62 10.24,6.63 18.82,17.68 33.46,14.16 7.1,-11.21 3.51,-23.46 2.13,-34.89 -3.3,-27.25 -5.11,-54.66 -10.84,-81.68 -8.37,-39.47 -12.05,-78.64 24.08,-108.56 1.41,-13.7 -7.6,-23.43 -13.34,-34.36 -15.86,-30.21 -34.54,-59.13 -42.06,-93.1" /><path
         id="path62"
         style="fill:#635d42;fill-opacity:1;fill-rule:nonzero;stroke:none"
         d="m 2371.41,919.059 c -26.1,-3.93 -52.7,-4.18 -78.48,-10.618 -3.36,-0.851 -6.96,-1.652 -10.34,-1.32 -24.31,2.379 -48.6,4.508 -73.08,4.277 -9.96,-0.097 -13.36,8.844 -18.13,15.512 -16.99,33.442 -26.11,69.301 -32.43,106.02 2.71,18.36 2.64,17.85 20.01,15.18 18.83,-2.9 38.09,-3.07 56.73,-0.13 11.2,1.78 22.21,2.56 33.4,2.87 80.28,2.19 157.13,19.15 228.11,57.22 28.27,15.17 56.02,32.27 78.47,56.18 4.29,4.58 8.45,9.68 15.71,9.44 13.54,-45.68 23.69,-92.21 33.61,-138.76 3.05,-14.32 3.25,-29.31 -0.6,-43.899 -6.99,-11.172 -18.22,-17.062 -29.19,-23.152 -33.45,-18.609 -69.8,-28.52 -107.15,-35.547 -38.57,-7.25 -77.39,-12.113 -116.64,-13.273" /><path
         id="path64"
         style="fill:#635d42;fill-opacity:1;fill-rule:nonzero;stroke:none"
         d="m 3379.21,931.191 c -26.29,-9.531 -52.96,-8.492 -80.17,-4.449 -19.83,2.938 -40.03,3.399 -60.07,4.949 -60.6,3.161 -118.76,17.438 -176.01,37.008 -27.12,9.27 -54.63,17.461 -81.64,27.121 -17.39,11.1 -22.15,28.17 -21.11,47.23 0.73,13.25 1.8,26.74 5.03,39.54 7.36,29.14 16.14,57.91 24.34,86.84 17.8,-7 31.35,-20.66 47.37,-30.51 15.08,-9.27 30.41,-17.4 47.14,-23.11 47.07,-16.06 92.75,-36.35 141.99,-45.78 33.07,-6.33 66.46,-13.18 99.95,-10.04 36.05,3.39 72.87,2.76 107.91,14.23 8.29,2.71 15.41,3.62 17.61,-7.51 -6.37,-27.83 -12.22,-55.89 -22.54,-82.55 -9.31,-24.051 -23.61,-44.34 -49.8,-52.969" /><path
         id="path66"
         style="fill:#d3b598;fill-opacity:1;fill-rule:nonzero;stroke:none"
         d="m 3911.81,2109.22 c -12.09,32.99 -22.87,66.48 -37.45,98.51 -2.58,5.66 -5.49,11.16 -8.24,16.73 -0.77,4.91 2.21,8.18 5.62,10.5 21.67,14.72 26.31,35.95 26.17,60.63 -0.31,56.12 -4.5,112.02 -7.13,168.02 -0.23,4.93 -0.61,9.8 1.07,14.53 7.83,11.08 15.02,2.21 21.21,-1.59 17.9,-10.99 35.59,-22.42 52.53,-34.81 42.51,-31.08 90.07,-49.39 141.62,-58.21 9.17,-25.74 17.77,-51.47 22.26,-78.72 9.09,-55.23 -6.07,-102.71 -41.98,-144.41 -16.22,-18.83 -34.95,-34.35 -57.82,-44.98 -35.08,-16.29 -70.19,-16.38 -105.81,-2.71 -5.06,1.94 -10.55,6.39 -12.05,-3.49" /><path
         id="path68"
         style="fill:#635d42;fill-opacity:1;fill-rule:nonzero;stroke:none"
         d="m 3209.34,6088.63 c -0.32,-26.57 -8.68,-38.2 -35.24,-44.59 -11.73,-2.83 -20.02,-7.58 -27.03,-17.67 -8.46,-12.18 -20.72,-20.53 -34.88,-26.14 -10.42,-4.12 -20.63,-9.18 -30.13,-15.1 -16.76,-10.44 -33.8,-12.29 -52.27,-5.5 -16.08,5.92 -31.1,13.85 -42.72,26.26 -9.15,9.77 -19.11,13.09 -31.91,12.05 -37.56,-3.06 -73.91,5.84 -110.21,13.12 -17.04,3.42 -34.16,9.29 -49.58,17.27 -36.74,19 -77.3,30.49 -111.14,54.88 -12.55,9.05 -27.93,17.41 -29.13,36.27 84.01,10.35 168.08,13.72 252.6,5.86 40.6,-3.77 81.24,-6.5 121.62,-12.65 61.36,-9.35 120.79,-26.19 180.02,-44.06" /><path
         id="path70"
         style="fill:#635d42;fill-opacity:1;fill-rule:nonzero;stroke:none"
         d="m 3671.22,5848.76 c 6.22,-10.83 2.55,-23.35 6.15,-34.8 5.64,-17.91 10,-36.23 14.9,-54.37 -24.06,-19.89 -52.12,-13.03 -78.95,-10.6 -12.25,1.11 -24.4,6.52 -35.95,11.49 -25.25,10.85 -50.98,20.33 -77.17,28.52 -36.85,11.53 -51.49,41.32 -61.5,74.62 -3.39,11.27 2.33,22.31 5.15,33.02 2.97,11.32 3.66,21.97 0.46,33.19 -3.93,13.81 -2.09,28.06 -1.55,42.07 0.32,8.58 4.11,16.4 12.55,20.73 5.27,0.3 9.53,-2.75 13.6,-5.12 48.48,-28.14 98.32,-54.17 142.38,-89.32 20.24,-16.14 39.97,-32.93 59.93,-49.43" /><path
         id="path72"
         style="fill:#635d41;fill-opacity:1;fill-rule:nonzero;stroke:none"
         d="m 2629.42,1542.65 c -29.45,4.67 -59.31,7.08 -87.93,16.25 -43.54,13.95 -87.03,28.04 -127.94,48.89 -3.74,1.91 -7.46,4.06 -10.68,6.71 -5.37,4.4 -7.46,10.29 -5.12,17.05 2.18,6.3 7.49,7.76 13.53,7.94 7.81,0.23 15.29,-0.56 22.79,-3.33 25.78,-9.49 52.65,-14.95 79.41,-20.78 2.06,-0.45 4.15,-1.07 6.22,-1.07 64.42,0.05 125.88,-19.68 188.97,-27.87 39.97,-5.2 80.84,-12.66 121.55,-2.55 1.35,0.34 2.81,0.46 4.2,0.37 33.15,-2.22 65.77,5.31 98.96,4.91 34.51,-0.4 67.93,8.9 101.15,17.95 36.51,9.94 74.85,12.39 110.29,26.92 3.66,1.5 8.49,1.42 12.48,0.6 13.65,-2.8 17.04,-14.8 7.56,-25.08 -4.47,-4.84 -10,-7.18 -16.15,-9.36 -48.38,-17.13 -96.84,-34.07 -146.51,-47.07 -15.44,-4.04 -31.41,-7.17 -47.74,-6.97 -6.75,0.08 -14.27,2.55 -20.01,-3.64 -45.33,-10.12 -91.2,-14.37 -137.67,-13.79 -56.14,0.71 -112.01,3.98 -167.36,13.92" /><path
         id="path74"
         style="fill:#635d42;fill-opacity:1;fill-rule:nonzero;stroke:none"
         d="m 1774.52,2529.01 c -31.06,-20.36 -62.44,-40.25 -93.1,-61.19 -36.29,-24.78 -75.67,-42.24 -117.81,-54.27 -11.99,-3.43 -23.26,-4.25 -35,-0.66 -7.63,4.57 -12.54,11.53 -15.26,19.66 -5.37,15.99 -10.07,32.21 -15.05,48.34 0.99,6.49 5.12,8.38 11.25,10.22 39.77,11.93 77.2,29.09 112.15,51.68 12.93,8.36 26.53,15.66 39.75,23.58 27.14,16.28 50.55,37.65 74.2,58.19 20.42,17.73 37.86,39.28 50.81,63.71 3.17,5.98 4.54,13.83 13.62,14.21 6.22,0.18 7.52,-4.64 9.25,-9.05 2.17,-7.64 2.02,-15.46 0.27,-23.01 -9.53,-41.16 -17.72,-82.58 -24.67,-124.25 -1.16,-6.9 -2.63,-14.07 -10.41,-17.16" /><path
         id="path76"
         style="fill:#635d42;fill-opacity:1;fill-rule:nonzero;stroke:none"
         d="m 4107.21,2383.53 c -13.37,-4.75 -26.1,-1.89 -39.12,2.34 -42.55,13.8 -82.32,32.74 -118.29,59.69 -17.46,13.07 -36.12,24.55 -54.23,36.75 -9.46,10.1 -8.78,23.24 -10.57,35.59 -3.02,20.87 -4.61,41.9 -7.36,62.81 -1.1,8.33 -1.96,16.93 4.74,23.86 1.47,5.92 -1.6,12.44 3.48,20.08 6.71,-6.59 13.32,-12.55 19.33,-19.06 41.91,-45.31 93.13,-78.38 146.53,-107.59 26.54,-14.52 53.22,-31.37 85.06,-33.85 1.67,-0.13 3.16,-2.56 4.73,-3.91 -6.01,-18.51 -11.83,-37.08 -18.13,-55.49 -2.98,-8.72 -8.17,-16.14 -16.17,-21.22" /><path
         id="path78"
         style="fill:#635d42;fill-opacity:1;fill-rule:nonzero;stroke:none"
         d="m 1503.16,5120.26 c 43.69,-1.09 65.08,-22.13 73.14,-51.45 5.78,-21.04 0.77,-38.87 -12.26,-54.87 -11.22,-13.77 -25.34,-24.32 -41.3,-32.27 -15.14,-7.53 -30.33,-14.96 -45.43,-22.57 -5.93,-2.98 -7.28,0.72 -8.3,5.22 6.32,53.09 15.51,105.55 34.15,155.94" /><path
         id="path80"
         style="fill:#645d42;fill-opacity:1;fill-rule:nonzero;stroke:none"
         d="m 1617.67,5395.43 c 36.09,-2.35 58.91,-36.51 41.63,-69.34 -26.8,-50.93 -66.37,-90.05 -123.15,-108.19 5.75,27.84 19.22,52.74 30.7,78.27 15.25,33.89 31.21,67.54 50.82,99.26" /><path
         id="path82"
         style="fill:#bb8f6d;fill-opacity:1;fill-rule:nonzero;stroke:none"
         d="m 1880.43,1181.84 c 5.62,7.02 13.23,4.11 20.25,4.07 0.28,-1.21 0.3,-2.41 0.04,-3.62 -6.77,-0.14 -13.53,-0.29 -20.29,-0.45" /><path
         id="path84"
         style="fill:#79704f;fill-opacity:1;fill-rule:nonzero;stroke:none"
         d="m 4068.26,3612.45 c -3.3,-0.03 -6.05,0.99 -7.74,4.03 3.64,0.7 6.1,-0.87 7.74,-4.03" /><path
         id="path86"
         style="fill:#bb8f6d;fill-opacity:1;fill-rule:nonzero;stroke:none"
         d="m 1638.78,5425.2 c -0.79,-2.57 -2.54,-3.72 -5.21,-3.48 1.07,2.16 2.84,3.27 5.21,3.48" /><path
         id="path88"
         style="fill:#635d41;fill-opacity:1;fill-rule:nonzero;stroke:none"
         d="m 2308.87,3573.84 c 7.17,2.7 13.6,4.72 22.18,2.5 65.38,-16.91 129.66,-37.8 195.48,-53.15 57.24,-13.34 113.61,-14.58 170.83,1.1 58.98,16.17 118.55,30.33 178.25,43.64 28.73,6.41 58.19,9.43 87.72,11.89 36.62,3.05 73.28,5.14 109.79,2.79 51.86,-3.34 103.75,-6.82 155.29,-14.59 40.97,-6.18 82.36,-9.59 122.89,-18.71 7.54,-1.7 15.09,-3.35 22.64,-5.03 27.06,-12.12 35.64,-40.86 19.21,-65.17 -5.87,-8.67 -13.58,-15.78 -21.27,-22.85 -73.81,-53.65 -157.42,-86.81 -243.14,-115.13 -55.48,-18.33 -112.2,-32.25 -170.36,-39.27 -11,-1.32 -13.65,-8.08 -14.78,-17.11 -4.56,-36.3 -4.15,-72.96 -7.88,-109.3 -1.81,-17.59 1.47,-37.4 -17.12,-49.41 -34.38,-5.15 -68.9,-2.22 -103.37,-1.82 -5.68,0.07 -11.07,2.03 -15.53,5.86 -6.67,6.63 -6.86,15.33 -6.51,23.71 1.61,38.12 -2.85,75.98 -4.58,113.96 -1.17,25.63 -4.79,29.75 -30.96,33.15 -71.66,9.32 -140.42,29.55 -207.95,54.58 -20.66,7.66 -38.69,20.07 -57.76,30.69 -36.91,20.56 -74.13,40.59 -113.37,56.68 -23.4,9.59 -46.92,19.54 -65.88,37.3 -14.42,25.21 -10.1,53.44 -12.67,80.53 -0.55,5.78 2.9,10.78 8.85,13.16" /><path
         id="path90"
         style="fill:#c5af59;fill-opacity:1;fill-rule:nonzero;stroke:none"
         d="m 2308.87,3573.84 c -1.49,-5.33 -5.34,-10.22 -4.04,-16.07 4.58,-20.57 1.52,-41.92 6.65,-62.47 1.19,-4.78 2.18,-9.5 4.49,-13.87 9.14,-13.65 9.27,-29.77 9.9,-44.9 1.97,-47.29 7.52,-94.16 13.64,-141.01 0.16,-5.01 1.04,-9.93 2.17,-14.83 0.89,-5.24 0.9,-10.42 -0.99,-15.49 -5.07,-9.94 -14.67,-10.41 -23.73,-10.32 -52.76,0.53 -105.56,-2.67 -158.31,2.04 -21.04,1.88 -42.01,-2.81 -63.19,-2.7 -24.75,0.14 -49.06,4.39 -73.67,5.57 -7.46,0.36 -18.62,0.44 -15.02,14.18 5.51,19.66 7.49,39.72 9.41,60.05 2.84,30.16 4.05,60.24 3.13,90.41 -0.64,20.99 -3.94,41.8 -3.46,62.97 1.15,51.23 5.23,102.37 4.09,153.7 -0.64,28.77 -6.51,57.23 -4.27,86.1 8.42,-0.33 14.02,-6.49 20.08,-10.81 46.94,-33.47 96.74,-61.38 149.25,-85.51 41.29,-18.97 83.83,-35.35 123.87,-57.04" /><path
         id="path92"
         style="fill:#c5af59;fill-opacity:1;fill-rule:nonzero;stroke:none"
         d="m 3370.44,3460.3 c 4.16,4.66 8.22,9.41 12.49,13.96 18.38,19.58 18.74,39.23 0.96,59.34 -3.22,3.64 -6.62,7.13 -9.95,10.69 18.03,12.89 39.74,17.39 59.9,24.97 32.57,12.24 62.05,29.39 91.4,47.6 40.08,24.87 77.53,53.2 114.47,82.3 9.36,7.38 17.32,16.52 26.07,24.68 5.04,4.7 8.86,11.3 16.91,11.66 -5.65,-39.16 -4.01,-78.29 -0.4,-117.52 1.55,-16.76 1.41,-33.7 1.42,-50.56 0.05,-51.29 6.13,-102.38 4.68,-153.7 3.66,-42.12 0.52,-84.32 1.65,-126.47 0.29,-10.85 -6.31,-13.1 -14.92,-12.91 -30.26,0.7 -60.3,-3.42 -90.61,-3.21 -66.13,0.47 -132.12,-3.22 -197.9,-10.81 -14.55,-1.68 -31.4,-6.92 -41.39,10.93 -1.78,24.88 5.9,48.63 9.49,72.82 4.64,31.35 4.17,63.08 9.04,94.35 1.21,7.74 2.18,15.28 6.69,21.88" /><path
         id="path94"
         style="fill:#28292a;fill-opacity:1;fill-rule:nonzero;stroke:none"
         d="m 3371.46,4687.38 c 28.42,11.68 50.11,33.81 76.2,49.13 5.47,3.2 10.4,7.39 16.05,10.17 10.59,5.22 20.36,2.57 25.89,-6.23 4.93,-7.86 3.21,-16.26 -5.34,-24.44 -2.52,-2.42 -5.5,-4.43 -8.48,-6.28 -31.69,-19.7 -60.54,-43.68 -93.9,-60.95 -20.39,-10.55 -19.74,-11.41 -10.09,-31.55 17.07,-35.66 32.54,-71.97 39.06,-111.28 5.84,-35.23 5.75,-70.58 -6.74,-104.37 -19.75,-53.4 -67.85,-93.35 -129.82,-89.36 -45.33,2.91 -83.9,23.75 -110.4,62.24 -24.1,34.98 -40.42,74.09 -57.22,112.87 -3.06,7.04 -4.35,14.92 -10.52,21.63 -11.9,-5.05 -23.83,-10.83 -36.26,-15.18 -13.42,-4.7 -23.33,-1.39 -27.48,7.56 -4.32,9.28 -0.92,18.18 10.67,26.73 22.31,16.44 47.95,26.74 72.62,38.77 46.91,22.86 93.05,46.93 134.37,79.3 13.31,10.42 27.21,20.07 40.95,29.93 24.87,17.85 44.15,41.43 64.51,63.77 19.45,21.35 37.26,44.16 51.07,69.8 2.29,4.24 5.39,8.49 9.15,11.42 6.77,5.29 14.72,5.25 21.61,0.27 6.07,-4.39 9.32,-11.1 6.62,-18.57 -2.62,-7.23 -6.22,-14.19 -10.09,-20.86 -18.87,-32.52 -43.98,-60.23 -68.63,-88.27 -3.07,-7.19 -0.74,-9.01 6.2,-6.25" /><path
         id="path96"
         style="fill:#28292a;fill-opacity:1;fill-rule:nonzero;stroke:none"
         d="m 2286.72,4705.39 c -27.87,29.92 -55.39,60.11 -76.41,95.52 -3.6,6.06 -7.59,11.9 -9.3,18.87 -2.52,10.21 1.18,19.15 9.83,23.02 9.15,4.09 16.39,0.8 22.33,-6.49 0.89,-1.09 1.61,-2.32 2.28,-3.55 21.7,-40.11 52.11,-73.34 83.04,-106.29 15.6,-16.61 33.94,-29.47 51.78,-43.28 41.35,-32 84.4,-61.15 131.48,-84.11 22.16,-10.8 44.25,-21.73 66.47,-32.38 12.76,-6.12 24.79,-13.37 36.29,-21.57 8.63,-6.15 11.19,-14.34 7.35,-24.07 -3.38,-8.56 -12.33,-12.72 -23.07,-9.68 -9.42,2.67 -18.47,6.83 -27.41,10.92 -14.49,6.63 -15.15,7.11 -20.74,-8.42 -10.55,-29.27 -25.62,-56.41 -38.57,-84.54 -8,-17.37 -17.8,-34.03 -30.94,-47.76 -38.66,-40.39 -85.06,-60.4 -141.15,-45.23 -50.65,13.7 -81.53,48.5 -94.02,98.88 -10.98,44.28 -6.53,88.16 7.85,131.14 8.73,26.1 19.56,51.32 31.76,76 6.58,13.31 6.46,14.28 -6.35,21.17 -33,17.74 -63.03,39.96 -93.91,60.91 -4.66,3.16 -9.53,6.12 -13.76,9.8 -10.87,9.46 -12.46,18.41 -5.4,27.5 6.19,7.97 15.6,9.43 26.42,2.74 13.77,-8.52 27.31,-17.48 40.39,-27.02 18.82,-13.74 38.06,-26.7 59.08,-36.86 5.12,-1.89 7.32,-0.93 4.68,4.78" /><path
         id="path98"
         style="fill:#28292a;fill-opacity:1;fill-rule:nonzero;stroke:none"
         d="m 2823.25,4003.19 c -10.81,-10.66 -19.91,-21.33 -31.34,-29.52 -75.4,-54.02 -177.4,-29 -228.4,37.83 -3,3.94 -5.97,7.83 -6.45,13.06 -0.63,6.9 1.42,12.38 7.42,16.29 6.3,4.08 12.42,3.26 17.43,-1.51 7.14,-6.77 13.47,-14.39 20.33,-21.47 44.77,-46.24 115.14,-54.17 168.28,-18.79 12.45,8.29 22.94,18.33 28.51,32.99 3.67,9.65 2.31,16.17 -7.46,20.34 -22.3,9.52 -40.59,25.25 -60.12,39.04 -9.8,6.92 -18.93,14.72 -26.23,24.39 -7.36,9.74 -12.46,20.28 -12.8,32.89 -0.48,17.82 6.36,27.67 24.13,31.52 10.27,2.22 20.88,3.62 31.38,3.91 52.11,1.46 104.23,2.36 156.35,3.6 12.81,0.3 25.44,-0.75 37.42,-5.32 27.06,-10.31 33.15,-42.9 10.59,-61.19 -31.19,-25.27 -63.22,-49.54 -97.74,-70.25 -12.85,-7.71 -12.46,-7.58 -6.58,-21.32 9.84,-23.04 30.18,-33.08 51.59,-40.44 20.69,-7.12 42.22,-9.63 64.47,-5.25 23.01,4.53 44.92,11.26 65.65,22.35 17.84,9.56 32.6,22.05 42.95,39.55 1.43,2.42 2.72,5.04 4.63,7.03 6.21,6.51 16.31,7.45 22.9,1.99 6.74,-5.59 9.19,-12.79 4.44,-20.64 -10.28,-16.99 -22.03,-33.22 -38.73,-44.21 -50.74,-33.38 -105.55,-49.65 -166.39,-34.86 -30.03,7.31 -55.79,22.45 -76.23,47.99" /><path
         id="path100"
         style="fill:#8b7454;fill-opacity:1;fill-rule:nonzero;stroke:none"
         d="m 2304.83,4070.25 c -18.91,2.26 -36.1,9.85 -52.59,19.65 -48.42,28.8 -92.48,63.81 -138.02,96.69 -19.31,13.94 -37.7,29.44 -54.91,45.9 -16.82,16.1 -27.31,35.12 -19.59,60.5 6.82,22.43 29.6,33.07 49.51,29.49 26.49,-4.77 50.47,-16.06 72.74,-31.88 31.5,-22.38 63.56,-43.97 94.06,-67.72 25.47,-19.84 52.15,-38.25 74.01,-62.46 6.21,-6.87 11,-14.41 15.94,-22.14 9.43,-14.8 8.94,-28.35 0.02,-43.27 -8.96,-14.99 -23.76,-24.98 -41.17,-24.76" /><path
         id="path102"
         style="fill:#8c7555;fill-opacity:1;fill-rule:nonzero;stroke:none"
         d="m 3611.69,4287.48 c 2.09,-19.28 -8.11,-33.59 -20.76,-44.5 -57.47,-49.59 -118.06,-95.18 -182.16,-135.89 -13.52,-8.59 -26.61,-18.63 -42.87,-22.23 -13.93,-3.08 -27.74,-4.32 -41.31,1.7 -22.46,9.97 -32.4,35.35 -22.65,58 3.94,9.15 9.79,16.84 16.49,24.28 30.89,34.3 69.7,58.89 105.83,86.69 22.25,17.11 45.6,32.8 68.69,48.79 16.87,11.69 35.68,19.66 55.12,25.8 13.61,4.3 28.01,5.22 41.19,-1.35 16.83,-8.39 24.4,-22.69 22.43,-41.29" /><path
         id="path104"
         style="fill:#8c7555;fill-opacity:1;fill-rule:nonzero;stroke:none"
         d="m 3651,4209.69 c 9.57,-0.3 20.39,-6.97 26.07,-20.8 15.97,-38.91 11.39,-69.89 -26.41,-94.8 -34.59,-22.8 -67.35,-48.35 -101.85,-71.29 -28.07,-18.66 -57.43,-35.39 -86.39,-52.7 -12.87,-7.7 -27.59,-10.69 -41.99,-13.5 -20.88,-4.08 -47.11,20.63 -45.09,42.87 1.93,21.34 8.2,39.93 29.07,52.76 34.67,21.3 68.04,44.83 101.02,68.72 29.55,21.4 57.8,44.58 86.67,66.91 18.44,14.26 37.41,21.93 58.9,21.83" /><path
         id="path106"
         style="fill:#8b7454;fill-opacity:1;fill-rule:nonzero;stroke:none"
         d="m 2007.24,4196.95 c 15.9,2.01 28.04,-4.78 40.16,-12.41 35.75,-22.52 66.89,-51.12 100.74,-76.14 24.33,-17.98 50.14,-33.71 74.86,-51.05 10.92,-7.66 22.08,-15.01 32.65,-23.13 17.3,-13.31 24.18,-43.6 14.97,-63.46 -9.14,-19.72 -29.44,-28.28 -53.57,-22.16 -16.53,4.2 -31.57,12.22 -46.09,20.75 -63.67,37.37 -123.23,80.91 -183.31,123.61 -22.18,15.76 -26.33,38.75 -21.2,64.02 1.24,6.13 4.08,11.95 6.24,17.89 6.02,16.61 16.68,25.9 34.55,22.08" /><path
         id="path108"
         style="fill:#9b7a60;fill-opacity:1;fill-rule:nonzero;stroke:none"
         d="m 3371.46,4687.38 c -5.19,-5.82 -11.58,-9.42 -21.72,-12.26 4.06,9.53 9.41,14.32 15.52,18.5 2.07,-2.08 4.13,-4.16 6.2,-6.24" /><path
         id="path110"
         style="fill:#846b57;fill-opacity:1;fill-rule:nonzero;stroke:none"
         d="m 2286.72,4705.39 c 4.62,-1.95 7.68,-5.44 10.35,-11.06 -7.2,-2.08 -11.03,2.33 -15.03,6.28 1.56,1.59 3.12,3.19 4.68,4.78" /><path
         id="path112"
         style="fill:#c5af59;fill-opacity:1;fill-rule:nonzero;stroke:none"
         d="m 2798.76,3134.02 c 3.32,-1.04 6.63,-2.94 9.95,-2.97 37.62,-0.3 75.25,-0.31 112.87,-0.39 26.84,10.38 55.58,8.65 83.07,9.17 97.1,1.84 193.31,10.06 288.58,28.97 51.15,-11.02 103.23,-8.85 154.98,-12.19 54.37,-3.51 107.87,0.54 161.72,4.66 27.7,2.12 54.09,7.96 79.65,18.56 7.62,3.16 14.99,8.2 24.04,5.74 21.28,-34.28 36.9,-71.09 45.11,-110.47 7.51,-36.02 23.34,-69.19 33.04,-104.42 2.57,-9.34 7.18,-18.45 8.57,-28.09 1.61,-11.09 6.73,-19.71 14.04,-27.54 15.85,-49.07 31.73,-98.13 38.69,-149.5 -1.13,-26.48 8.96,-51.06 13.32,-76.6 4.38,-25.6 9.04,-51.14 12.59,-76.88 0.36,-2.6 2.24,-5 3.41,-7.5 3.46,-33.17 6.9,-66.33 10.41,-99.49 0.8,-7.6 1.84,-15.18 2.77,-22.77 8.02,-39.51 2.22,-79.81 7.23,-119.69 3.75,-29.82 1.66,-60.52 0.55,-90.76 -0.59,-16.14 -9.61,-29.16 -23.06,-38.51 -4.58,-3.18 -9.44,-5.94 -14.18,-8.89 -26.35,-7.35 -52.07,-16.73 -78.59,-23.64 -49.05,-12.79 -99.11,-19.86 -149.02,-27.68 -48.54,-7.61 -97.21,-14.74 -146.04,-20.03 -59.35,-6.44 -118.01,-17.75 -177.53,-23.07 -28.58,-2.56 -57.08,-7.23 -85.68,-10.33 -2.8,-0.3 -5.59,-1.22 -8.35,-1.12 -35.95,1.36 -71.52,-6.25 -107.47,-4.55 -43.69,2.05 -87.01,-5.43 -130.71,-4.54 -45.75,0.93 -91.54,0.1 -137.31,0.04 -15.2,4.97 -30.86,4.25 -46.51,3.72 -23.39,-9.81 -47.42,-2.24 -70.53,-0.33 -90.57,7.49 -181.48,11.52 -271.58,24.11 -48.18,6.73 -96.31,13.85 -144.33,21.65 -6.33,1.03 -12.33,3.01 -17.5,6.99 -16.8,21.91 -9.67,46.76 -8.14,70.74 0.84,13.25 4.58,26.5 -5.39,38.02 -7.58,8.22 -8.6,18.96 -11.11,29.15 -7.87,31.88 -45.15,54.63 -77.61,47.3 -6.14,-1.39 -12.03,-4 -18.51,-3.74 -18.52,10.77 -35.85,6.05 -53.27,-3.43 -23.9,-13.01 -49.21,-23.78 -67.93,-44.68 -23.16,-14.79 -46.97,-18.37 -74.44,-11.27 -51.75,13.37 -104.15,17.91 -155.64,-2.91 -14,-1.2 -25.54,2.44 -31.85,16.3 -0.82,1.14 -1.39,2.71 -2.5,3.36 -37.92,22.41 -34.52,57.81 -28.83,93.41 6.96,43.48 15.51,86.74 14.78,131.07 7.39,17.7 7.95,36.9 11.08,55.39 4.35,25.61 10.25,50.79 16.15,76.02 2.54,10.9 4.86,21.81 2.67,33.1 10.01,84.42 37.28,164.41 62.93,244.81 2.61,8.18 7.8,14.93 12.62,21.87 23.95,69.72 56.65,135.76 85.3,203.51 4.7,4.22 10.51,4.86 15.88,2.88 33.18,-12.22 68.4,-10.65 102.43,-11.78 83.66,-2.75 167.54,-4.61 251.01,6.35 15.59,2.05 29.43,9.66 44.96,11.11 81.52,-19.37 165.08,-16.78 247.82,-22.99 51.26,-3.84 102.62,-6.01 153.94,-8.79 6.49,-0.35 12.54,-1.85 17.45,-6.46" /><path
         id="path114"
         style="fill:#e06a7d;fill-opacity:1;fill-rule:nonzero;stroke:none"
         d="m 2281.3,2279.75 c 11.18,-1.99 14.17,-9.3 13.85,-19.76 -0.63,-20.15 -5.7,-39.92 -4.15,-60.31 0.79,-10.44 1.11,-20.82 3.88,-30.97 11.16,-29.61 10.78,-59.27 0.44,-88.99 -0.32,-46.49 -2.63,-93.01 3.14,-139.38 1.05,-8.36 0.76,-16.9 0.93,-25.37 1.12,-57.07 -2.03,-114.17 3.16,-171.23 2.47,-27.18 -4.65,-35.88 -30.99,-41.15 -34.46,-6.9 -69.16,-12.61 -103.86,-18.21 -13.48,-2.18 -22.51,5.82 -29.45,16.4 -12.06,18.42 -20.04,38.87 -27.77,59.25 -23.38,61.57 -58.05,117.44 -87.81,175.79 -13.45,26.37 -28.47,52 -39.77,79.39 -10.62,25.75 -8.28,33.21 12.39,51.36 5.85,12.23 19.4,14.62 28.67,22.49 13.69,8.56 28.12,15.8 41.43,25.04 15.61,10.83 21.72,24.54 17.47,43.49 -9.07,40.4 -17.45,80.96 -26.76,121.31 -1.88,8.15 -4.41,16.37 -1.76,24.89 1.68,7.27 6.13,11.99 12.56,15.8 21.59,12.78 43.42,24.94 66.14,35.72 15.2,7.21 27.74,7.34 39.47,-5.27 10.68,-7.34 17.34,-18.39 24.71,-28.45 14.27,-19.48 33.24,-29.69 56.56,-32.54 9.94,-1.22 19.26,-3.5 27.52,-9.3" /><path
         id="path116"
         style="fill:#635d42;fill-opacity:1;fill-rule:nonzero;stroke:none"
         d="m 2295.32,2079.72 c -1,29.66 -2.37,59.32 -0.44,89 37.21,-7.24 74.86,-11.67 112.23,-17.74 35.39,-5.74 70.87,-10 106.48,-13.54 36.31,-3.62 72.57,-8.7 108.96,-10.18 34.47,-1.4 68.6,-4.69 102.83,-8.36 24.41,-2.63 49.21,-0.98 73.52,-5.64 14.21,-8.97 17.49,-18.85 16.14,-34.73 -2.1,-24.68 -5.81,-49.43 -0.27,-74.31 5.23,-23.46 -8.51,-37.28 -31.11,-39.26 -85.87,-7.5 -171.81,-3.01 -257.67,-2.8 -26.2,0.07 -53.03,4.11 -79.46,6.15 -35.11,2.7 -69.61,8.09 -104.05,14.3 -50.61,9.14 -42.15,0.72 -43.45,47.47 -0.46,16.55 4.16,33.61 -3.71,49.64" /><path
         id="path118"
         style="fill:#28292a;fill-opacity:1;fill-rule:nonzero;stroke:none"
         d="m 2054.34,2303.79 c 12.61,-39.43 19.65,-80.2 28.63,-120.5 2.13,-9.58 3.39,-19.4 6.04,-28.83 5.14,-18.25 -1.97,-31.71 -15.97,-42.22 -15.17,-11.4 -31.38,-21.25 -48.92,-28.72 -10.78,-3.95 -13.49,4.99 -16.78,11.37 -6.27,12.16 -16.17,16.84 -29.17,16.67 -23.81,-0.29 -47.7,1.81 -71.42,-1.85 -13.46,-2.08 -26.39,0.75 -39.34,3.7 -9.11,0.16 -18.26,-0.04 -27.34,0.58 -13.64,0.93 -24.43,6.17 -27.96,20.88 -4.4,7.42 -6.32,15.42 -6.33,24.06 -0.01,35.7 -1.38,71.45 4.29,106.94 1.34,8.45 2.08,16.85 10.81,21.41 16.65,16.55 38.74,15.12 59.23,16.19 35.05,1.82 70.09,-0.13 104.02,-10.84 15.82,-5 31.28,-6.06 46.71,2.11 7.37,3.9 15.64,6.09 23.5,9.05" /><path
         id="path120"
         style="fill:#635d42;fill-opacity:1;fill-rule:nonzero;stroke:none"
         d="m 1820.88,2287.28 c -6.42,-20.87 -7.2,-42.58 -8.12,-64.04 -1.27,-29.41 -0.53,-58.91 -0.65,-88.37 -19.7,9.9 -39.3,19.98 -59.14,29.59 -6.4,3.1 -11.61,7.22 -15.94,12.7 -7.5,8.23 -1.82,16.32 1.37,23.44 15.51,34.56 31.72,68.82 52.67,100.55 9.82,-4.88 17.98,-13.31 29.81,-13.87" /><path
         id="path122"
         style="fill:#635d42;fill-opacity:1;fill-rule:nonzero;stroke:none"
         d="m 1867.41,2113.41 c 36.48,1.11 72.73,5.9 109.39,5.13 19.49,-0.41 33.01,-5.18 37.89,-25.21 1.28,-5.26 3.68,-9.05 9.44,-9.81 -8.95,-6.79 -18.46,-12.61 -28.84,-16.95 -43.44,13.38 -86.39,28.12 -127.88,46.84" /><path
         id="path124"
         style="fill:#635d42;fill-opacity:1;fill-rule:nonzero;stroke:none"
         d="m 2478.98,5615 c 3.73,-4.89 7.66,-1.98 11.65,-1.3 24.19,4.13 47.65,2.97 69.04,-10.82 7.26,-4.68 15.36,-6.86 23.65,-8.42 17.08,-3.2 31.88,-11.12 44.9,-22.2 33.25,-28.28 28.97,-71.37 -9.05,-92.94 -5.52,-3.13 -11.17,-6.13 -17.04,-8.48 -58.09,-23.32 -116.82,-43.64 -179.73,-50.74 -25.03,-2.83 -49.64,-9.16 -75.17,-7.88 -9.16,0.46 -17.98,1.54 -27.03,3.48 -17.91,3.83 -36.43,2.47 -54.17,-1.31 -23.25,-4.94 -45.21,-0.04 -65.86,8.33 -27.5,11.15 -38.41,45.95 -29.77,79.74 6.72,26.29 23.28,46.43 39.08,66.8 13.05,16.81 22.05,36 34.8,52.81 5.31,6.99 5.14,14.51 2.43,22.07 -3.79,10.57 -2.44,20.54 1.08,30.92 6.33,18.69 13.61,36.94 21.66,54.96 5.38,12.04 13.42,22.08 23.69,29.28 49.21,34.52 100.86,64.6 159.98,78.94 21.86,5.3 44.32,7.6 66.95,6.05 28.43,-1.94 54.93,-23.62 55.53,-57.02 0.87,-49.42 -23.13,-85.74 -50.85,-121.38 -10.75,-13.82 -24.79,-25.05 -37.06,-37.72 -3.67,-3.79 -9.44,-6.62 -8.71,-13.17" /><path
         id="path126"
         style="fill:#635d42;fill-opacity:1;fill-rule:nonzero;stroke:none"
         d="m 3349.98,5804.25 c 17.8,-14.31 34.25,-28.29 46.04,-46.88 18.53,-29.23 7.82,-64.7 -23.49,-79.37 -18.83,-8.83 -38.73,-9.56 -57.95,-6.61 -49.49,7.6 -95.85,23.76 -140.78,47.44 -41.87,22.07 -85.94,41.37 -133.84,49.4 -38.84,6.5 -75.95,20 -112.95,33.28 -21.18,7.6 -42.31,15.42 -62,26.54 -5.08,2.87 -10.62,3.1 -16.26,3.71 -30.15,3.26 -39.67,16.38 -41.83,47.19 -3.13,44.5 25,72.7 53.32,81.99 27.22,8.93 55.16,12.7 84.41,3.88 34.17,-10.32 69.49,-16.77 104.15,-25.52 8.4,-2.12 14.85,-1.53 21.21,4.56 7.09,6.78 16.27,10.99 22.84,18.6 9.81,11.36 23.5,15.96 37.57,16.99 26.01,1.89 52.05,0.79 77,-8.16 25.1,-8.99 51.99,-12.76 75.57,-26.1 4.88,-2.76 10.75,-4.89 14.12,-8.99 15.31,-18.65 37.07,-27.77 57.16,-38.97 18.06,-10.06 25.25,-25.7 28.54,-44.26 1.96,-11.04 -2.14,-20.61 -9.44,-29.13 -6.42,-7.48 -14.99,-12.4 -23.39,-19.59" /><path
         id="path128"
         style="fill:#d3b399;fill-opacity:1;fill-rule:nonzero;stroke:none"
         d="m 1706.88,5438.2 c -23.07,44.63 -33.44,93.57 -48.06,141.09 -15.48,50.32 -29.3,101.06 -42.46,152.03 -8.86,34.34 -13.39,68.79 -11.63,104.19 1.02,20.47 7.96,38.32 21.59,53.57 12.09,13.53 25.96,17.51 43.62,10.68 33.57,-12.99 65.78,-28.71 97.02,-46.39 62.99,-35.66 124.28,-74.27 188.28,-108.19 9.77,-5.18 20.45,-9.63 26.75,-19.73 2.32,-5.13 0.34,-9.82 -2.03,-14.08 -28.19,-50.55 -60.68,-98.13 -98.65,-141.87 -3.65,-4.22 -7.75,-8.27 -13.74,-9.25 -38.56,-42.65 -80.38,-81.43 -130.9,-109.76 -6.65,-3.73 -14.01,-6.18 -21.04,-9.22 -1.81,-0.8 -3.51,-1.76 -5.11,-2.92 l -1.81,-0.2 -1.83,0.05" /><path
         id="path130"
         style="fill:#635d42;fill-opacity:1;fill-rule:nonzero;stroke:none"
         d="m 3403.46,5318.61 c -29.51,4.92 -61.77,9.61 -88.97,28.61 -25.49,17.81 -54.42,29.41 -80.03,46.84 -15.07,10.26 -29.01,22.04 -45.19,30.86 -24.72,13.48 -52.2,15.89 -78.89,21.07 -40.48,7.85 -81.35,13.66 -121.92,21.07 -35.65,6.51 -65.74,22.72 -90.07,50.59 -21.22,24.33 -15.63,56.69 15.48,64.14 29.85,7.16 58.98,17.19 89.66,21.7 27.1,3.99 53.84,9.58 81.42,8.05 6.1,-0.34 10.41,2.39 14.06,7.54 14.2,19.97 31.71,31.07 57.7,22.75 7.7,-2.46 16.79,-0.41 25.23,-0.74 60.78,-2.41 108.87,-28.77 145.21,-77.2 10.64,-14.18 19.59,-29.06 22.34,-47.09 1.52,-9.98 9.68,-14.9 17.33,-20.07 30.32,-20.52 58.44,-43.49 84.57,-69.36 21.7,-21.48 25.08,-50.74 16.75,-69.26 -12.02,-26.75 -33.91,-37.93 -64.68,-39.5" /><path
         id="path132"
         style="fill:#d3b298;fill-opacity:1;fill-rule:nonzero;stroke:none"
         d="m 3725.78,5687.43 c -1.25,10.93 2.89,18.25 12.62,24.25 8.52,5.26 17.52,8.76 26.56,12.55 62.2,26.01 124.27,52.32 186.57,78.08 30.5,12.61 61.68,23.48 93.63,31.9 25.74,6.79 45.92,-5.51 53.44,-30.97 9.67,-32.69 3.19,-64.16 -6.81,-95.09 -13.19,-40.79 -30.18,-80.17 -46.97,-119.59 -13.21,-31.01 -26.41,-62.04 -40.43,-92.7 -10.21,-22.33 -21.44,-44.22 -32.82,-65.98 -4.56,-8.71 -10.42,-16.95 -21.72,-18.08 -7.43,-1.23 -11.79,3.92 -16.15,8.31 -51.13,51.46 -104.6,100.72 -149.41,158.17 -1.21,1.64 -2.09,3.45 -2.7,5.38 0.02,1.02 0.04,2.03 0.07,3.04 -19.08,33.32 -39.87,65.7 -55.88,100.73" /><path
         id="path134"
         style="fill:#635d42;fill-opacity:1;fill-rule:nonzero;stroke:none"
         d="m 2043.19,5397.81 c 2.77,-6.74 8.98,-7.95 13.39,-11.14 20.23,-14.64 26.85,-33.39 18.21,-56.82 -6.16,-16.73 -15.44,-31.18 -31.13,-41.33 -18.86,-12.21 -36.28,-26.6 -56.07,-37.48 -26.27,-14.45 -52.87,-27.04 -84.08,-17.76 -6.44,1.92 -10.47,-1.55 -15.07,-5.15 -32.12,-25.15 -65.28,-48.11 -102.97,-65.09 -35.21,-15.86 -69.3,-34.16 -105.88,-47.01 -9.47,-3.33 -19.01,-4.69 -29.01,-4.42 -28.85,0.81 -43.65,23.39 -35.2,50.88 11.74,38.16 37.03,62.67 73.59,75.21 26.77,9.18 47.68,26.58 69.67,42.86 8.6,6.37 5.74,13.21 1.56,20.27 -11.64,19.67 -8.71,39.43 0.65,58.57 8.03,16.45 22.69,26.97 38.16,35.44 43.23,23.68 87.04,46.3 130.36,69.81 22.43,12.17 46.52,20.03 70.21,28.96 16.8,6.34 33.01,4.94 48.61,-4.38 17.91,-10.7 24.88,-30.2 19.21,-50.66 -4.46,-16.09 -15.89,-27.74 -24.21,-40.76" /><path
         id="path136"
         style="fill:#635d42;fill-opacity:1;fill-rule:nonzero;stroke:none"
         d="m 2726.37,5619.72 c -16.05,1.14 -32.24,-1.81 -48.13,4.15 -24.69,9.27 -35.92,24.25 -36.09,50.8 -0.04,7.06 0.77,14.22 -0.15,21.15 -2.53,19.16 7.76,30.48 22.82,39 20.46,11.57 42.22,19.38 65.87,20.39 7.25,0.31 13.67,3.25 20.62,4.17 15.19,2.03 30.18,2.68 45.62,0.4 36.08,-5.35 72.49,-7.32 108.95,-9.12 25.79,-1.27 52.25,-5.26 75.19,-17.73 14.1,-7.67 28.75,-17.86 29.7,-38.01 0.95,-20.04 -7.38,-33.59 -24.63,-42.88 -11.4,-6.13 -23.71,-9.56 -36.18,-10.56 -20.96,-1.68 -41.95,-1.79 -63.01,-3.98 -37.59,-3.9 -75.67,-3.95 -112.33,-14.21 -16.13,-4.52 -32.17,-2.53 -48.25,-3.57" /><path
         id="path138"
         style="fill:#635d42;fill-opacity:1;fill-rule:nonzero;stroke:none"
         d="m 1867.57,5560.25 c 16.19,20.14 32.69,40.05 48.5,60.5 25.33,32.75 45.42,68.87 65.92,104.7 1.2,0.13 2.38,0.33 3.55,0.58 10.76,3.13 21.65,5.89 32.26,9.47 19.41,6.55 36.6,3.77 49.03,-13.09 5.96,-8.09 12.72,-9.25 21.6,-9.57 17.82,-0.64 34.73,3.8 51.94,7.05 14.53,2.74 29.7,4.71 42.94,-4.27 26.77,-18.16 36.6,-53.83 -0.42,-77.24 -13.53,-8.56 -27.17,-17.25 -42.88,-22.23 -30.19,-9.58 -56.15,-29.56 -87.3,-36.77 -44.48,-10.29 -86.54,-28.72 -131.23,-38.31 -16.65,-3.57 -32.01,-1.86 -46.55,7.25 -4.58,2.88 -7.23,6.51 -7.36,11.93" /><path
         id="path140"
         style="fill:#635d42;fill-opacity:1;fill-rule:nonzero;stroke:none"
         d="m 3409.71,5607.13 c 5.64,0 11.16,-0.05 16.52,-2.56 33.76,-15.8 68.54,-29.16 103.87,-40.87 21.36,-7.08 38.51,-20.39 55.06,-34.27 21.51,-18.03 41.74,-37.65 61.86,-57.27 16.12,-15.72 33.65,-29.68 51.11,-43.78 12.76,-10.31 21.68,-23.64 18.52,-40.08 -3.24,-16.88 -15.21,-28.05 -32.29,-32.78 -13.6,-3.77 -25.39,1.9 -35.12,9.59 -39.38,31.11 -85.42,51.34 -127.01,78.85 -24.53,16.23 -54.41,22.56 -79.71,38.09 -13.76,8.44 -29.41,14.2 -42.11,23.91 -18.17,13.88 -31.08,32.66 -33.96,56.03 -3.27,26.48 14.92,44.74 43.26,45.14" /><path
         id="path142"
         style="fill:#635d42;fill-opacity:1;fill-rule:nonzero;stroke:none"
         d="m 3786.2,5582.21 c 42.36,-49.95 87.5,-97.29 134.45,-142.93 9.58,-9.32 19.46,-18.33 29.2,-27.48 1.67,-4.15 5.71,-5.77 8.87,-8.32 -0.72,-6.14 -4.68,-7.75 -10.27,-8.06 -46.44,-2.56 -90.11,6.6 -131.55,28.27 -31.7,16.58 -64.26,31.53 -96.75,46.52 -12.35,5.69 -22.65,14.12 -33.07,22.2 -14.43,11.19 -20.78,40.22 -14.45,58.33 5.81,16.63 26.05,30.44 46.38,30.94 20.99,0.52 42.14,-1.39 62.65,5.02 0,0 -0.2,-0.18 -0.2,-0.18 0.85,-2.24 2.61,-3.47 4.74,-4.31" /><path
         id="path144"
         style="fill:#635d42;fill-opacity:1;fill-rule:nonzero;stroke:none"
         d="m 2674.49,5826.9 c -17.34,4.64 -35.85,5.29 -48.11,20.01 -14.17,17.03 -17.74,47.09 10.67,65.62 13.41,8.74 26.48,18.63 42.63,22.7 10.23,2.58 19.23,7.51 27.97,14.07 14.82,11.13 27.04,12.34 43.99,-0.87 13.65,-10.63 23.35,-26.91 11.71,-46.28 -11.49,-19.11 -25.32,-37.01 -39.63,-54.19 -12.51,-15.01 -32,-16.24 -49.23,-21.06" /><path
         id="path146"
         style="fill:#bb8f6d;fill-opacity:1;fill-rule:nonzero;stroke:none"
         d="m 1710.52,5438.35 c 1.16,1.92 2.77,3.05 5.11,2.92 -1.17,-1.9 -2.78,-3.04 -5.11,-2.92" /><path
         id="path148"
         style="fill:#a48e41;fill-opacity:1;fill-rule:nonzero;stroke:none"
         d="m 2379.49,3168.25 c -26.87,-13.68 -56.06,-14.66 -85.35,-17.61 -64.64,-6.52 -129.37,-4.46 -193.91,-2.73 -42.98,1.15 -87.3,-1.75 -128.68,15.64 -1.8,0.76 -4.18,0.13 -6.29,0.15 -17.19,32.02 -1.02,60.29 10.11,89.08 2.74,7.08 8.64,11.5 15.82,12.09 7.12,0.59 11.27,4.58 15.58,9.1 1.19,-7.11 6.1,-8.51 12.35,-8.4 32.25,0.59 64.16,-6.61 96.51,-4.27 8.36,0.6 16.73,-0.22 25,2.6 4.48,1.53 9.82,1.83 14.55,1.14 55.93,-8.2 112.17,-1.51 168.21,-3.85 6.58,-0.28 12.97,-0.12 14.37,8.46 51.57,-16.59 68.39,-57.46 41.73,-101.4" /><path
         id="path150"
         style="fill:#a48e40;fill-opacity:1;fill-rule:nonzero;stroke:none"
         d="m 3713.62,3185.57 c -25.75,-16.99 -54.77,-26.18 -84.74,-29.43 -43.88,-4.76 -88.25,-9.71 -132.16,-8.04 -42.14,1.59 -84.42,0.59 -126.36,3.95 -25.48,2.05 -52.23,0.52 -76.31,12.62 -4.35,25.48 0.64,49.96 8.86,73.83 7.42,21.56 27.06,28.23 45.93,35.46 1.27,-8.7 7.71,-8.56 14.3,-8.58 22.52,-0.07 44.53,4.81 66.85,6.64 4.18,0.35 8.32,1.74 12.47,1.71 56.25,-0.48 112.28,7.04 168.59,4.62 13.28,-0.57 26.58,-0.78 39.8,3.05 6.45,1.86 14.01,0.79 20.93,-0.06 15.86,-1.95 16.12,-2.23 16.24,14.03 0.28,39.45 0.26,78.9 0.37,118.35 5.6,-5.87 3.53,-13.24 3.58,-20.02 0.24,-32.9 0.22,-65.8 0.18,-98.71 -0.01,-7.78 -0.29,-15.41 6.53,-21.14 12.5,-10.48 13.59,-25.41 14.36,-39.99 0.85,-16.06 0.44,-32.19 0.58,-48.29" /><path
         id="path152"
         style="fill:#c5af59;fill-opacity:1;fill-rule:nonzero;stroke:none"
         d="m 3853.35,2765.92 c -0.21,2.18 0.79,3.52 2.87,4.09 0.29,-2.25 -0.89,-3.46 -2.87,-4.09" /><path
         id="path154"
         style="fill:#79704f;fill-opacity:1;fill-rule:nonzero;stroke:none"
         d="m 1952.73,1503.98 c 43.79,0 75.56,-22.65 91.27,-66.44 12.32,-34.36 22.98,-69.36 33.29,-104.4 8.03,-27.27 -5.91,-58.34 -30.9,-72 -27.64,-15.1 -58.91,-17.15 -88.72,-24.53 -29.5,-7.31 -56.87,-1.73 -83.13,12 -4.3,2.25 -9.39,4.72 -11.81,8.55 -16,25.32 -38.15,46.64 -47.9,76.12 -8.6,25.98 -19.97,51.04 -25.82,77.93 -5.62,25.83 -2.15,48.9 20.21,66.34 6.85,5.34 13.93,9.69 22.88,9.45 17.08,-0.47 33.2,4.61 49.66,8 24,4.94 48.05,10.01 70.97,8.98" /><path
         id="path156"
         style="fill:#79704f;fill-opacity:1;fill-rule:nonzero;stroke:none"
         d="m 2006.99,1626.25 c 2.21,-22.11 -8.33,-35.48 -26.39,-44.63 -20.96,-10.61 -42.73,-16.96 -66.42,-18.82 -20.15,-1.58 -40.04,-6.58 -59.99,-10.38 -15.83,-3.02 -31.44,-7.58 -47.38,-9.54 -22.06,-2.71 -43.03,0.5 -62.53,13.3 -10.45,6.86 -17.58,16.03 -18.91,26.66 -2.12,17.05 -6.44,34.26 -2.92,51.86 1.94,9.67 1.49,19.5 -0.68,29.35 -8.03,36.29 8.34,64.17 43.85,74.71 9.39,2.79 19.25,6.6 28.69,6.11 34.39,-1.8 66.61,7.56 99.58,14.93 21.89,4.89 45.33,9.51 67.37,-3.91 11.42,-6.95 19.98,-15.3 24.33,-27.93 6.43,-18.64 11.29,-37.62 13.23,-57.31 1.51,-15.33 11.57,-29.1 8.17,-44.4" /><path
         id="path158"
         style="fill:#79704f;fill-opacity:1;fill-rule:nonzero;stroke:none"
         d="m 3616.82,1516.68 c 19.24,-3.82 42.83,-7.69 64.62,-17.94 29.24,-13.75 57.42,-29.58 88.18,-40.34 24.31,-8.51 35.72,-25.78 31.58,-43.91 -2.8,-12.29 -7.05,-24.65 -15.44,-34.39 -8.48,-9.86 -13.63,-21.02 -18.12,-33 -11.86,-31.56 -24.65,-62.79 -39.59,-93.04 -15.58,-31.53 -42.37,-45.16 -76.47,-46.43 -11.64,-0.44 -22.17,3.78 -32.2,8.86 -26.37,13.37 -52.81,26.26 -81.34,34.79 -26.36,7.88 -42.63,25.64 -47.21,53.64 -1.06,6.49 -0.96,12.1 0.65,18.46 4.09,16.12 14.23,28.95 22,43.04 22.38,40.58 44.7,81.13 59.81,125.21 6.07,17.69 18.93,25.34 43.53,25.05" /><path
         id="path160"
         style="fill:#79704f;fill-opacity:1;fill-rule:nonzero;stroke:none"
         d="m 3903.92,1640.77 c 1.03,-9.66 -0.81,-20.67 -4.94,-31.34 -7.69,-19.8 -7.57,-41.31 -13.54,-61.5 -7.99,-27.04 -29.11,-46.23 -52.44,-43.12 -13.72,1.82 -27.87,1.97 -41.43,6.26 -29.44,9.31 -59.11,17.9 -88.7,26.75 -14.79,4.43 -30.04,7.71 -44.29,13.47 -18.81,7.62 -38.34,15.45 -46.17,37.01 -3.08,8.5 -5.13,16.69 -1.72,26.47 3.43,9.86 4.46,20.97 10.15,29.76 15.4,23.78 25.47,50.1 37.33,75.55 8.2,17.59 22.1,23.96 40.22,25.37 21.59,1.68 42.12,-2.22 61.6,-11.01 21.36,-9.63 43.93,-14.65 66.71,-18.62 26.63,-4.65 48.47,-17.71 67.8,-35.65 8.05,-7.48 9.48,-15.24 9.42,-39.4" /><path
         id="path162"
         style="fill:#79704f;fill-opacity:1;fill-rule:nonzero;stroke:none"
         d="m 2379.49,3168.25 c 0.49,15.21 5.6,29.78 4.8,45.33 -1.38,26.79 -8.11,37.18 -34.37,43.35 -8.19,1.93 -7.38,9.31 -12.16,12.73 -0.3,4.27 -0.61,8.54 -0.92,12.82 -1.92,2.49 -1.13,5.97 -3.09,8.45 -4.1,34.08 -9.9,68.08 -11.77,102.29 -1.62,29.44 -6.31,58.67 -6.01,88.21 33.11,-20.23 69.29,-34.03 104.16,-50.61 30.29,-14.4 60.53,-29.52 88.82,-47.96 33.98,-22.15 71.76,-35.51 110.82,-44.64 15.8,-3.69 31,-8.89 46.43,-13.46 36.42,-10.77 73.75,-16.44 111.29,-20.87 8.51,-1 12.75,-3.73 13.62,-12.3 0.55,-5.53 3.04,-10.91 3.34,-16.42 2.51,-47.01 6.25,-94 4.31,-141.15 -51.39,0.01 -102.51,5.2 -153.75,7.67 -31.61,1.53 -63.23,3.39 -94.78,5.47 -46.91,3.1 -94.17,2.39 -140.59,11.96 -10.44,2.15 -20.5,4.77 -30.15,9.13" /><path
         id="path164"
         style="fill:#79704f;fill-opacity:1;fill-rule:nonzero;stroke:none"
         d="m 3348.84,3273.96 c -4.27,-5.76 -6.1,-12.71 -16.05,-13.78 -13.58,-1.46 -21.64,-11.81 -25.41,-24.67 -4.66,-15.94 -8.9,-32.02 -8.98,-48.81 -0.04,-7.65 0.49,-15.37 -4.35,-22.04 -21.05,-8.77 -43.61,-10.01 -65.71,-13.95 -31.85,-5.68 -63.99,-8.48 -96.07,-11.01 -26.58,-2.09 -53.11,-6.61 -79.92,-5.28 -43.7,2.16 -87.06,-6.77 -130.77,-3.77 6.14,9.94 7.54,21.98 7.55,32.4 0.02,25.41 6.04,50.31 4.97,75.56 -0.83,19.85 3.22,39.11 4.48,58.67 0.44,6.8 3.39,10 10.36,10.48 69.12,4.8 134.69,25.3 200.17,45.94 46.3,14.59 90.24,35.33 134.26,55.42 24.08,10.99 47.28,24.74 69.11,40.26 5.69,4.05 11.96,7.31 17.96,10.92 -0.96,-40.39 -4.78,-80.57 -10.2,-120.57 -2.98,-22.03 -7.55,-43.85 -11.4,-65.77" /><path
         id="path166"
         style="fill:#79704f;fill-opacity:1;fill-rule:nonzero;stroke:none"
         d="m 2438.96,3498.38 c 24.77,0.51 48.78,-5.32 72.89,-9.54 51.69,-9.05 102.11,-9.81 154.22,2.98 52.33,12.85 105.5,23.15 157.71,36.71 40.16,10.42 81,16.4 121.5,24.52 1.37,0.28 2.81,0.35 4.21,0.3 38.73,-1.12 77.12,7.53 115.9,4.23 23.7,-2.02 47.32,-5.04 71.02,-7.21 17.45,-1.6 35.08,-1.25 52.28,-5.42 10.46,-2.53 11.58,-4.72 7.43,-14.39 -3.3,-7.67 -9.15,-12.07 -16.48,-15.43 -17.33,-7.96 -35.41,-13.57 -54.18,-16.43 -59.08,-9.01 -118.44,-14.8 -178.31,-12.95 -24.06,0.74 -47.46,-3.47 -71.06,-7.11 -13.81,-2.13 -28.15,-1.77 -42.19,-1.15 -15.76,0.71 -30.7,-3.22 -45.81,-6.15 -8.19,-1.58 -16.18,-4.59 -21.84,-11.81 -6.77,-8.62 -3.61,-18.58 7.11,-20.16 6.3,-0.92 12.72,-0.42 18.61,2.55 14.26,7.2 30.86,8.64 45.2,7.88 20.96,-1.11 42.19,-0.22 63.02,-3.12 27.1,-3.77 54.11,-8.35 81.57,-7.49 18.84,0.59 37.58,-1.18 56.48,-0.64 29.05,0.85 57.07,4.83 85.02,12.81 39.82,11.36 81.41,14.09 121.84,22.72 11.48,2.45 25.01,-3.52 26.03,-11.71 1.3,-10.45 -5.41,-16.85 -14.46,-20.79 -43.14,-18.78 -85.51,-39.39 -132.3,-48.57 -50.21,-9.85 -99.97,-22.13 -150.32,-31.15 -27.96,-5.01 -56.03,-10.62 -85.45,-4.18 -19.54,4.28 -40.48,0.95 -60.77,4.76 -12.35,2.31 -25.14,3.41 -37.12,6.97 -45.14,13.43 -90.1,27.54 -134.96,41.92 -53.64,17.2 -105.53,38.96 -157.14,61.42 -14.18,6.16 -28.76,11.4 -43.29,16.71 -5.96,2.18 -12.23,3.5 -16.3,8.98 l -0.06,-0.06" /><path
         id="path168"
         style="fill:#79704f;fill-opacity:1;fill-rule:nonzero;stroke:none"
         d="m 2439.02,3498.44 c -0.59,0.31 -1.72,0.74 -1.68,0.91 0.31,1.39 0.95,1.05 1.62,-0.97 l 0.06,0.06" /><path
         id="path170"
         style="fill:#a48e41;fill-opacity:1;fill-rule:nonzero;stroke:none"
         d="m 2333.75,3290.93 c 2.94,-2.12 3.57,-5.09 3.1,-8.45 -2.99,2.1 -3.62,5.06 -3.1,8.45" /><path
         id="path172"
         style="fill:#fefefe;fill-opacity:1;fill-rule:nonzero;stroke:none"
         d="m 3264.48,4552.29 c 0.24,3.14 0.36,7.38 0.93,11.56 5,36.74 32.94,49.65 63.76,29.52 34.54,-22.58 48.93,-69.33 31.18,-101.31 -11.03,-19.87 -28.75,-28.41 -49.17,-24.11 -14.57,3.08 -22.57,14.31 -29.8,25.26 -11.45,17.33 -16.81,37.04 -16.9,59.08" /><path
         id="path174"
         style="fill:#fefefe;fill-opacity:1;fill-rule:nonzero;stroke:none"
         d="m 3192.63,4431 c 1.05,29.01 23.74,42.64 49.88,29.37 21.37,-10.85 31.39,-30.66 33.95,-52.88 2.92,-25.34 -23.7,-42.97 -47.44,-33.32 -22.39,9.1 -37.27,32.35 -36.39,56.83" /><path
         id="path176"
         style="fill:#fefefe;fill-opacity:1;fill-rule:nonzero;stroke:none"
         d="m 2380.07,4570.83 c -1.32,-24.77 -7.16,-47.45 -23.37,-66.75 -22.98,-27.35 -54.94,-24.66 -72.44,6.63 -8.97,16.04 -11.83,32.85 -5.4,50.8 7.79,21.77 18.81,40.94 39.52,52.97 28.01,16.26 53.66,4.69 59.89,-27.14 1.08,-5.51 1.24,-11.19 1.8,-16.51" /><path
         id="path178"
         style="fill:#fefefe;fill-opacity:1;fill-rule:nonzero;stroke:none"
         d="m 2451.75,4447.03 c 0.05,-22.09 -15.15,-45.32 -35.13,-53.68 -23.48,-9.82 -50.79,7.3 -48.77,32.27 1.76,21.74 11.64,40.88 31.36,52.35 28.42,16.53 52.47,2.04 52.54,-30.94" /><path
         id="path180"
         style="fill:#a48e41;fill-opacity:1;fill-rule:nonzero;stroke:none"
         d="m 2557.41,2441.43 c -2.57,36.3 3.57,75.48 5.48,114.75 2.57,52.58 5.8,105.14 8.26,157.75 1.61,34.42 1.55,68.89 3.76,103.22 2.84,44.03 8.03,87.92 12.62,131.83 1.99,19.14 14.13,31.87 29.67,41.3 14.06,8.53 29.83,11.98 46.26,12.66 58.48,2.44 116.75,-3.58 175.08,-5.48 32.94,-1.07 66.09,-0.69 98.96,-3.38 32.75,-2.67 65.63,-4.07 98.07,-11.08 37.72,-8.15 56.36,-33.88 59.37,-74.16 1.94,-26.06 -2.93,-51.73 -6.74,-77.44 -3.69,-24.94 -7.03,-49.96 -9.73,-75.03 -4.52,-41.79 -9.62,-83.58 -12.11,-125.51 -1.54,-25.92 -4.4,-51.74 -5.69,-77.72 -2.6,-52.47 -3.39,-105.26 -12.51,-157.19 -6.6,-37.59 -28.4,-63.74 -64.98,-75.72 -28.12,-9.21 -56.73,-17.01 -86.73,-7.86 -2.6,0.8 -5.62,0.45 -8.43,0.29 -38.07,-2.23 -75.89,3.11 -113.72,5.21 -56.56,3.13 -113.15,9.15 -168.21,24.24 -1.35,0.37 -2.83,0.25 -4.18,0.62 -32.3,8.87 -43.98,23.87 -44.47,57.42 -0.19,12.7 -0.03,25.39 -0.03,41.28" /><path
         id="path182"
         style="fill:#a48e40;fill-opacity:1;fill-rule:nonzero;stroke:none"
         d="m 2472.9,2859.77 c 0,-14.83 -0.11,-29.65 0.02,-44.47 0.34,-37.31 -3,-74.35 -7.89,-111.3 -1.19,-9.03 -0.56,-18.32 -0.6,-27.49 -0.08,-25.36 -4.02,-50.29 -7.38,-75.34 -2.71,-20.14 -2.04,-40.56 -4.8,-60.9 -4.72,-34.79 -9.24,-69.81 -18.64,-103.4 -10.76,-38.46 -37.01,-65.63 -84.77,-65.17 -38.05,0.37 -75.61,5.13 -113.39,7.79 -43.61,3.08 -86.49,9.59 -129.02,18.31 -38.53,7.9 -76.84,18.03 -110.7,39.31 -30.3,19.06 -50.29,44.48 -47.83,83.02 3.18,49.7 5.44,99.42 16.01,148.36 16.13,74.73 31.3,149.66 47.69,224.33 5.41,24.66 12.28,49.04 18.48,73.52 7.16,28.29 21.12,53.59 46.76,70.44 7.28,4.78 15.47,8.16 23.67,8.12 23.85,-0.12 47.67,2.17 71.62,-2.49 18.47,-3.59 37.75,-3.72 56.57,-4.89 51.3,-3.16 102.08,-9.11 151.74,-22.19 22.28,-5.86 44.95,-11.54 65.07,-23.86 18.46,-11.31 27.43,-27.57 27.34,-49.14 -0.11,-27.52 -0.03,-55.04 -0.03,-82.56 0.03,0 0.05,0 0.08,0" /><path
         id="path184"
         style="fill:#a48e41;fill-opacity:1;fill-rule:nonzero;stroke:none"
         d="m 3179.99,2524.15 c 0,26.8 -1.83,53.77 0.42,80.38 3.51,41.48 0.88,83.19 4.67,124.36 4.27,46.26 6.61,92.41 8.26,138.78 1.09,30.64 5.98,61.56 13.06,91.43 5.95,25.15 20.05,45.61 48.02,54.16 33.12,10.13 67.01,14.7 101.03,19.52 40.92,5.79 82.13,8.96 123.05,14.97 32.78,4.82 66.61,5.31 99.06,0.16 31.32,-4.97 54.56,-24.75 64.42,-57.2 10.25,-33.72 14.91,-68.47 20.58,-103.06 5.56,-33.91 5.96,-68.39 11.84,-102.3 3.1,-17.91 3.02,-36.47 3.94,-54.53 1.56,-30.87 3.8,-61.87 6.43,-92.52 3.06,-35.74 -0.04,-71.74 6.01,-107.19 0.74,-4.38 -0.46,-8.25 -1.07,-12.4 -2.44,-16.77 -1.77,-33.41 0.4,-50.36 4.11,-32.07 -9.29,-65.77 -39.34,-79.13 -21.55,-9.57 -44.17,-14.12 -67.12,-16.92 -46.01,-5.61 -92.23,-8.17 -138.64,-9.46 -37.7,-1.04 -75.18,-8.43 -112.9,-10.79 -29.35,-1.83 -58.82,-3.3 -88.34,2.65 -41.59,8.38 -62.38,41.31 -63.69,80.56 -0.49,14.8 -0.16,29.63 -0.18,44.44 -0.02,14.82 -0.01,29.63 -0.01,44.45 0.03,0 0.07,0 0.1,0" /><path
         id="path186"
         style="fill:#29292b;fill-opacity:1;fill-rule:nonzero;stroke:none"
         d="m 2281.3,2279.75 c -6.18,0.96 -12.34,2.55 -18.54,2.79 -45.67,1.77 -71.49,29.86 -90.24,67.51 5.27,1.76 10.74,3.12 15.79,5.4 10.16,4.57 20.02,4.88 30.35,0.41 12.16,-5.27 24.52,-10.12 36.94,-14.75 9.74,-3.64 13.62,-11.55 15.93,-20.61 3.44,-13.53 6.53,-27.16 9.77,-40.75" /><path
         id="path188"
         style="fill:#79704f;fill-opacity:1;fill-rule:nonzero;stroke:none"
         d="m 3786.2,5582.21 c -2.54,0.38 -4.15,1.78 -4.74,4.3 2.44,-0.48 3.84,-2.11 4.74,-4.3" /><path
         id="path190"
         style="fill:#c5af59;fill-opacity:1;fill-rule:nonzero;stroke:none"
         d="m 3031.86,2865.59 c 2.16,-14.39 -3.26,-30.33 -8.41,-46.55 -13.6,-42.91 -50.83,-59.32 -89.63,-51.67 -45.43,8.96 -91.14,15.85 -136.82,22.75 -19.92,3.01 -40.27,5.25 -60.74,6.02 -25.04,0.93 -50.18,4.19 -74.32,12.55 -26.09,9.03 -33.79,30.27 -36.38,54.23 -2.22,20.58 4.32,40.45 9.49,60.06 2.5,9.47 9.82,16.91 19.72,20.79 11.86,4.64 23.97,7.7 36.78,8.33 22.43,1.11 44.98,-2.16 67.35,3.47 8.69,2.18 17.56,-3.84 26.99,-3.44 16.19,0.69 32.44,0.03 48.66,0.11 30.97,0.14 61.49,-4.82 92.2,-7.64 14.7,-1.35 29.59,-0.65 44.4,-0.74 37.77,-0.21 60.01,-22.32 60.69,-60.48 0.09,-4.94 0.02,-9.88 0.02,-17.79" /><path
         id="path192"
         style="fill:#c5af59;fill-opacity:1;fill-rule:nonzero;stroke:none"
         d="m 2912.5,2376.36 c -15.88,-1.11 -30.48,2.76 -44.75,5.02 -21.55,3.41 -43.51,0.85 -64.75,6.57 -6.62,1.78 -14.02,1.25 -21.02,0.93 -32.5,-1.49 -64.21,5.27 -96.11,9.44 -12.33,1.62 -24.46,6.34 -33.58,16.32 -5.29,5.78 -6.38,10.18 0.58,15.54 48.36,37.25 96.24,75.16 148.96,106.28 7.69,4.54 14.35,7.12 21.92,-2.11 26.29,-32.07 54.08,-62.88 84.31,-91.3 14.94,-14.04 26.41,-31.04 40.89,-45.37 6.8,-6.73 3.76,-11.48 -2.72,-14.82 -10.81,-5.58 -22.52,-7.79 -33.73,-6.5" /><path
         id="path194"
         style="fill:#c5af59;fill-opacity:1;fill-rule:nonzero;stroke:none"
         d="m 2671.52,2750.39 c 25.54,8.38 47.51,9.03 69.83,4.33 17.19,-3.63 34.88,-3 52.26,-4.71 49.8,-4.9 98.06,-15.94 146.09,-28.98 8.82,-2.39 17.72,-4.13 25.77,-8.88 13,-7.68 13.58,-12.13 0.94,-21.01 -33.32,-23.39 -66.87,-46.43 -100.38,-69.56 -10.98,-7.58 -22.25,-14.76 -33.1,-22.52 -7.53,-5.39 -13.03,-4.98 -20,1.93 -18.49,18.35 -33.48,39.76 -52.58,57.6 -30.31,28.32 -54.78,62.24 -88.83,91.8" /><path
         id="path196"
         style="fill:#c5af59;fill-opacity:1;fill-rule:nonzero;stroke:none"
         d="m 2640.46,2731.23 c 53.01,-50.79 101.1,-103.7 149.75,-158.1 -20.94,-13.65 -40.41,-25.97 -59.5,-38.85 -29.68,-20.02 -58.47,-41.27 -86.03,-64.18 -3.19,-2.66 -6.92,-4.83 -10.7,-6.6 -5.22,-2.45 -8.3,0.18 -8.35,5.41 -0.14,12.67 -1.95,25.82 0.75,37.92 9.79,43.82 7.38,88.11 7.02,132.31 -0.12,14.59 -2.76,29.28 -5.33,43.73 -4.26,23.94 -4.29,25.35 12.39,48.36" /><path
         id="path198"
         style="fill:#c5af59;fill-opacity:1;fill-rule:nonzero;stroke:none"
         d="m 2999.69,2669.33 c 7.04,-30.86 7.37,-58.11 3.91,-86.46 -2.69,-22.1 -4.97,-44.56 -5.98,-67.01 -1.33,-29.42 -6.71,-58.42 -12.92,-87.17 -1.97,-9.14 -6.78,-9.96 -12.82,-2.71 -32.91,39.46 -68.32,76.56 -104.68,112.8 -22.94,22.86 -22.81,23.46 4.05,40.93 42.89,27.89 84.05,58.28 128.44,89.62" /><path
         id="path200"
         style="fill:#c5af59;fill-opacity:1;fill-rule:nonzero;stroke:none"
         d="m 2392.55,2884.23 c 0,-10.59 0.27,-21.18 -0.06,-31.75 -0.64,-19.66 -5.38,-25.37 -24.42,-32 -15.85,-5.52 -31.65,-4.42 -47.86,-1.79 -28.35,4.6 -56.76,8.5 -85.42,11.36 -38.31,3.84 -77.22,2.58 -114.97,11.65 -30.13,7.24 -44.43,26.54 -45.35,57.31 -0.6,19.8 4.18,37.67 13.88,54.48 12.68,21.96 31.86,32.66 57.27,32.75 32.4,0.11 64.31,-4.8 96.4,-8.29 34.93,-3.8 69.49,-9.37 103.61,-17.41 33.24,-7.83 49.25,-13.58 46.95,-59.38 -0.28,-5.63 -0.03,-11.29 -0.03,-16.93" /><path
         id="path202"
         style="fill:#c5af59;fill-opacity:1;fill-rule:nonzero;stroke:none"
         d="m 2328.24,2416.87 c -16.05,-5.82 -30.21,0.18 -43,2.9 -63.06,13.36 -127.37,20.43 -189.72,37.15 -22.39,6 -44.57,12.93 -65.81,22.4 -6.33,2.83 -13.08,5.63 -16.28,14.05 11.3,11.51 27.14,16.44 40.9,23.97 38.22,20.93 77.57,39.8 116.55,59.34 15.68,7.86 16.36,8.22 28.23,-5.23 21.35,-24.19 41.74,-49.22 62.83,-73.65 15.14,-17.55 30.54,-34.89 46.28,-51.9 7.63,-8.26 14.96,-16.5 20.02,-29.03" /><path
         id="path204"
         style="fill:#c5af59;fill-opacity:1;fill-rule:nonzero;stroke:none"
         d="m 2376.43,2721.91 c -27.31,-13.65 -51.84,-25.92 -76.38,-38.18 -30.24,-15.12 -60.85,-29.58 -89.7,-47.26 -10.55,-6.47 -17.12,-4.23 -25.43,4.16 -37.65,38.01 -76.16,75.18 -108.82,117.79 -1.29,1.68 -2.81,3.18 -3.96,4.94 -7.12,10.9 -5.27,14.23 7.59,15.28 22.69,1.84 44.8,-3.15 67.15,-5.23 33.46,-3.12 66.59,-8.93 100.07,-12.23 32.74,-3.24 65.33,-8.9 97,-18.24 11.33,-3.34 21.5,-9.79 32.48,-21.03" /><path
         id="path206"
         style="fill:#c5af59;fill-opacity:1;fill-rule:nonzero;stroke:none"
         d="m 2363.19,2439.11 c -47.49,54.48 -93.06,106.77 -138.26,158.63 3.23,8.65 10.24,10.93 16.37,14.2 35.38,18.87 70.14,38.92 107.45,54.02 11.67,4.72 22.78,10.93 33.38,18.07 8.68,5.84 12.84,3.41 14.26,-6.51 0.4,-2.77 0.17,-5.63 0.25,-8.45 0.52,-20.35 -0.39,-40.61 3.61,-60.95 4.39,-22.35 -1.63,-44.9 -4.32,-67.07 -3.8,-31.32 -10.28,-62.44 -25.74,-90.7 -1.64,-3 -3.61,-5.83 -7,-11.24" /><path
         id="path208"
         style="fill:#c5af59;fill-opacity:1;fill-rule:nonzero;stroke:none"
         d="m 2157.31,2613.63 c -51.2,-30.36 -105.89,-55.23 -161.15,-86.16 -3.25,19.35 -4.62,36.65 -0.93,52.18 12.13,51.11 14,104.03 28.54,154.61 0.97,3.35 1.28,6.94 2.61,10.13 3.64,8.7 7.88,9.62 13.32,2.17 32.85,-44.99 72.16,-84.07 111.65,-123 2.47,-2.43 5.27,-4.7 5.96,-9.93" /><path
         id="path210"
         style="fill:#c5af59;fill-opacity:1;fill-rule:nonzero;stroke:none"
         d="m 3247.75,2890.12 c 0.63,20.56 -2.5,42.23 10.13,62.54 8.68,13.95 20.34,22.15 35.14,24.29 51.97,7.49 103.74,16.2 155.56,24.46 32.56,5.2 66.19,9.99 100.41,2.15 48.69,-11.16 79.55,-65.25 68.74,-111.97 -2.53,-10.91 -3.45,-22.16 -8.6,-32.42 -12.69,-25.26 -35.62,-31.77 -61.07,-33.97 -58.61,-5.05 -117.15,-11.07 -174.97,-21.96 -20.76,-3.91 -41.1,-7.69 -62.38,-8.24 -40.24,-1.05 -61.58,21.55 -62.91,62.37 -0.34,10.57 -0.05,21.15 -0.05,32.75" /><path
         id="path212"
         style="fill:#c5af59;fill-opacity:1;fill-rule:nonzero;stroke:none"
         d="m 3602.36,2437.96 c -20.65,-7.83 -40.6,-12.67 -61.65,-15.74 -34.43,-5.03 -68.94,-1.06 -103.1,-4.28 -27.38,-2.58 -54.67,-2.57 -82.01,-3.77 -18.44,-0.8 -35.48,6.38 -53.37,4.53 -1.25,8.68 3.12,12.54 6.76,16.75 20.72,23.92 42.1,47.23 64.8,69.32 18.06,17.56 33.75,37.43 53.24,53.69 6.7,5.6 10.84,6.44 17.71,1.06 44.74,-35.06 95.12,-62.46 137.41,-100.83 6.56,-5.95 16.86,-8.04 20.21,-20.73" /><path
         id="path214"
         style="fill:#c5af59;fill-opacity:1;fill-rule:nonzero;stroke:none"
         d="m 3403.43,2590.25 c -3.19,-3.66 -5.22,-6.51 -7.75,-8.83 -34.25,-31.49 -63.17,-68.08 -96.2,-100.76 -11.94,-11.82 -22.76,-24.89 -33.09,-38.18 -5.92,-7.62 -10.43,-6.06 -14.78,0.08 -6.93,9.8 -12.31,20.12 -12.65,32.89 -0.87,32.23 -7.64,64.54 -6.41,96.31 1.59,40.94 -0.24,83.01 14.67,122.64 4.79,12.73 7.09,13.74 17.31,5.71 34.2,-26.87 68.18,-54.01 102.26,-81.02 11.51,-9.12 23.07,-18.17 36.64,-28.84" /><path
         id="path216"
         style="fill:#c5af59;fill-opacity:1;fill-rule:nonzero;stroke:none"
         d="m 3641.11,2616.47 c -7.41,-36.05 -2.83,-79.06 -4.1,-121.88 -0.12,-4.13 -0.86,-8.45 -2.34,-12.29 -3.52,-9.13 -8.68,-10.93 -15.97,-4.43 -43.66,38.94 -93.32,69.63 -140.86,103.24 -2.28,1.62 -4.25,3.69 -6.47,5.41 -6.43,5.01 -6.74,9.77 -0.32,15.33 14.85,12.88 29.13,26.43 44.2,39.04 30.1,25.19 60.66,49.84 90.87,74.91 10.92,9.07 13.7,8.67 19.9,-4.08 5.32,-10.93 7.16,-22.81 8.71,-34.56 2.37,-18.02 7.25,-35.76 6.38,-60.69" /><path
         id="path218"
         style="fill:#c5af59;fill-opacity:1;fill-rule:nonzero;stroke:none"
         d="m 3283.02,2733.75 c 14.82,7.24 29.48,8.83 43.7,10.43 13.18,1.49 26.63,3.76 39.58,3.81 26.09,0.11 51.57,5.6 77.63,5.61 18.04,0.01 36.12,3.56 54.09,6.2 21.02,3.09 42.15,3.11 63.01,0.55 8.14,-1.01 20.97,-1.56 22.82,-11.59 1.55,-8.43 -9.41,-12.39 -15.79,-17.7 -30.72,-25.53 -62.53,-49.78 -91.6,-77.25 -11.23,-10.6 -24.67,-18.62 -34.85,-30.45 -6.42,-7.46 -12.66,-5.84 -19.99,0.03 -32.27,25.82 -65.42,50.57 -97.25,76.91 -13.26,10.97 -28.84,19.33 -41.35,33.45" /></g></g></svg>