<svg width="24" height="25" viewBox="0 0 24 25" fill="none" xmlns="http://www.w3.org/2000/svg">
<path d="M19 2.5C20.1046 2.5 21 3.39543 21 4.5V16.5C21 17.6046 20.1046 18.5 19 18.5H17V20.5C17 21.6046 16.1046 22.5 15 22.5H5C3.89543 22.5 3 21.6046 3 20.5V8.5C3 7.39543 3.89543 6.5 5 6.5H7V4.5C7 3.39543 7.89543 2.5 9 2.5H19ZM15 8.5H5V20.5H15V8.5ZM10 15.5C10.5523 15.5 11 15.9477 11 16.5C11 17.0523 10.5523 17.5 10 17.5H8C7.44772 17.5 7 17.0523 7 16.5C7 15.9477 7.44772 15.5 8 15.5H10ZM19 4.5H9V6.5H15C16.1046 6.5 17 7.39543 17 8.5V16.5H19V4.5ZM12 11.5C12.5523 11.5 13 11.9477 13 12.5C13 13.0128 12.614 13.4355 12.1166 13.4933L12 13.5H8C7.44772 13.5 7 13.0523 7 12.5C7 11.9872 7.38604 11.5645 7.88338 11.5067L8 11.5H12Z" fill="#A6A6A6"/>
</svg>
