<svg width="24" height="25" viewBox="0 0 24 25" fill="none" xmlns="http://www.w3.org/2000/svg">
<g clip-path="url(#clip0_1401_6702)">
<path fill-rule="evenodd" clip-rule="evenodd" d="M4 12.9551C4 8.5368 7.58172 4.95508 12 4.95508C16.4183 4.95508 20 8.5368 20 12.9551C20 17.0347 16.9463 20.4011 13 20.8932V14.9551H15C15.5523 14.9551 16 14.5074 16 13.9551C16 13.4028 15.5523 12.9551 15 12.9551H13V10.9551C13 10.4028 13.4477 9.95508 14 9.95508H14.5C15.0523 9.95508 15.5 9.50736 15.5 8.95508C15.5 8.4028 15.0523 7.95508 14.5 7.95508H14C12.3431 7.95508 11 9.29823 11 10.9551V12.9551H9C8.44772 12.9551 8 13.4028 8 13.9551C8 14.5074 8.44772 14.9551 9 14.9551H11V20.8932C7.05369 20.4011 4 17.0347 4 12.9551ZM12 22.9551C17.5228 22.9551 22 18.4779 22 12.9551C22 7.43223 17.5228 2.95508 12 2.95508C6.47715 2.95508 2 7.43223 2 12.9551C2 18.4779 6.47715 22.9551 12 22.9551Z" fill="black" fill-opacity="0.8"/>
</g>
<defs>
<clipPath id="clip0_1401_6702">
<rect width="24" height="24" fill="white" transform="translate(0 0.955078)"/>
</clipPath>
</defs>
</svg>
