<svg width="304" height="81" viewBox="0 0 304 81" fill="none" xmlns="http://www.w3.org/2000/svg">
<path d="M16.6184 15.4252C21.8824 16.5482 24.5495 19.0749 24.5495 22.9352C24.5495 25.3216 23.4265 27.357 21.1103 28.9713C18.7942 30.5856 15.7761 31.4278 12.0562 31.4278C8.68724 31.4278 6.02014 30.4452 4.0549 28.5502C2.01948 26.6551 0.966671 24.4091 0.896484 21.8824H2.30022C2.4406 23.7775 3.28284 25.6023 4.96733 27.2868C6.58163 28.9713 8.89781 29.8135 11.8457 29.8135C14.6531 29.8135 16.6184 29.1117 17.8817 27.7781C19.1451 26.3744 19.7768 24.7601 19.7768 22.7948C19.7768 20.97 19.2153 19.4259 18.0221 18.2327C16.8289 17.0395 15.2146 16.478 13.1792 16.478H9.95061V15.0041H13.0388C14.8637 15.0041 16.2674 14.4426 17.2501 13.3898C18.2327 12.2668 18.6538 10.863 18.6538 9.10836C18.6538 7.35369 18.1625 5.80958 17.2501 4.47602C16.3376 3.14247 14.7233 2.51079 12.4773 2.51079C7.42388 2.51079 4.26546 5.45864 3.14247 11.4245H1.80892L2.30022 0.896484H3.4934L4.89714 3.70397C7.2835 1.80892 9.95061 0.896484 12.8985 0.896484C14.8637 0.896484 16.6886 1.24742 18.3731 1.8791C20.0575 2.58097 21.3209 3.4934 22.093 4.75677C22.865 6.02014 23.2861 7.2835 23.2861 8.61706C23.2861 11.7053 21.1103 14.0215 16.6184 15.4252Z" fill="white"/>
<path d="M29.7434 1.3877H53.1157L53.6772 11.3543H52.3436C51.7821 8.19584 50.9399 6.02004 49.8169 4.75667C48.6939 3.49331 47.1498 2.86162 45.3249 2.86162H39.5696C39.0783 2.86162 38.7273 3.002 38.5168 3.21256C38.3062 3.49331 38.1658 3.84424 38.1658 4.33555V14.8636H40.6926C42.0261 14.8636 43.1491 14.3723 43.9914 13.3897C44.8336 12.4071 45.2547 10.9331 45.3249 8.89771H46.7287V22.5842H45.3249C45.2547 20.3382 44.7634 18.7239 43.9212 17.7413C43.0789 16.7587 41.8858 16.2673 40.4118 16.2673H38.0957V27.9886C38.0957 28.4097 38.236 28.7606 38.5168 28.9712C38.7975 29.1818 39.2888 29.3221 39.9205 29.3221H44.4827C49.466 29.3221 52.2734 26.1637 53.0455 19.8469H54.4492L53.9579 30.8662H29.7434V29.3923H31.7788C32.5509 29.3923 33.1124 29.2519 33.4633 28.9712C33.8143 28.6904 33.9546 28.2693 33.9546 27.778V4.40574C33.9546 3.91443 33.8143 3.49331 33.5335 3.28274C33.2528 3.002 32.8316 2.93181 32.2 2.93181H29.8136V1.3877H29.7434Z" fill="white"/>
<path d="M58.52 1.3877H68.3462L77.1898 24.6898L85.3315 1.3877H95.3682V2.86162H92.9117C92.0694 2.86162 91.4377 3.002 91.157 3.21256C90.8762 3.49331 90.7359 3.91443 90.7359 4.54611V27.9184C90.7359 28.4097 90.9464 28.7606 91.2974 28.9712C91.6483 29.2519 92.28 29.3221 93.1222 29.3221H95.3682V30.7961H81.8923V29.3221H84.419C85.1209 29.3221 85.6824 29.1818 86.0333 28.901C86.3843 28.6203 86.5246 28.2693 86.5246 27.8482V2.86162L76.7686 30.8662H75.4351L64.907 3.002V24.409C64.907 25.6724 65.0474 26.655 65.3983 27.2867C65.7493 27.9184 66.1704 28.4097 66.7319 28.7606C67.2934 29.1116 68.276 29.3221 69.6798 29.3923V30.8662H58.52V29.3923C60.3449 29.2519 61.6083 28.901 62.2399 28.1991C62.8716 27.5675 63.2226 26.3743 63.2226 24.6898V4.33555C63.2226 3.84424 63.0822 3.49331 62.7312 3.21256C62.4505 3.002 61.889 2.86162 61.0468 2.86162H58.52V1.3877Z" fill="white"/>
<path d="M99.0178 1.3877H112.704V2.86162H109.406C108.914 2.86162 108.493 3.002 108.283 3.28274C108.002 3.56349 107.932 3.98461 107.932 4.54611V27.8482C107.932 28.4097 108.072 28.8308 108.423 29.0414C108.704 29.2519 109.335 29.3923 110.318 29.3923H114.459C116.635 29.3923 118.46 28.6904 119.863 27.2165C121.267 25.7426 122.25 23.2159 122.952 19.5661H124.355L123.653 30.9364H99.088V29.4625H101.474C102.317 29.4625 102.878 29.3221 103.229 28.9712C103.58 28.6203 103.72 28.129 103.72 27.4973V4.33555C103.72 3.84424 103.58 3.49331 103.299 3.21256C103.018 2.93181 102.597 2.86162 102.036 2.86162H99.0178V1.3877V1.3877Z" fill="white"/>
<path d="M127.795 1.3877H141.411V2.86162H139.095C138.042 2.86162 137.41 3.002 137.13 3.28274C136.849 3.56349 136.708 4.12499 136.708 4.89705V27.2165C136.708 28.1289 136.849 28.6904 137.059 28.901C137.41 29.1818 137.972 29.3923 138.814 29.3923H141.411V30.8662H127.795V29.3923H130.392C131.304 29.3923 131.866 29.2519 132.146 28.9712C132.427 28.6904 132.567 28.1289 132.567 27.2165V4.89705C132.567 4.0548 132.427 3.49331 132.216 3.35293C131.866 3.07218 131.164 2.86162 130.181 2.86162H127.865V1.3877H127.795Z" fill="white"/>
<path d="M158.466 0.755859H159.8L170.398 27.7077C170.819 28.8307 171.662 29.322 172.995 29.322H173.908V30.7959H162.116V29.322H163.029C164.222 29.322 165.134 29.1816 165.626 28.9009C165.976 28.6903 166.117 28.4095 166.117 28.0586C166.117 27.8481 166.047 27.5673 165.976 27.3567L163.52 21.1101H151.869L150.465 24.6896C150.114 25.6723 149.904 26.3741 149.904 26.9356C149.904 27.5673 150.184 28.1288 150.816 28.6201C151.448 29.1114 152.29 29.322 153.483 29.322H154.466V30.7959H143.797V29.322C144.92 29.322 145.833 29.0412 146.535 28.5499C147.166 28.0586 147.798 27.076 148.36 25.7424L158.466 0.755859ZM157.905 6.44101L152.641 19.566H163.029L157.905 6.44101Z" fill="white"/>
<path d="M198.613 3.63376L200.017 0.756097H201.28L201.772 12.6177H200.438C199.596 9.24872 198.473 6.79218 197.139 5.24807C195.525 3.28283 193.49 2.30021 191.244 2.30021C188.787 2.30021 186.752 3.4232 185.208 5.599C183.663 7.7748 182.891 11.5649 182.891 16.8289C182.891 21.2507 183.804 24.6197 185.558 26.9359C187.103 28.9011 189.208 29.8837 191.945 29.8837C194.332 29.8837 196.367 29.1117 197.982 27.5675C199.596 26.0234 200.649 23.7073 201.14 20.619H202.544C202.123 24.1284 200.929 26.7955 198.964 28.6905C196.999 30.5856 194.472 31.498 191.454 31.498C188.998 31.498 186.752 30.8663 184.716 29.6731C182.681 28.4098 180.996 26.6551 179.803 24.3389C178.54 22.0228 177.978 19.496 177.978 16.6885C177.978 13.7407 178.61 11.0034 179.873 8.40648C181.137 5.80956 182.751 3.91451 184.716 2.58096C186.681 1.31759 188.857 0.615723 191.103 0.615723C192.367 0.615723 193.63 0.826284 194.823 1.24741C195.876 1.8089 197.21 2.58096 198.613 3.63376Z" fill="white"/>
<path d="M207.738 1.3877H220.371V2.86162H218.055C217.213 2.86162 216.722 3.002 216.441 3.28274C216.16 3.56349 216.09 4.26536 216.09 5.38836V14.5127H229.566V5.38836C229.566 4.26536 229.425 3.56349 229.215 3.28274C229.004 3.002 228.443 2.86162 227.601 2.86162H225.425V1.3877H237.918V2.86162H235.602C235.04 2.86162 234.619 2.93181 234.409 3.07218C234.198 3.21256 233.988 3.49331 233.847 3.84424C233.777 4.0548 233.707 4.68648 233.707 5.59892V26.7954C233.707 27.8482 233.777 28.4097 233.988 28.6203C234.339 29.0414 234.97 29.3221 235.883 29.3221H237.918V30.7961H225.425V29.3221H227.601C228.443 29.3221 229.004 29.1116 229.355 28.6203C229.496 28.3395 229.636 27.7078 229.636 26.655V16.4077H216.16V26.7954C216.16 27.8482 216.23 28.4799 216.371 28.6904C216.722 29.1116 217.283 29.3221 218.055 29.3221H220.371V30.7961H207.738V29.3221H210.124C210.545 29.3221 210.896 29.2519 211.107 29.0414C211.387 28.901 211.528 28.6203 211.668 28.2693C211.738 28.0588 211.738 27.4973 211.738 26.5848V5.38836C211.738 4.26536 211.598 3.56349 211.387 3.28274C211.107 3.002 210.615 2.86162 209.773 2.86162H207.667V1.3877H207.738Z" fill="white"/>
<path d="M242.761 1.3877H256.237V2.86162H253.359C252.728 2.86162 252.306 3.002 251.955 3.35293C251.605 3.70387 251.464 4.0548 251.464 4.54611V18.2326L262.554 6.37097C263.185 5.6691 263.536 5.03742 263.536 4.40574C263.536 3.91443 263.326 3.56349 262.905 3.28274C262.484 3.002 261.782 2.86162 260.729 2.86162H259.887V1.3877H271.959V2.86162H271.046C270.204 2.86162 269.362 3.07218 268.379 3.56349C267.397 4.0548 266.484 4.68649 265.712 5.52873L258.904 12.6878L268.66 27.0761C269.221 27.9184 269.783 28.4799 270.344 28.8308C270.906 29.1818 271.608 29.3221 272.45 29.3221H273.503V30.7961H260.238V29.3221H261.782C262.905 29.3221 263.607 29.2519 263.957 29.0414C264.308 28.8308 264.519 28.6203 264.519 28.3395C264.519 28.0588 264.449 27.8482 264.308 27.5675L256.167 15.6357L251.534 20.6189V27.8482C251.534 28.2693 251.675 28.6203 251.955 28.8308C252.377 29.1818 252.868 29.3221 253.5 29.3221H256.377V30.7961H242.901V29.3221H245.498C246.13 29.3221 246.621 29.1818 246.972 28.901C247.323 28.6203 247.464 28.2693 247.464 27.8482V4.33555C247.464 3.84424 247.253 3.49331 246.902 3.28274C246.551 3.002 245.919 2.86162 245.077 2.86162H242.901V1.3877H242.761Z" fill="white"/>
<path d="M273.924 1.3877H286.838V2.86162H285.435C284.241 2.86162 283.469 2.93181 283.118 3.14237C282.768 3.35293 282.557 3.56349 282.557 3.91443C282.557 4.26536 282.627 4.54611 282.838 4.82686L290.348 16.4779L295.752 6.58154C295.963 6.16041 296.103 5.6691 296.103 5.17779C296.103 4.47592 295.892 3.91443 295.401 3.49331C294.98 3.07218 294.278 2.86162 293.436 2.86162H292.032V1.3877H303.262V2.86162C301.999 2.86162 300.946 3.07218 300.244 3.56349C299.472 3.98461 298.77 4.89705 298.068 6.09023L291.26 18.5835V27.9184C291.26 28.4097 291.401 28.7606 291.681 28.9712C292.032 29.2519 292.664 29.3923 293.366 29.3923H295.892V30.8662H282.346V29.3923H285.013C285.715 29.3923 286.277 29.2519 286.558 28.9712C286.838 28.6904 287.049 28.3395 287.049 27.9184V18.7941L277.925 4.54611C277.503 3.91443 277.082 3.49331 276.521 3.28274C275.959 3.07218 275.117 2.93181 273.854 2.86162V1.3877H273.924Z" fill="white"/>
<path d="M24.5496 79.8567C22.7247 79.2952 21.5315 77.9616 20.8999 76.207C20.4086 74.8734 20.198 73.3995 20.1278 71.9256C19.9874 70.1007 20.0576 68.2056 20.3384 66.3808C21.1104 61.3975 22.3738 56.5546 24.1285 51.8521C24.69 50.4483 25.2515 49.1148 25.8831 47.711C26.5148 46.0967 27.0763 44.4122 27.8484 42.8681C30.5857 36.9724 33.6037 31.1469 37.1833 25.7425C38.0957 24.4089 39.0783 23.1456 40.0609 21.8822C40.5522 21.2505 41.1839 20.7592 41.8156 20.1977C42.0963 19.917 42.5175 19.7766 42.7982 19.6362C43.2193 19.8468 43.5703 19.9872 43.9914 20.1977C43.7808 20.8294 43.2193 21.1102 42.728 21.3207C42.1665 21.5313 41.6752 21.812 41.4647 22.3735C41.8156 22.5841 42.0262 22.5139 42.3069 22.2332C43.079 21.5313 44.0616 21.1803 45.1144 21.04C45.0442 21.3909 44.974 21.6717 44.974 22.0226C43.7808 22.5139 42.728 23.2158 42.0262 24.3388C41.7454 24.8301 41.3243 25.181 40.9032 25.6723C40.482 25.181 41.2541 24.4791 40.4119 24.1282L39.4292 25.6021C39.8504 26.304 39.1485 26.7953 39.0081 27.5674L39.9205 26.7953C39.9907 26.7953 40.0609 26.8655 40.0609 26.8655C39.4994 27.6375 39.0081 28.4798 38.5168 29.2519C38.0255 30.0239 37.5342 30.7258 37.1131 31.4978C35.3584 34.6563 33.6739 37.8849 31.849 40.9731C31.0068 42.447 30.5155 44.0613 29.8136 45.6054C27.3571 51.0098 25.3216 56.6248 23.9881 62.4503C23.2862 65.3982 22.8651 68.346 23.0757 71.3641C23.1458 72.4871 23.4266 73.61 23.6372 74.733C23.7073 75.1542 23.9179 75.5051 24.0583 75.856C24.5496 76.8387 25.2515 77.33 26.3745 77.1896C28.2695 77.0492 29.954 76.4175 31.5683 75.5051C34.5161 73.8908 37.0429 71.715 39.4292 69.469C44.1318 64.9069 48.2728 59.8534 51.9927 54.449C53.3965 52.4136 54.73 50.308 56.1337 48.2023C56.4847 47.711 56.6952 47.2197 56.8356 46.6582C58.0288 42.8681 59.2922 39.078 61.117 35.5687C61.468 34.8668 61.8891 34.1649 62.3804 33.4631C62.5909 33.1823 62.8717 32.9718 63.0121 32.8314C63.5034 32.9016 63.9245 32.9016 64.3456 32.9718C64.5562 33.1823 64.8369 33.3929 65.1177 33.6736C65.7494 34.5861 65.609 35.5687 65.3282 36.4811C64.6264 38.7271 63.7139 40.8327 62.5208 42.8681C62.1698 43.4296 62.0295 43.9911 61.7487 44.5526C60.9767 46.0266 60.0642 47.5707 59.2922 49.0446C59.0114 49.5359 58.8009 49.957 58.6605 50.5185C57.9586 52.8347 57.3269 55.221 56.6251 57.6074C56.4847 58.1689 56.4145 58.6602 56.2741 59.1515C56.2039 59.2919 56.1337 59.5025 56.0636 59.6428V59.0813C55.5722 60.2745 55.0108 61.4677 55.5021 62.9416C55.0809 64.8367 54.8704 66.8721 54.9406 68.9777C55.0108 70.2411 55.2213 71.3641 56.0636 72.3467C56.1337 72.4169 56.2039 72.5572 56.2741 72.6274L56.3443 72.9082C56.1337 72.838 55.9232 72.7678 55.5722 72.6976C55.9934 73.1889 56.2741 73.5399 56.4847 73.8908C55.9232 74.4523 55.4319 74.5225 54.9406 73.8908C54.5194 73.3995 54.0281 73.1187 53.4666 72.9784C52.6244 71.8554 52.484 70.5218 52.4138 69.1883C52.3436 68.0653 52.3436 67.0125 52.6946 65.8895C52.9051 65.1876 52.9051 64.4155 52.9051 63.7137C52.9753 61.6783 53.4666 59.713 53.8878 57.7478C53.9579 57.467 53.9579 57.1863 54.0281 56.8354C53.3965 57.2565 52.5542 58.3795 52.2033 59.0111C51.6418 59.9938 51.1505 61.0466 50.4486 61.959C49.5362 63.1522 48.6237 64.4857 47.4306 65.4684C47.1498 65.6789 47.0094 65.9597 46.7989 66.2404C45.3951 68.2758 43.6405 70.0305 41.8858 71.715C39.6398 73.8908 37.3236 75.9262 34.7267 77.6107C33.1826 78.5933 31.5683 79.4356 29.7434 79.9269C27.9186 80.4884 26.1639 80.348 24.5496 79.8567ZM21.6017 65.6087C20.97 68.1355 20.8297 70.6622 21.1104 73.4697C21.2508 70.6622 21.4614 68.1355 21.6017 65.6087ZM32.5509 36.7619C32.6913 37.0426 32.7615 37.1128 32.9018 37.3935C33.1826 36.7619 33.4633 36.3407 33.6037 35.8494C33.9546 34.3755 34.6565 33.1121 35.218 31.7084C35.4286 31.2873 35.5689 30.796 35.7093 30.3047C35.9199 30.0941 36.1304 29.9537 36.2006 29.7432C36.4814 28.9711 36.9727 28.4096 37.3236 27.7779C37.464 27.6376 37.3938 27.427 37.464 27.1462C36.0603 28.3394 34.6565 30.2345 34.5161 31.1469C34.7267 31.0065 34.8671 30.9363 35.0075 30.8662C34.7969 31.2171 34.6565 31.568 34.5161 31.919C34.1652 32.6208 33.7441 33.3227 33.4633 34.0948C33.0422 35.0072 32.6913 35.9196 32.2702 36.8321C32.1298 37.183 31.9192 37.5339 31.7788 37.8849C31.849 37.955 31.849 37.955 31.9192 37.955L32.5509 36.7619Z" fill="#1D5EAA"/>
<path d="M81.8221 30.094C81.1203 30.6555 80.9097 31.4977 80.5588 32.2698C79.7165 34.235 78.8041 36.2003 77.9618 38.1655C77.5407 39.0078 77.0494 39.9202 76.6283 40.7624C76.4879 40.9028 76.3475 41.0432 76.137 41.2537C76.2072 42.1662 75.8562 43.0786 75.4351 43.991L72.2065 50.7992C72.0661 51.0799 71.9258 51.3607 71.7854 51.7116C72.2065 51.7116 72.5574 51.6414 72.8382 51.7818C73.7506 52.1327 74.8034 52.3433 75.7159 52.7644C76.3475 53.1153 76.7687 53.747 76.7687 54.6595C76.6283 55.8526 76.2774 56.9054 75.5053 57.7477C74.5227 58.8005 73.3997 59.5726 72.0661 60.134C71.8556 60.2042 71.645 60.2744 71.3643 60.4148C71.8556 61.1869 72.2767 61.8887 72.768 62.5906C74.1717 64.3453 75.6457 66.0298 77.1196 67.7142C77.5407 68.2056 78.032 68.6969 77.7513 69.4689C77.5407 70.1006 77.1196 70.3814 76.4879 70.1006C76.137 69.89 75.8562 69.6795 75.4351 69.8199C75.2947 69.89 75.014 69.6093 74.8736 69.4689C74.4525 68.9776 74.0314 68.4863 73.6103 67.995C73.0488 67.4335 72.768 66.6614 72.0661 66.1701C71.996 66.0999 71.8556 65.9596 71.8556 65.8192C71.7152 65.0471 71.2239 64.4856 70.7326 63.9241C70.3816 63.503 70.2413 62.9415 69.6096 62.8713C69.4692 62.8713 69.399 62.6608 69.3288 62.5204C69.0481 62.0291 68.7673 61.5378 68.5568 61.0465C68.3462 60.5552 68.2059 59.9937 68.0655 59.362C67.8549 59.7831 67.5742 60.0639 67.4338 60.4148C67.0127 62.0291 66.1704 63.3626 65.3984 64.8366C65.1176 65.3981 64.7667 65.8894 64.6965 66.5211C64.5561 67.2931 64.2754 67.4335 63.4331 67.2931L63.6437 66.4509L62.4505 67.1527C62.1698 66.4509 62.0996 65.8894 62.5207 65.1875C63.012 64.4155 63.2928 63.503 63.5735 62.5906C63.7841 61.8887 64.2052 61.1869 64.4859 60.485C64.6263 60.134 64.6965 59.8533 64.8369 59.5024C65.1878 58.9409 65.1176 58.6601 64.6263 58.0284C64.8369 57.2564 65.258 56.6247 65.8897 56.0632C66.8723 55.221 67.4338 54.1682 67.9953 53.0452C70.3115 48.0619 72.6978 43.1488 75.014 38.1655C76.2774 35.4282 77.4705 32.6207 78.6637 29.8133C78.9445 29.1114 79.3656 28.4797 79.7165 27.7778C80.3482 27.9884 79.9973 28.5499 80.278 28.8306C80.4886 28.5499 80.7693 28.2691 81.0501 27.9182C81.1905 28.6201 80.5588 29.2518 81.3308 29.8834C81.4712 29.8133 81.6818 29.8133 81.9625 29.7431C81.8221 29.8834 81.8923 30.0238 81.8221 30.094ZM63.7841 65.8192C63.7139 65.8192 63.6437 65.749 63.5735 65.749V66.1701C63.6437 66.0999 63.7139 65.9596 63.7841 65.8192ZM70.3115 55.6421C69.6096 55.993 69.2587 56.4843 69.1183 57.2564C70.4518 57.3968 72.4873 56.2738 73.5401 54.6595C72.3469 54.7998 71.2941 55.1508 70.3115 55.6421Z" fill="#1D5EAA"/>
<path d="M92.5608 56.6952C92.5608 57.5374 91.9291 58.4498 91.0167 58.7306C90.8763 58.52 90.6657 58.3095 90.5254 58.0287C90.4552 58.0287 90.385 57.9585 90.3148 57.9585C89.9639 57.8883 89.6129 58.3095 89.3322 57.8883C89.262 57.8182 89.0514 57.9585 88.9111 58.0287C88.4198 58.2393 87.9284 58.52 87.4371 58.8008C86.3141 59.4325 85.3315 60.2045 84.4191 61.1169V61.0468C84.0682 61.5381 83.7874 62.0294 83.4365 62.4505C82.9452 63.0822 82.3135 63.6437 81.752 64.2754C81.4011 64.6965 81.0501 65.1878 80.8396 65.6089C80.4184 66.5915 79.8569 67.4338 79.2954 68.3462L78.0321 67.6443C77.8917 67.0828 77.6811 66.5213 77.5408 65.8195C79.0147 61.7486 81.2607 57.8883 82.524 53.6069L83.647 54.1684C83.5769 54.379 83.5768 54.6597 83.5768 54.9405C83.9278 55.0107 84.2085 55.0809 84.6297 55.1511C84.4191 55.9231 84.2787 56.625 84.0682 57.4672C84.3489 57.2567 84.5595 57.1163 84.6998 56.9759C85.9632 55.8529 87.5073 55.0809 89.1918 54.7299C89.6129 54.5896 90.0341 54.5896 90.4552 54.5896C90.6657 54.5896 90.8763 54.7299 91.0167 54.9405C91.2974 55.2212 91.4378 55.5722 91.7185 55.8529C91.8589 55.9933 92.0695 55.9231 92.28 55.9933C92.4204 56.1337 92.5608 56.3442 92.5608 56.6952ZM84.3489 61.0468C84.2787 60.9064 84.2787 60.8362 84.2085 60.6958C83.2259 61.2573 82.524 62.0996 81.8222 62.8716C81.6818 63.012 81.6818 63.2927 81.5414 63.7841C82.3837 62.8716 82.9452 62.0996 83.647 61.3977C83.8576 61.2573 84.1383 61.1871 84.3489 61.0468ZM90.8061 55.3616C90.2446 54.9405 89.8937 55.0809 89.4726 55.1511C87.9986 55.502 86.5949 56.0635 85.1912 57.1163C87.1564 56.4846 88.9111 55.9231 90.8061 55.3616Z" fill="#1D5EAA"/>
<path d="M92.5609 64.0647C92.2801 64.4156 92.0696 64.907 91.7186 65.4685C92.5609 64.9771 93.2628 64.6262 93.8945 64.1349C96.2106 62.3802 98.5268 60.6255 100.913 58.8709L102.668 57.4671C102.878 57.3268 103.159 57.2566 103.37 57.1162L103.931 58.3094C104.422 58.169 104.773 57.6777 105.265 58.0286C105.896 58.9411 105.616 59.8535 105.265 60.6957C105.054 61.2572 104.773 61.8187 104.493 62.3802L101.475 68.4163C101.334 68.6269 101.194 68.8374 101.054 69.1182C100.703 68.6971 100.983 68.3461 101.124 68.0654C101.334 67.6443 101.475 67.2231 101.685 66.802C102.177 66.1703 102.527 65.4685 102.808 64.6964C102.317 65.3281 101.685 65.8896 101.685 66.802C101.194 67.0126 101.054 67.5039 100.843 67.925C100.562 68.4865 100.352 68.9778 100.001 69.6797L99.4392 69.048C99.2988 69.1182 99.1585 69.1884 98.9479 69.3287C98.8075 69.1884 98.6672 69.048 98.4566 68.9076C98.6672 68.2759 99.0181 67.7144 98.8777 67.0126C98.8075 66.802 99.0181 66.5914 99.1585 66.3809L100.843 63.0821C100.913 62.8715 100.983 62.661 101.194 62.31L98.1057 64.4858C97.9653 64.4858 97.8951 64.4858 97.7547 64.556C97.4038 64.4156 97.3336 64.4858 97.0529 64.9771C97.1932 64.907 97.4038 64.907 97.6144 64.907C97.8951 65.0473 98.1057 64.8368 98.246 64.6262C98.597 64.4858 98.8777 64.3455 99.369 64.2051C97.8249 65.6088 96.2106 66.6616 94.5963 67.6442C93.7541 68.2057 92.8416 68.6269 91.9292 69.048C90.8062 69.6095 89.6832 69.4691 88.6304 68.9778C88.0689 68.7672 87.8584 68.3461 87.9286 67.7144C87.9987 66.4511 88.3497 65.3281 88.9814 64.2753C89.7534 63.1523 90.5255 62.0293 91.4379 60.9765C93.333 58.8007 95.4386 56.8355 97.8249 55.151C98.6672 54.5895 99.6498 54.1683 100.632 53.9578C101.054 53.8174 101.404 53.5367 101.826 53.3261C102.247 53.1155 102.668 52.8348 103.159 52.7646C103.931 52.554 104.423 53.0453 104.914 53.6068C104.773 53.5367 104.633 53.4665 104.423 53.3963C104.352 53.6068 104.282 53.7472 104.282 54.028C104.633 54.0982 104.914 54.1683 105.195 54.1683C105.896 54.8702 106.107 55.6423 105.686 56.6249C104.914 56.9758 104.844 56.9758 104.352 56.274C104.212 56.3441 104.001 56.4143 103.861 56.5547C103.721 56.4143 103.58 56.3441 103.51 56.274C103.44 56.1336 103.37 56.0634 103.3 55.8528C102.808 56.0634 102.387 56.2038 101.966 56.4845C100.632 57.3268 99.2287 58.2392 97.8951 59.1516C97.1231 59.6429 96.4914 60.2044 95.7193 60.6957C94.4559 61.4678 93.6137 62.8013 92.5609 64.0647ZM91.2273 67.2933C91.0168 67.3635 90.8062 67.4337 90.5957 67.4337C91.1571 67.6443 91.2975 67.5741 91.2273 67.2933ZM91.9292 66.7318C92.1398 66.802 92.2801 66.8722 92.4205 66.9424C92.4907 66.802 92.5609 66.6616 92.7715 66.3809L91.9292 66.7318ZM96.7019 64.9771C96.7721 65.0473 96.7721 65.0473 96.7721 65.1175L96.9827 64.8368L96.7019 64.9771Z" fill="#1D5EAA"/>
<path d="M107.37 67.9248C106.949 66.872 107.09 65.8192 107.16 64.7664C107.37 62.3098 108.423 60.134 109.616 57.9582C109.897 57.4669 110.037 57.0458 110.318 56.5545C110.599 55.993 110.95 55.5017 111.371 55.0806C111.511 55.2209 112.073 55.3613 112.213 55.5017C111.862 55.8526 111.511 56.0632 111.02 56.4843L111.441 56.7651C111.582 56.6247 111.722 56.4843 111.862 56.3439C112.003 56.1334 112.354 56.4141 112.424 56.1334C112.564 55.9228 112.705 55.7824 112.915 55.9228C113.126 56.5545 113.126 56.7651 112.634 57.116C112.424 57.3266 112.283 57.4669 112.143 57.7477C111.862 58.1688 111.652 58.5899 111.371 59.011L111.231 58.5899C110.739 59.6427 110.248 60.5552 109.827 61.5378C109.686 61.8887 109.757 62.3098 109.757 62.6608C109.757 62.8011 109.827 63.0117 109.757 63.0819C109.476 63.7136 109.476 64.4154 109.406 65.1173C109.265 65.9596 109.406 66.872 109.687 67.7142C109.687 67.8546 109.757 67.9248 109.827 68.0652C110.318 67.995 110.669 67.8546 110.88 67.4335C110.739 67.3633 110.669 67.3633 110.669 67.3633L111.722 66.4509C112.003 66.7316 111.371 66.8018 111.371 67.1527C111.792 67.2931 112.213 67.2931 112.705 67.2229C112.424 67.5037 112.283 67.7844 112.143 67.995C111.722 68.3459 111.231 68.6267 110.88 68.9776C110.739 69.0478 110.669 69.118 110.599 69.1882C109.336 69.8198 107.932 69.3987 107.37 67.9248ZM113.055 52.3433C112.845 52.3433 112.705 52.4836 112.634 52.4135C112.494 52.3433 112.354 52.1327 112.354 51.9923C112.424 51.2905 112.564 50.6588 113.126 50.1675C113.687 50.2377 113.898 50.5886 114.038 51.1501C114.249 50.729 114.529 50.5886 114.88 50.7992C114.951 51.1501 115.161 51.4308 115.021 51.7818C114.74 52.2731 114.389 52.5538 114.038 52.8346C113.687 53.1153 113.336 52.9048 113.055 52.3433Z" fill="#1D5EAA"/>
<path d="M127.935 60.6954C127.303 63.152 126.672 65.5383 126.04 67.9949L125.619 69.6794C125.549 70.0303 125.478 70.3813 125.549 70.662C125.759 71.3639 125.549 71.9254 124.987 72.4869C124.566 72.6974 124.005 72.8378 123.583 72.2763C123.443 72.1359 123.303 72.0657 123.162 71.9956C122.46 71.6446 122.32 71.3639 122.46 70.662L123.373 66.8017C123.654 65.7489 123.934 64.6961 124.215 63.6433C124.355 63.0116 124.426 62.3799 124.917 61.8184C125.057 61.7483 125.128 61.5377 125.128 61.3973C125.268 60.9762 125.408 60.5551 125.478 60.1339C125.549 59.7128 125.408 59.3619 125.408 59.011C124.777 58.8706 124.285 59.0811 123.864 59.2917C120.916 60.6253 118.319 62.5905 116.214 65.047C116.003 65.2576 115.793 65.5384 115.512 65.6787C114.95 65.8893 114.67 65.6085 114.74 65.047C114.88 64.3452 115.021 63.6433 115.231 62.8712C115.582 61.3973 116.354 59.9936 117.056 58.66L118.039 56.8352C117.968 56.8352 117.828 56.9053 117.618 56.9053C118.249 55.7122 118.881 54.4488 119.864 53.396C120.074 53.6066 120.214 53.6767 120.425 53.9575C120.074 54.2382 119.793 54.519 119.513 54.7997C119.934 55.4314 119.793 56.1333 119.653 56.9053C120.214 56.1333 120.776 55.5016 121.337 54.6594C121.408 54.7997 121.408 55.0103 121.408 55.1507C121.408 55.291 121.197 55.5016 121.267 55.5016C121.759 56.2035 121.197 56.6246 120.776 57.1159C120.495 57.4668 120.285 57.888 120.214 58.3091L122.18 57.3265C122.039 57.7476 121.969 57.888 121.829 58.1687C122.39 57.9581 122.882 57.8178 123.373 57.6072C123.162 57.4668 123.092 57.3967 122.952 57.3265C124.285 55.4314 126.531 56.1333 127.374 57.3967C127.935 58.3091 128.216 59.4321 127.935 60.6954ZM118.249 56.2035C118.179 56.3439 118.039 56.414 117.968 56.5544C117.898 56.6246 117.968 56.6948 117.968 56.8352C118.179 56.6948 118.46 56.5544 118.249 56.2035Z" fill="#1D5EAA"/>
<path d="M128.497 67.9248C128.075 66.872 128.216 65.8192 128.286 64.7664C128.497 62.3098 129.549 60.134 130.743 57.9582C131.023 57.4669 131.164 57.0458 131.444 56.5545C131.725 55.993 132.076 55.5017 132.497 55.0806C132.638 55.2209 133.199 55.3613 133.339 55.5017C132.989 55.8526 132.638 56.0632 132.146 56.4843L132.567 56.7651C132.708 56.6247 132.848 56.4843 132.989 56.3439C133.129 56.1334 133.48 56.4141 133.55 56.1334C133.69 55.9228 133.831 55.7824 134.041 55.9228C134.252 56.5545 134.252 56.7651 133.761 57.116C133.55 57.3266 133.41 57.4669 133.269 57.7477C132.989 58.1688 132.778 58.5899 132.497 59.011L132.357 58.5899C131.866 59.6427 131.374 60.5552 130.953 61.5378C130.813 61.8887 130.883 62.3098 130.883 62.6608C130.883 62.8011 130.953 63.0117 130.883 63.0819C130.602 63.7136 130.602 64.4154 130.532 65.1173C130.392 65.9596 130.532 66.872 130.813 67.7142C130.813 67.8546 130.883 67.9248 130.953 68.0652C131.444 67.995 131.795 67.8546 132.006 67.4335C131.866 67.3633 131.795 67.3633 131.795 67.3633L132.848 66.4509C133.129 66.7316 132.497 66.8018 132.497 67.1527C132.918 67.2931 133.339 67.2931 133.831 67.2229C133.55 67.5037 133.41 67.7844 133.269 67.995C132.848 68.3459 132.357 68.6267 132.006 68.9776C131.866 69.0478 131.795 69.118 131.725 69.1882C130.462 69.8198 129.058 69.3987 128.497 67.9248ZM134.182 52.3433C133.971 52.3433 133.831 52.4836 133.761 52.4135C133.62 52.3433 133.48 52.1327 133.48 51.9923C133.55 51.2905 133.69 50.6588 134.252 50.1675C134.813 50.2377 135.024 50.5886 135.164 51.1501C135.375 50.729 135.656 50.5886 136.007 50.7992C136.077 51.1501 136.287 51.4308 136.147 51.7818C135.866 52.2731 135.515 52.5538 135.164 52.8346C134.813 53.1153 134.462 52.9048 134.182 52.3433Z" fill="#1D5EAA"/>
<path d="M140.849 64.0647C140.569 64.4156 140.358 64.907 140.007 65.4685C140.849 64.9771 141.551 64.6262 142.183 64.1349C144.499 62.3802 146.815 60.6255 149.202 58.8709L150.956 57.4671C151.167 57.3268 151.448 57.2566 151.658 57.1162L152.22 58.3094C152.711 58.169 153.062 57.6777 153.553 58.0286C154.185 58.9411 153.904 59.8535 153.553 60.6957C153.343 61.2572 153.062 61.8187 152.781 62.3802L149.763 68.4163C149.623 68.6269 149.482 68.8374 149.342 69.1182C148.991 68.6971 149.272 68.3461 149.412 68.0654C149.623 67.6443 149.763 67.2231 149.974 66.802C150.465 66.1703 150.816 65.4685 151.097 64.6964C150.605 65.3281 149.974 65.8896 149.974 66.802C149.482 67.0126 149.342 67.5039 149.132 67.925C148.851 68.4865 148.64 68.9778 148.289 69.6797L147.728 69.048C147.587 69.1182 147.447 69.1884 147.236 69.3287C147.096 69.1884 146.956 69.048 146.745 68.9076C146.956 68.2759 147.307 67.7144 147.166 67.0126C147.096 66.802 147.307 66.5914 147.447 66.3809L149.132 63.0821C149.202 62.8715 149.272 62.661 149.482 62.31L146.394 64.4858C146.254 64.4858 146.184 64.4858 146.043 64.556C145.692 64.4156 145.622 64.4858 145.341 64.9771C145.482 64.907 145.692 64.907 145.903 64.907C146.184 65.0473 146.394 64.8368 146.535 64.6262C146.886 64.4858 147.166 64.3455 147.658 64.2051C146.113 65.6088 144.499 66.6616 142.885 67.6442C142.043 68.2057 141.13 68.6269 140.218 69.048C139.095 69.6095 137.972 69.4691 136.919 68.9778C136.358 68.7672 136.147 68.3461 136.217 67.7144C136.287 66.4511 136.638 65.3281 137.27 64.2753C138.042 63.1523 138.814 62.0293 139.726 60.9765C141.622 58.8007 143.727 56.8355 146.114 55.151C146.956 54.5895 147.938 54.1683 148.921 53.9578C149.342 53.8174 149.693 53.5367 150.114 53.3261C150.535 53.1155 150.956 52.8348 151.448 52.7646C152.22 52.554 152.711 53.0453 153.202 53.6068C153.062 53.5367 152.922 53.4665 152.711 53.3963C152.641 53.6068 152.571 53.7472 152.571 54.028C152.922 54.0982 153.202 54.1683 153.483 54.1683C154.185 54.8702 154.396 55.6423 153.974 56.6249C153.202 56.9758 153.132 56.9758 152.641 56.274C152.501 56.3441 152.29 56.4143 152.15 56.5547C152.009 56.4143 151.869 56.3441 151.799 56.274C151.728 56.1336 151.658 56.0634 151.588 55.8528C151.097 56.0634 150.676 56.2038 150.255 56.4845C148.921 57.3268 147.517 58.2392 146.184 59.1516C145.412 59.6429 144.78 60.2044 144.008 60.6957C142.745 61.4678 141.832 62.8013 140.849 64.0647ZM139.516 67.2933C139.305 67.3635 139.095 67.4337 138.884 67.4337C139.446 67.6443 139.586 67.5741 139.516 67.2933ZM140.148 66.7318C140.358 66.802 140.499 66.8722 140.639 66.9424C140.709 66.802 140.779 66.6616 140.99 66.3809L140.148 66.7318ZM144.991 64.9771C145.061 65.0473 145.061 65.0473 145.061 65.1175L145.271 64.8368L144.991 64.9771Z" fill="#1D5EAA"/>
<path d="M169.205 60.6954C168.573 63.152 167.942 65.5383 167.31 67.9949L166.889 69.6794C166.819 70.0303 166.748 70.3813 166.819 70.662C167.029 71.3639 166.819 71.9254 166.257 72.4869C165.836 72.6974 165.275 72.8378 164.853 72.2763C164.713 72.1359 164.573 72.0657 164.432 71.9956C163.73 71.6446 163.59 71.3639 163.73 70.662L164.643 66.8017C164.924 65.7489 165.204 64.6961 165.485 63.6433C165.625 63.0116 165.696 62.3799 166.187 61.8184C166.327 61.7483 166.398 61.5377 166.398 61.3973C166.538 60.9762 166.678 60.5551 166.748 60.1339C166.819 59.7128 166.678 59.3619 166.678 59.011C166.047 58.8706 165.555 59.0811 165.134 59.2917C162.186 60.6253 159.589 62.5905 157.484 65.047C157.273 65.2576 157.063 65.5384 156.782 65.6787C156.22 65.8893 155.94 65.6085 156.01 65.047C156.15 64.3452 156.291 63.6433 156.501 62.8712C156.852 61.3973 157.624 59.9936 158.326 58.66L159.309 56.8352C159.238 56.8352 159.098 56.9053 158.888 56.9053C159.519 55.7122 160.151 54.4488 161.134 53.396C161.344 53.6066 161.484 53.6767 161.695 53.9575C161.344 54.2382 161.063 54.519 160.783 54.7997C161.204 55.4314 161.063 56.1333 160.923 56.9053C161.484 56.1333 162.046 55.5016 162.607 54.6594C162.678 54.7997 162.678 55.0103 162.678 55.1507C162.678 55.291 162.467 55.5016 162.537 55.5016C163.029 56.2035 162.467 56.6246 162.046 57.1159C161.765 57.4668 161.555 57.888 161.484 58.3091L163.45 57.3265C163.309 57.7476 163.239 57.888 163.099 58.1687C163.66 57.9581 164.152 57.8178 164.643 57.6072C164.432 57.4668 164.362 57.3967 164.222 57.3265C165.555 55.4314 167.801 56.1333 168.644 57.3967C169.205 58.3091 169.556 59.4321 169.205 60.6954ZM159.519 56.2035C159.449 56.3439 159.309 56.414 159.238 56.5544C159.168 56.6246 159.238 56.6948 159.238 56.8352C159.519 56.6948 159.8 56.5544 159.519 56.2035Z" fill="#1D5EAA"/>
<path d="M279.75 27.2866C279.679 27.3568 279.539 27.427 279.399 27.4972C279.118 27.076 278.907 26.7251 278.697 26.3742C278.627 26.4444 278.556 26.4444 278.556 26.4444C278.697 26.8655 278.837 27.2164 278.978 27.6375C278.556 27.9183 278.206 27.6375 278.065 27.3568C277.433 26.2338 276.381 25.953 275.258 25.8829C273.714 25.7425 272.169 25.6723 270.625 25.6021C268.59 25.5319 266.625 25.4617 264.659 25.3214C265.221 25.181 265.712 25.0406 266.274 24.9704C266.204 24.8301 266.204 24.7599 266.204 24.6897C264.168 24.7599 262.133 24.83 260.027 24.9002L260.448 25.5319C256.939 26.0232 253.57 26.0232 250.131 26.2338H250.973V26.304C242.129 27.076 233.356 27.8481 224.442 28.6201C224.232 28.9711 223.74 29.1816 223.74 29.7431C223.74 29.8133 223.67 29.9537 223.6 29.9537C222.968 30.3046 222.758 31.0065 222.407 31.4978C221.635 32.8314 220.933 34.2351 220.161 35.5687C220.02 35.709 219.95 35.9196 219.95 36.06C219.81 37.7445 218.968 39.078 218.476 40.6221C217.494 43.6402 216.441 46.6582 215.178 49.6061L215.037 50.0272C215.739 49.957 216.301 49.8868 216.932 49.8166C218.125 49.6763 219.319 49.5359 220.582 49.3955C220.863 49.3253 221.214 49.3253 221.494 49.3955C222.056 49.3955 222.547 49.3955 223.039 49.2551C223.881 49.0446 224.793 48.9744 225.635 48.9744C226.197 49.0446 226.688 49.4657 227.46 49.7464C227.881 49.6763 228.513 49.5359 229.145 49.4657C230.198 49.3253 231.321 49.2551 232.373 49.1148C232.795 49.0446 233.145 48.9744 233.567 48.834C235.181 48.834 236.514 49.5359 237.708 50.5185C239.111 51.7117 238.971 53.2558 237.848 54.5893C237.216 55.2912 236.655 55.1508 236.163 54.449L235.251 54.5893C235.462 54.1682 235.602 53.9577 235.742 53.6067C235.391 53.1856 235.462 52.6241 235.672 51.9924C235.111 51.9222 234.549 51.8521 233.988 51.8521C231.25 51.6415 228.443 51.8521 225.706 52.1328C221.986 52.5539 218.196 52.9049 214.476 53.326C214.195 53.3962 213.984 53.3962 213.633 53.4664C213.283 54.3086 212.861 55.221 212.51 56.0633C210.264 61.2571 208.089 66.3808 205.773 71.5746C205.211 72.838 204.65 74.1715 204.018 75.4349C203.667 76.0666 203.316 76.6983 202.965 77.3299C202.684 77.6809 202.404 77.9616 202.053 78.1722C201.21 78.6635 201 78.5933 200.298 77.8212L198.964 77.6107C197.982 76.6281 197.631 75.2945 197.21 73.961C197.14 73.7504 197.28 73.4697 197.35 73.2591C197.912 74.5225 197.982 75.9964 199.105 77.0492L197.701 72.9783C196.718 72.1361 196.789 70.8727 196.297 69.8199C194.894 66.9423 193.981 63.7838 191.595 61.4677C191.174 61.0466 190.823 60.6254 190.542 60.2745C189.138 59.5024 187.805 58.8006 186.541 57.7478L186.892 56.0633C187.033 55.221 187.594 54.7297 188.366 54.449C189.419 54.1682 190.472 53.8875 191.525 53.6769C194.332 53.1154 197.21 52.6241 200.087 52.203C201.07 52.0626 202.053 52.1328 202.965 52.2732C204.018 52.3434 205 52.1328 205.983 51.9222C207.457 51.6415 209.001 51.4309 210.475 51.2204C210.966 51.1502 211.387 51.0098 211.879 50.9396C214.897 43.57 217.774 36.2003 221.284 29.1115C221.143 29.0413 221.073 28.9009 221.073 28.9711C219.459 29.1115 217.845 29.1816 216.23 29.3922C214.756 29.5326 213.212 29.7431 211.738 29.9537C209.352 30.3046 206.966 30.6556 204.509 30.9363C203.597 31.0767 202.684 31.3574 201.702 31.0767L203.316 30.445C201.14 30.2345 199.315 30.7959 197.35 31.1469C197.631 31.2873 197.771 31.3574 197.982 31.4978C197.42 31.8488 196.859 31.9189 196.227 32.0593C195.104 32.2699 194.051 32.4804 192.928 32.7612C191.805 32.9717 190.612 33.1823 189.489 33.4631C187.664 34.0245 185.91 34.586 184.085 35.2177C183.313 35.4985 182.611 35.9898 181.839 36.3407C181.207 36.1302 181.207 36.1302 180.997 35.3581C181.418 35.0774 181.769 34.7966 182.19 34.5159L181.909 34.1649C181.488 34.4457 181.137 34.6562 180.716 35.0072C180.365 34.586 180.505 34.2351 180.926 34.0245C181.628 33.6034 182.33 33.2525 183.102 32.9016C183.593 32.691 184.155 32.4804 184.646 32.2699C185.208 32.1295 185.769 31.9891 186.331 31.9189C186.962 31.7786 187.594 31.7786 188.226 31.6382C188.717 31.568 189.208 31.4276 189.7 31.3574C190.823 31.2171 191.946 31.0065 193.069 30.7258C193.209 30.6556 193.42 30.6556 193.56 30.6556C194.192 30.6556 194.823 30.445 195.385 30.0239L194.543 29.8835C194.894 29.673 195.034 29.6028 195.244 29.5326C196.929 29.1816 198.543 28.9009 200.228 28.6201C201.631 28.4096 203.105 28.0587 204.579 28.1288C205.281 28.199 205.983 27.9885 206.755 27.9183V27.9885C206.825 27.7077 207.106 27.5673 207.387 27.5673C207.878 27.4972 208.369 27.3568 208.861 27.2866C211.879 26.8655 214.967 26.5145 217.985 26.2338C218.687 26.0934 219.389 26.2338 220.091 26.1636C221.143 26.0232 222.196 25.7425 223.319 25.6021C223.951 24.9704 224.302 24.058 225.284 23.6369C225.846 24.1282 226.478 24.6195 227.32 25.2512C227.46 25.181 227.881 25.181 228.232 25.1108C233.707 24.6195 239.182 24.1282 244.726 23.7071C250.201 23.2859 255.746 23.0052 261.29 22.6543C262.413 22.5841 263.607 22.5139 264.73 22.5139C266.133 22.5841 267.467 22.6543 268.871 22.7244C269.222 22.7946 269.573 22.935 269.923 23.0052C270.274 23.0754 270.555 22.935 271.046 22.8648C270.625 22.6543 270.415 22.5841 270.134 22.5139V22.3735C270.976 22.3735 271.889 22.3033 272.731 22.4437C274.064 22.5139 275.468 22.5841 276.872 22.7244C277.855 22.7946 278.627 23.2157 279.188 23.9878C279.469 24.3387 279.75 24.6195 279.96 24.9002C280.101 25.5319 280.311 26.5145 279.75 27.2866ZM210.335 54.0279C208.018 54.3086 205.913 54.5893 203.807 54.8701C203.667 54.6595 203.597 54.5893 203.527 54.3788C202.825 54.5192 202.123 54.6595 201.351 54.7999C199.877 55.0105 198.333 55.221 196.859 55.3614C196.227 55.4316 195.666 55.4316 195.034 55.572C193.42 55.9229 191.805 56.2738 190.261 56.6248C190.051 56.695 189.91 56.8353 189.77 56.9055C189.98 57.0459 190.121 57.0459 190.261 57.0459C190.682 56.9055 191.033 56.7651 191.384 56.695C192.507 56.4142 193.7 56.2036 194.823 55.9931C195.034 55.9229 195.174 55.9931 195.315 55.9931V56.1335C193.771 56.5546 192.226 56.9757 190.402 57.3968C190.893 57.7478 191.244 57.9583 191.525 58.1689C192.437 58.8006 193.349 59.4323 193.911 60.4851C194.402 61.2571 194.823 62.0292 195.385 62.6609C196.438 63.854 197.069 65.2578 197.631 66.6615C197.841 67.1528 197.982 67.5739 198.052 68.0653C198.473 69.8901 198.894 71.7852 199.315 73.8206L199.456 72.6274C199.526 72.6274 199.526 72.5572 199.596 72.5572C199.877 73.3293 200.158 74.0311 200.438 74.8734C201.07 74.4523 201.281 73.8206 201.561 73.3293C202.544 71.2939 203.597 69.2584 204.439 67.223C206.264 63.1522 207.948 59.0111 209.703 54.9403C210.054 54.7999 210.194 54.449 210.335 54.0279ZM204.158 71.1535C204.299 70.7324 204.439 70.3112 204.579 69.8901C204.509 69.8901 204.439 69.8199 204.369 69.8199L201.491 76.2069C201.912 76.4175 202.053 76.0666 202.263 75.856C203.176 74.8734 203.667 73.61 204.158 72.3467C204.228 72.2063 204.299 71.9957 204.228 71.9255C203.737 71.7852 204.088 71.5044 204.158 71.1535ZM207.597 62.731C206.966 63.4329 206.053 65.6087 205.632 67.0125C205.141 67.7143 204.93 68.4864 204.72 69.3286C205.141 68.6267 205.562 67.9249 205.702 67.0826C205.843 66.9423 205.983 66.8721 206.053 66.7317C206.545 65.7491 206.966 64.6963 207.387 63.6435C207.457 63.4329 207.527 63.1522 207.597 62.731ZM208.159 27.8481C207.597 27.7779 207.036 27.6375 206.474 27.9885C206.474 28.0587 206.474 28.1288 206.545 28.1288C207.106 28.1288 207.597 28.0587 208.159 27.8481ZM257.5 23.6369C257.36 23.1456 257.079 23.1456 256.728 23.1456C255.886 23.2157 254.974 23.2859 254.131 23.3561C251.394 23.5667 248.727 23.8474 245.99 23.9176C243.603 23.9878 241.217 24.2686 238.831 24.4791C238.55 24.4791 238.269 24.5493 237.988 24.6195V24.7599C239.883 24.6897 241.708 24.8301 243.533 24.6195C244.375 24.5493 245.218 24.5493 246.06 24.3387C247.183 24.1282 248.306 24.1984 249.429 24.1282C250.762 24.058 252.026 24.058 253.359 23.9878H253.429C254.552 24.2686 255.675 23.9878 256.728 23.8474C257.079 23.9176 257.29 23.7772 257.5 23.6369ZM247.183 25.8127C246.06 25.8127 244.867 25.8829 243.744 25.8829C243.744 26.0232 243.744 26.0934 243.814 26.2338C244.937 26.3742 246.06 26.0934 247.183 25.8127Z" fill="#FFD206"/>
<path d="M230.97 56.6952C230.97 57.5374 230.338 58.4498 229.426 58.7306C229.285 58.52 229.075 58.3095 228.934 58.0287C228.864 58.0287 228.794 57.9585 228.724 57.9585C228.373 57.8883 228.022 58.3095 227.741 57.8883C227.671 57.8182 227.46 57.9585 227.32 58.0287C226.829 58.2393 226.337 58.52 225.846 58.8008C224.723 59.4325 223.74 60.2045 222.828 61.1169V61.0468C222.477 61.5381 222.196 62.0294 221.845 62.4505C221.354 63.0822 220.722 63.6437 220.161 64.2754C219.81 64.6965 219.459 65.1878 219.249 65.6089C218.827 66.5915 218.266 67.4338 217.704 68.3462L216.441 67.6443C216.301 67.0828 216.09 66.5213 215.95 65.8195C217.424 61.7486 219.67 57.8883 220.933 53.6069L222.056 54.1684C221.986 54.379 221.986 54.6597 221.986 54.9405C222.337 55.0107 222.617 55.0809 223.039 55.1511C222.828 55.9231 222.688 56.625 222.477 57.4672C222.758 57.2567 222.968 57.1163 223.109 56.9759C224.372 55.8529 225.916 55.0809 227.601 54.7299C228.022 54.5896 228.443 54.5896 228.864 54.5896C229.075 54.5896 229.285 54.7299 229.426 54.9405C229.706 55.2212 229.847 55.5722 230.127 55.8529C230.268 55.9933 230.478 55.9231 230.689 55.9933C230.829 56.1337 230.97 56.3442 230.97 56.6952ZM222.688 61.0468C222.617 60.9064 222.617 60.8362 222.547 60.6958C221.565 61.2573 220.863 62.0996 220.161 62.8716C220.021 63.012 220.021 63.2927 219.88 63.7841C220.722 62.8716 221.284 62.0996 221.986 61.3977C222.267 61.2573 222.477 61.1871 222.688 61.0468ZM229.215 55.3616C228.654 54.9405 228.303 55.0809 227.882 55.1511C226.408 55.502 225.004 56.0635 223.6 57.1163C225.565 56.4846 227.32 55.9231 229.215 55.3616Z" fill="#FFD206"/>
<path d="M230.549 65.328C230.478 64.7665 230.549 64.205 230.689 63.7137C231.11 61.6783 231.882 59.8534 233.216 58.2391C233.847 57.4671 234.409 56.695 235.111 55.9931C235.532 55.572 236.093 55.1509 236.655 54.8701C237.076 54.5894 237.357 54.3086 237.567 53.8875C238.059 52.8347 239.041 52.554 240.024 52.4136C240.655 52.2732 241.006 52.8347 241.147 53.2558C241.568 53.5366 241.919 53.6068 242.059 53.8173C242.34 54.2384 242.621 54.7999 242.41 55.2913C242.129 55.8527 242.27 56.3441 242.34 56.9056C242.691 58.2391 242.761 59.6429 242.621 61.0466C242.48 62.1696 241.989 63.1522 241.428 64.1348C240.655 65.3982 239.532 66.5212 238.199 67.2932C237.287 67.0827 236.444 67.0125 235.602 67.3634C235.181 67.574 234.76 67.7144 234.339 67.8547C232.093 68.4864 230.689 66.7317 230.549 65.328ZM234.549 59.9938C235.181 59.5025 235.742 59.0814 236.163 58.3795C236.444 57.9584 236.865 57.6074 237.286 57.2565C237.708 56.9056 238.129 56.5546 238.48 56.1335C238.831 55.7826 239.111 55.4316 239.462 54.9403L239.182 54.5192C238.62 54.8701 238.129 55.2211 237.637 55.572C236.374 56.4142 235.462 57.7478 234.268 58.7304C233.216 59.6428 232.795 61.0466 232.163 62.31C232.724 61.3273 233.637 60.6957 234.549 59.9938ZM236.023 66.1001C236.936 65.8895 237.708 65.3982 238.269 64.6963C238.901 63.8541 239.813 63.2224 240.234 62.1696C240.305 62.0994 240.515 62.0994 240.655 62.0994C241.287 61.2572 241.147 60.1342 241.077 59.0112C240.796 59.8534 240.515 60.5553 240.305 61.2571C240.796 59.4323 240.655 57.6776 239.954 55.7124L239.813 56.4142C239.743 56.2739 239.673 56.2037 239.603 56.0633H239.462C238.199 56.9056 237.006 58.0285 235.883 59.0814C235.041 59.9236 234.479 60.9062 233.847 61.8888C233.216 62.8715 232.865 64.0646 233.145 65.328C233.777 65.4684 234.339 65.5386 234.9 65.6087C234.9 65.6789 234.9 65.6789 234.83 65.7491H233.286C233.637 66.3808 233.988 66.5914 234.619 66.3808C235.041 66.3106 235.462 66.1702 236.023 66.1001Z" fill="#FFD206"/>
<path d="M257.009 60.6954C256.377 63.152 255.746 65.5383 255.114 67.9949L254.693 69.6794C254.623 70.0303 254.552 70.3813 254.623 70.662C254.833 71.3639 254.623 71.9254 254.061 72.4869C253.64 72.6974 253.078 72.8378 252.657 72.2763C252.517 72.1359 252.377 72.0657 252.236 71.9956C251.534 71.6446 251.394 71.3639 251.534 70.662L252.447 66.8017C252.728 65.7489 253.008 64.6961 253.289 63.6433C253.429 63.0116 253.5 62.3799 253.991 61.8184C254.131 61.7483 254.201 61.5377 254.201 61.3973C254.342 60.9762 254.482 60.5551 254.552 60.1339C254.623 59.7128 254.482 59.3619 254.482 59.011C253.851 58.8706 253.359 59.0811 252.938 59.2917C249.99 60.6253 247.393 62.5905 245.288 65.047C245.077 65.2576 244.867 65.5384 244.586 65.6787C244.024 65.8893 243.744 65.6085 243.814 65.047C243.954 64.3452 244.095 63.6433 244.305 62.8712C244.656 61.3973 245.428 59.9936 246.13 58.66L247.113 56.8352C247.042 56.8352 246.902 56.9053 246.691 56.9053C247.323 55.7122 247.955 54.4488 248.937 53.396C249.148 53.6066 249.288 53.6767 249.499 53.9575C249.148 54.2382 248.867 54.519 248.587 54.7997C249.008 55.4314 248.867 56.1333 248.727 56.9053C249.288 56.1333 249.85 55.5016 250.411 54.6594C250.482 54.7997 250.482 55.0103 250.482 55.1507C250.482 55.291 250.271 55.5016 250.341 55.5016C250.833 56.2035 250.271 56.6246 249.85 57.1159C249.569 57.4668 249.359 57.888 249.288 58.3091L251.254 57.3265C251.113 57.7476 251.043 57.888 250.903 58.1687C251.464 57.9581 251.956 57.8178 252.447 57.6072C252.236 57.4668 252.166 57.3967 252.026 57.3265C253.359 55.4314 255.605 56.1333 256.447 57.3967C257.009 58.3091 257.29 59.4321 257.009 60.6954ZM247.323 56.2035C247.253 56.3439 247.113 56.414 247.042 56.5544C246.972 56.6246 247.042 56.6948 247.042 56.8352C247.253 56.6948 247.534 56.5544 247.323 56.2035Z" fill="#FFD206"/>
<path d="M263.396 69.9603L263.045 70.241C262.413 70.0304 262.413 69.5391 262.413 69.0478C262.484 67.5037 262.063 66.0298 261.29 64.6962C260.729 63.7838 260.097 62.9416 259.395 62.0291C259.115 61.608 258.764 61.2571 258.483 60.9061C257.571 59.8533 257.571 58.6601 258.202 57.467C258.272 57.3968 258.343 57.3266 258.343 57.3266C258.553 55.993 259.606 55.3614 260.659 54.8701C262.203 54.1682 263.817 53.6769 265.432 53.1154C265.502 53.0452 265.642 53.1154 265.782 53.1154C265.01 53.8874 264.028 54.1682 263.256 54.7999C264.098 54.5191 265.01 54.2384 265.853 53.8874C265.993 53.8172 266.063 53.7471 266.204 53.6769C267.607 53.3961 268.239 52.2731 268.73 51.08L269.151 50.6588C269.081 50.5886 269.081 50.5886 269.081 50.5886C268.941 50.6588 268.871 50.729 268.73 50.729C268.941 50.2377 269.151 49.6762 269.362 49.2551C271.117 45.9563 272.871 42.7277 274.696 39.4289C274.907 39.078 275.117 38.8674 275.328 38.4463C275.538 38.7972 275.749 39.0078 275.889 39.2885C276.1 39.078 276.24 38.8674 276.451 38.6569C277.012 38.8674 277.504 39.2183 277.434 39.85C277.363 40.3413 277.223 40.8326 277.012 41.1836C276.311 42.3768 275.538 43.4998 274.837 44.6929C273.714 46.7284 272.731 48.7638 271.678 50.7992C271.538 51.08 271.397 51.4309 271.257 51.7818C271.889 51.852 272.38 51.9222 272.942 52.0626C274.626 52.2731 275.679 53.3259 276.591 54.5893C276.661 54.7297 276.732 54.87 276.732 55.0104C276.732 55.221 276.661 55.3614 276.661 55.5719C276.661 55.7825 276.732 55.9229 276.802 56.0632C276.381 56.4844 276.03 56.5545 275.609 56.2036C275.398 56.0632 275.258 55.993 275.047 56.0632C274.837 56.1334 274.556 55.8527 274.415 55.6421C274.065 55.0806 273.573 54.8701 272.942 54.9402C271.889 55.0104 270.836 55.1508 269.643 55.221C268.941 56.9757 268.309 58.59 267.678 60.2744C266.625 63.1521 265.642 66.1 265.151 69.118C265.081 69.3988 265.01 69.6795 264.87 69.9603C264.589 70.6621 264.098 70.7323 263.536 70.241C263.536 70.1708 263.466 70.0304 263.396 69.9603ZM259.045 58.6602C258.553 59.1515 258.904 59.4322 259.185 59.7831C259.255 59.4322 259.395 59.0111 259.045 58.6602ZM266.274 56.2738C263.887 56.6949 261.22 57.9583 260.589 59.0813C261.641 60.5552 262.764 62.0291 263.887 63.5031L266.274 56.2738Z" fill="#FFD206"/>
</svg>
