<svg width="24" height="25" viewBox="0 0 24 25" fill="none" xmlns="http://www.w3.org/2000/svg">
<g clip-path="url(#clip0_1401_6696)">
<path fill-rule="evenodd" clip-rule="evenodd" d="M16 3.95508C18.7614 3.95508 21 6.19366 21 8.95508V16.9551C21 19.7165 18.7614 21.9551 16 21.9551H8C5.23858 21.9551 3 19.7165 3 16.9551V8.95508C3 6.19366 5.23858 3.95508 8 3.95508H16ZM16 5.95508H8C6.34315 5.95508 5 7.29823 5 8.95508V16.9551C5 18.612 6.34315 19.9551 8 19.9551H16C17.6569 19.9551 19 18.612 19 16.9551V8.95508C19 7.29823 17.6569 5.95508 16 5.95508ZM12 8.95508C14.2091 8.95508 16 10.7459 16 12.9551C16 15.1642 14.2091 16.9551 12 16.9551C9.79086 16.9551 8 15.1642 8 12.9551C8 10.7459 9.79086 8.95508 12 8.95508ZM12 10.9551C10.8954 10.9551 10 11.8505 10 12.9551C10 14.0597 10.8954 14.9551 12 14.9551C13.1046 14.9551 14 14.0597 14 12.9551C14 11.8505 13.1046 10.9551 12 10.9551ZM16.5 7.45508C17.0523 7.45508 17.5 7.9028 17.5 8.45508C17.5 9.00736 17.0523 9.45508 16.5 9.45508C15.9477 9.45508 15.5 9.00736 15.5 8.45508C15.5 7.9028 15.9477 7.45508 16.5 7.45508Z" fill="black" fill-opacity="0.8"/>
</g>
<defs>
<clipPath id="clip0_1401_6696">
<rect width="24" height="24" fill="white" transform="translate(0 0.955078)"/>
</clipPath>
</defs>
</svg>
