<svg width="319" height="94" viewBox="0 0 319 94" fill="none" xmlns="http://www.w3.org/2000/svg">
<path d="M25.6184 24.4252C30.8824 25.5482 33.5495 28.0749 33.5495 31.9352C33.5495 34.3216 32.4265 36.357 30.1103 37.9713C27.7942 39.5856 24.7761 40.4278 21.0562 40.4278C17.6872 40.4278 15.0201 39.4452 13.0549 37.5502C11.0195 35.6551 9.96667 33.4091 9.89648 30.8824H11.3002C11.4406 32.7774 12.2828 34.6023 13.9673 36.2868C15.5816 37.9713 17.8978 38.8135 20.8457 38.8135C23.6531 38.8135 25.6184 38.1117 26.8817 36.7781C28.1451 35.3744 28.7768 33.7601 28.7768 31.7948C28.7768 29.97 28.2153 28.4258 27.0221 27.2327C25.8289 26.0395 24.2146 25.478 22.1792 25.478H18.9506V24.0041H22.0388C23.8637 24.0041 25.2674 23.4426 26.2501 22.3898C27.2327 21.2668 27.6538 19.863 27.6538 18.1083C27.6538 16.3537 27.1625 14.8096 26.2501 13.476C25.3376 12.1425 23.7233 11.5108 21.4773 11.5108C16.4239 11.5108 13.2655 14.4586 12.1425 20.4245H10.8089L11.3002 9.89647H12.4934L13.8971 12.7039C16.2835 10.8089 18.9506 9.89647 21.8985 9.89647C23.8637 9.89647 25.6886 10.2474 27.3731 10.8791C29.0575 11.581 30.3209 12.4934 31.093 13.7568C31.865 15.0201 32.2861 16.2835 32.2861 17.617C32.2861 20.7053 30.1103 23.0214 25.6184 24.4252Z" fill="black" fill-opacity="0.8"/>
<path d="M38.7434 10.3878H62.1157L62.6772 20.3543H61.3436C60.7821 17.1959 59.9399 15.0201 58.8169 13.7568C57.6939 12.4934 56.1498 11.8617 54.3249 11.8617H48.5696C48.0783 11.8617 47.7273 12.0021 47.5168 12.2126C47.3062 12.4934 47.1658 12.8443 47.1658 13.3356V23.8637H49.6926C51.0261 23.8637 52.1491 23.3724 52.9914 22.3898C53.8336 21.4071 54.2547 19.9332 54.3249 17.8978H55.7287V31.5843H54.3249C54.2547 29.3383 53.7634 27.724 52.9212 26.7414C52.0789 25.7587 50.8858 25.2674 49.4118 25.2674H47.0957V36.9887C47.0957 37.4098 47.236 37.7607 47.5168 37.9713C47.7975 38.1818 48.2888 38.3222 48.9205 38.3222H53.4827C58.466 38.3222 61.2734 35.1638 62.0455 28.847H63.4492L62.9579 39.8663H38.7434V38.3924H40.7788C41.5509 38.3924 42.1124 38.252 42.4633 37.9713C42.8143 37.6905 42.9546 37.2694 42.9546 36.7781V13.4058C42.9546 12.9145 42.8143 12.4934 42.5335 12.2828C42.2528 12.0021 41.8316 11.9319 41.2 11.9319H38.8136V10.3878H38.7434Z" fill="black" fill-opacity="0.8"/>
<path d="M67.52 10.3878H77.3462L86.1898 33.6899L94.3315 10.3878H104.368V11.8617H101.912C101.069 11.8617 100.438 12.0021 100.157 12.2126C99.8762 12.4934 99.7359 12.9145 99.7359 13.5462V36.9185C99.7359 37.4098 99.9464 37.7607 100.297 37.9713C100.648 38.252 101.28 38.3222 102.122 38.3222H104.368V39.7962H90.8923V38.3222H93.419C94.1209 38.3222 94.6824 38.1818 95.0333 37.9011C95.3843 37.6204 95.5246 37.2694 95.5246 36.8483V11.8617L85.7686 39.8663H84.4351L73.907 12.0021V33.4091C73.907 34.6725 74.0474 35.6551 74.3983 36.2868C74.7493 36.9185 75.1704 37.4098 75.7319 37.7607C76.2934 38.1117 77.276 38.3222 78.6798 38.3924V39.8663H67.52V38.3924C69.3449 38.252 70.6083 37.9011 71.2399 37.1992C71.8716 36.5675 72.2226 35.3744 72.2226 33.6899V13.3356C72.2226 12.8443 72.0822 12.4934 71.7312 12.2126C71.4505 12.0021 70.889 11.8617 70.0468 11.8617H67.52V10.3878Z" fill="black" fill-opacity="0.8"/>
<path d="M108.018 10.3878H121.704V11.8617H118.406C117.914 11.8617 117.493 12.0021 117.283 12.2828C117.002 12.5636 116.932 12.9847 116.932 13.5462V36.8483C116.932 37.4098 117.072 37.8309 117.423 38.0415C117.704 38.252 118.335 38.3924 119.318 38.3924H123.459C125.635 38.3924 127.46 37.6905 128.863 36.2166C130.267 34.7427 131.25 32.216 131.952 28.5662H133.355L132.653 39.9365H108.088V38.4626H110.474C111.317 38.4626 111.878 38.3222 112.229 37.9713C112.58 37.6203 112.72 37.129 112.72 36.4974V13.3356C112.72 12.8443 112.58 12.4934 112.299 12.2126C112.018 11.9319 111.597 11.8617 111.036 11.8617H108.018V10.3878Z" fill="black" fill-opacity="0.8"/>
<path d="M136.795 10.3878H150.411V11.8617H148.095C147.042 11.8617 146.41 12.0021 146.13 12.2828C145.849 12.5636 145.708 13.1251 145.708 13.8971V36.2166C145.708 37.129 145.849 37.6905 146.059 37.9011C146.41 38.1818 146.972 38.3924 147.814 38.3924H150.411V39.8663H136.795V38.3924H139.392C140.304 38.3924 140.866 38.252 141.146 37.9713C141.427 37.6905 141.567 37.129 141.567 36.2166V13.8971C141.567 13.0549 141.427 12.4934 141.216 12.353C140.866 12.0723 140.164 11.8617 139.181 11.8617H136.865V10.3878H136.795Z" fill="black" fill-opacity="0.8"/>
<path d="M167.466 9.7561H168.8L179.398 36.7079C179.819 37.8309 180.662 38.3222 181.995 38.3222H182.908V39.7962H171.116V38.3222H172.029C173.222 38.3222 174.134 38.1818 174.626 37.9011C174.976 37.6905 175.117 37.4098 175.117 37.0589C175.117 36.8483 175.047 36.5675 174.976 36.357L172.52 30.1103H160.869L159.465 33.6899C159.114 34.6725 158.904 35.3744 158.904 35.9359C158.904 36.5675 159.184 37.129 159.816 37.6203C160.448 38.1117 161.29 38.3222 162.483 38.3222H163.466V39.7962H152.797V38.3222C153.92 38.3222 154.833 38.0415 155.535 37.5502C156.166 37.0589 156.798 36.0762 157.36 34.7427L167.466 9.7561ZM166.905 15.4413L161.641 28.5662H172.029L166.905 15.4413Z" fill="black" fill-opacity="0.8"/>
<path d="M207.613 12.6338L209.017 9.7561H210.28L210.772 21.6177H209.438C208.596 18.2487 207.473 15.7922 206.139 14.2481C204.525 12.2828 202.49 11.3002 200.244 11.3002C197.787 11.3002 195.752 12.4232 194.208 14.599C192.663 16.7748 191.891 20.5649 191.891 25.8289C191.891 30.2507 192.804 33.6197 194.558 35.9359C196.103 37.9011 198.208 38.8837 200.945 38.8837C203.332 38.8837 205.367 38.1117 206.982 36.5675C208.596 35.0234 209.649 32.7073 210.14 29.619H211.544C211.123 33.1284 209.929 35.7955 207.964 37.6905C205.999 39.5856 203.472 40.498 200.454 40.498C197.998 40.498 195.752 39.8663 193.716 38.6731C191.681 37.4098 189.996 35.6551 188.803 33.3389C187.54 31.0228 186.978 28.496 186.978 25.6885C186.978 22.7407 187.61 20.0034 188.873 17.4065C190.137 14.8096 191.751 12.9145 193.716 11.581C195.681 10.3176 197.857 9.61572 200.103 9.61572C201.367 9.61572 202.63 9.82628 203.823 10.2474C204.876 10.8089 206.21 11.581 207.613 12.6338Z" fill="black" fill-opacity="0.8"/>
<path d="M216.738 10.3878H229.371V11.8617H227.055C226.213 11.8617 225.722 12.0021 225.441 12.2828C225.16 12.5636 225.09 13.2655 225.09 14.3884V23.5128H238.566V14.3884C238.566 13.2655 238.425 12.5636 238.215 12.2828C238.004 12.0021 237.443 11.8617 236.601 11.8617H234.425V10.3878H246.918V11.8617H244.602C244.04 11.8617 243.619 11.9319 243.409 12.0723C243.198 12.2126 242.988 12.4934 242.847 12.8443C242.777 13.0549 242.707 13.6866 242.707 14.599V35.7955C242.707 36.8483 242.777 37.4098 242.988 37.6203C243.339 38.0415 243.97 38.3222 244.883 38.3222H246.918V39.7962H234.425V38.3222H236.601C237.443 38.3222 238.004 38.1117 238.355 37.6203C238.496 37.3396 238.636 36.7079 238.636 35.6551V25.4078H225.16V35.7955C225.16 36.8483 225.23 37.48 225.371 37.6905C225.722 38.1117 226.283 38.3222 227.055 38.3222H229.371V39.7962H216.738V38.3222H219.124C219.545 38.3222 219.896 38.252 220.107 38.0415C220.387 37.9011 220.528 37.6203 220.668 37.2694C220.738 37.0589 220.738 36.4974 220.738 35.5849V14.3884C220.738 13.2655 220.598 12.5636 220.387 12.2828C220.107 12.0021 219.615 11.8617 218.773 11.8617H216.667V10.3878H216.738Z" fill="black" fill-opacity="0.8"/>
<path d="M251.761 10.3878H265.237V11.8617H262.359C261.728 11.8617 261.306 12.0021 260.955 12.353C260.605 12.704 260.464 13.0549 260.464 13.5462V27.2327L271.554 15.3711C272.185 14.6692 272.536 14.0375 272.536 13.4058C272.536 12.9145 272.326 12.5636 271.905 12.2828C271.484 12.0021 270.782 11.8617 269.729 11.8617H268.887V10.3878H280.959V11.8617H280.046C279.204 11.8617 278.362 12.0723 277.379 12.5636C276.397 13.0549 275.484 13.6866 274.712 14.5288L267.904 21.6879L277.66 36.0762C278.221 36.9185 278.783 37.48 279.344 37.8309C279.906 38.1818 280.608 38.3222 281.45 38.3222H282.503V39.7962H269.238V38.3222H270.782C271.905 38.3222 272.607 38.252 272.957 38.0415C273.308 37.8309 273.519 37.6204 273.519 37.3396C273.519 37.0589 273.449 36.8483 273.308 36.5675L265.167 24.6358L260.534 29.619V36.8483C260.534 37.2694 260.675 37.6204 260.955 37.8309C261.377 38.1818 261.868 38.3222 262.5 38.3222H265.377V39.7962H251.901V38.3222H254.498C255.13 38.3222 255.621 38.1818 255.972 37.9011C256.323 37.6204 256.464 37.2694 256.464 36.8483V13.3356C256.464 12.8443 256.253 12.4934 255.902 12.2828C255.551 12.0021 254.919 11.8617 254.077 11.8617H251.901V10.3878H251.761Z" fill="black" fill-opacity="0.8"/>
<path d="M282.924 10.3878H295.838V11.8617H294.435C293.241 11.8617 292.469 11.9319 292.118 12.1425C291.768 12.353 291.557 12.5636 291.557 12.9145C291.557 13.2655 291.627 13.5462 291.838 13.827L299.348 25.478L304.752 15.5816C304.963 15.1605 305.103 14.6692 305.103 14.1779C305.103 13.476 304.892 12.9145 304.401 12.4934C303.98 12.0723 303.278 11.8617 302.436 11.8617H301.032V10.3878H312.262V11.8617C310.999 11.8617 309.946 12.0723 309.244 12.5636C308.472 12.9847 307.77 13.8971 307.068 15.0903L300.26 27.5836V36.9185C300.26 37.4098 300.401 37.7607 300.681 37.9713C301.032 38.252 301.664 38.3924 302.366 38.3924H304.892V39.8663H291.346V38.3924H294.013C294.715 38.3924 295.277 38.252 295.558 37.9713C295.838 37.6905 296.049 37.3396 296.049 36.9185V27.7942L286.925 13.5462C286.503 12.9145 286.082 12.4934 285.521 12.2828C284.959 12.0723 284.117 11.9319 282.854 11.8617V10.3878H282.924Z" fill="black" fill-opacity="0.8"/>
<path d="M33.5496 88.8569C31.7247 88.2954 30.5315 86.9618 29.8999 85.2071C29.4086 83.8736 29.198 82.3997 29.1278 80.9257C28.9874 79.1009 29.0576 77.2058 29.3384 75.381C30.1104 70.3977 31.3738 65.5548 33.1285 60.8522C33.69 59.4485 34.2515 58.1149 34.8831 56.7112C35.5148 55.0969 36.0763 53.4124 36.8484 51.8683C39.5857 45.9726 42.6037 40.1471 46.1833 34.7427C47.0957 33.4091 48.0783 32.1457 49.0609 30.8824C49.5522 30.2507 50.1839 29.7594 50.8156 29.1979C51.0963 28.9171 51.5175 28.7768 51.7982 28.6364C52.2193 28.847 52.5703 28.9873 52.9914 29.1979C52.7808 29.8296 52.2193 30.1103 51.728 30.3209C51.1665 30.5314 50.6752 30.8122 50.4647 31.3737C50.8156 31.5843 51.0262 31.5141 51.3069 31.2333C52.079 30.5314 53.0616 30.1805 54.1144 30.0401C54.0442 30.3911 53.974 30.6718 53.974 31.0228C52.7808 31.5141 51.728 32.2159 51.0262 33.3389C50.7454 33.8302 50.3243 34.1812 49.9032 34.6725C49.482 34.1812 50.2541 33.4793 49.4119 33.1284L48.4292 34.6023C48.8504 35.3042 48.1485 35.7955 48.0081 36.5675L48.9205 35.7955C48.9907 35.7955 49.0609 35.8657 49.0609 35.8657C48.4994 36.6377 48.0081 37.48 47.5168 38.252C47.0255 39.0241 46.5342 39.7259 46.1131 40.498C44.3584 43.6564 42.6739 46.885 40.849 49.9732C40.0068 51.4472 39.5155 53.0615 38.8136 54.6056C36.3571 60.01 34.3216 65.625 32.9881 71.4505C32.2862 74.3983 31.8651 77.3462 32.0757 80.3642C32.1458 81.4872 32.4266 82.6102 32.6372 83.7332C32.7073 84.1543 32.9179 84.5053 33.0583 84.8562C33.5496 85.8388 34.2515 86.3301 35.3745 86.1898C37.2695 86.0494 38.954 85.4177 40.5683 84.5053C43.5161 82.891 46.0429 80.7152 48.4292 78.4692C53.1318 73.907 57.2728 68.8536 60.9927 63.4492C62.3965 61.4137 63.73 59.3081 65.1337 57.2025C65.4847 56.7112 65.6952 56.2199 65.8356 55.6584C67.0288 51.8683 68.2922 48.0782 70.117 44.5689C70.468 43.867 70.8891 43.1651 71.3804 42.4632C71.591 42.1825 71.8717 41.9719 72.0121 41.8316C72.5034 41.9017 72.9245 41.9017 73.3456 41.9719C73.5562 42.1825 73.8369 42.3931 74.1177 42.6738C74.7494 43.5862 74.609 44.5689 74.3282 45.4813C73.6264 47.7273 72.7139 49.8329 71.5208 51.8683C71.1698 52.4298 71.0295 52.9913 70.7487 53.5528C69.9767 55.0267 69.0642 56.5708 68.2922 58.0448C68.0114 58.5361 67.8009 58.9572 67.6605 59.5187C66.9586 61.8349 66.3269 64.2212 65.6251 66.6076C65.4847 67.1691 65.4145 67.6604 65.2741 68.1517C65.2039 68.2921 65.1337 68.5026 65.0636 68.643V68.0815C64.5722 69.2747 64.0108 70.4679 64.5021 71.9418C64.0809 73.8368 63.8704 75.8723 63.9406 77.9779C64.0107 79.2412 64.2213 80.3642 65.0636 81.3469C65.1337 81.417 65.2039 81.5574 65.2741 81.6276L65.3443 81.9083C65.1337 81.8382 64.9232 81.768 64.5722 81.6978C64.9934 82.1891 65.2741 82.54 65.4847 82.891C64.9232 83.4525 64.4319 83.5226 63.9406 82.891C63.5194 82.3997 63.0281 82.1189 62.4666 81.9785C61.6244 80.8555 61.484 79.522 61.4138 78.1884C61.3436 77.0654 61.3436 76.0126 61.6946 74.8896C61.9051 74.1878 61.9051 73.4157 61.9051 72.7138C61.9753 70.6784 62.4666 68.7132 62.8878 66.7479C62.9579 66.4672 62.958 66.1865 63.0281 65.8355C62.3965 66.2566 61.5542 67.3796 61.2033 68.0113C60.6418 68.9939 60.1505 70.0467 59.4486 70.9592C58.5362 72.1523 57.6237 73.4859 56.4306 74.4685C56.1498 74.6791 56.0094 74.9598 55.7989 75.2406C54.3951 77.276 52.6405 79.0307 50.8858 80.7152C48.6398 82.891 46.3236 84.9264 43.7267 86.6109C42.1826 87.5935 40.5683 88.4357 38.7434 88.927C36.9186 89.4885 35.1639 89.3482 33.5496 88.8569ZM30.6017 74.6089C29.97 77.1356 29.8297 79.6624 30.1104 82.4698C30.2508 79.6624 30.4614 77.1356 30.6017 74.6089ZM41.5509 45.762C41.6913 46.0428 41.7615 46.113 41.9018 46.3937C42.1826 45.762 42.4633 45.3409 42.6037 44.8496C42.9546 43.3757 43.6565 42.1123 44.218 40.7086C44.4286 40.2874 44.5689 39.7961 44.7093 39.3048C44.9199 39.0943 45.1304 38.9539 45.2006 38.7433C45.4814 37.9713 45.9727 37.4098 46.3236 36.7781C46.464 36.6377 46.3938 36.4272 46.464 36.1464C45.0603 37.3396 43.6565 39.2346 43.5161 40.1471C43.7267 40.0067 43.8671 39.9365 44.0075 39.8663C43.7969 40.2173 43.6565 40.5682 43.5161 40.9191C43.1652 41.621 42.7441 42.3229 42.4633 43.0949C42.0422 44.0074 41.6913 44.9198 41.2702 45.8322C41.1298 46.1832 40.9192 46.5341 40.7788 46.885C40.849 46.9552 40.849 46.9552 40.9192 46.9552L41.5509 45.762Z" fill="#1D5EAA"/>
<path d="M90.8221 39.0943C90.1203 39.6558 89.9097 40.498 89.5588 41.2701C88.7165 43.2353 87.8041 45.2005 86.9618 47.1658C86.5407 48.008 86.0494 48.9204 85.6283 49.7627C85.4879 49.9031 85.3475 50.0434 85.137 50.254C85.2072 51.1664 84.8562 52.0789 84.4351 52.9913L81.2065 59.7994C81.0661 60.0802 80.9258 60.3609 80.7854 60.7119C81.2065 60.7119 81.5574 60.6417 81.8382 60.7821C82.7506 61.133 83.8034 61.3435 84.7159 61.7647C85.3475 62.1156 85.7687 62.7473 85.7687 63.6597C85.6283 64.8529 85.2774 65.9057 84.5053 66.7479C83.5227 67.8008 82.3997 68.5728 81.0661 69.1343C80.8556 69.2045 80.645 69.2747 80.3643 69.4151C80.8556 70.1871 81.2767 70.889 81.768 71.5909C83.1718 73.3455 84.6457 75.03 86.1196 76.7145C86.5407 77.2058 87.032 77.6971 86.7513 78.4692C86.5407 79.1009 86.1196 79.3816 85.4879 79.1009C85.137 78.8903 84.8562 78.6797 84.4351 78.8201C84.2947 78.8903 84.014 78.6096 83.8736 78.4692C83.4525 77.9779 83.0314 77.4866 82.6103 76.9953C82.0488 76.4338 81.768 75.6617 81.0661 75.1704C80.996 75.1002 80.8556 74.9598 80.8556 74.8195C80.7152 74.0474 80.2239 73.4859 79.7326 72.9244C79.3816 72.5033 79.2413 71.9418 78.6096 71.8716C78.4692 71.8716 78.399 71.661 78.3288 71.5207C78.0481 71.0294 77.7673 70.538 77.5568 70.0467C77.3462 69.5554 77.2059 68.9939 77.0655 68.3623C76.8549 68.7834 76.5742 69.0641 76.4338 69.4151C76.0127 71.0294 75.1704 72.3629 74.3984 73.8368C74.1176 74.3983 73.7667 74.8896 73.6965 75.5213C73.5561 76.2934 73.2754 76.4338 72.4331 76.2934L72.6437 75.4511L71.4505 76.153C71.1698 75.4511 71.0996 74.8896 71.5207 74.1878C72.012 73.4157 72.2928 72.5033 72.5735 71.5909C72.7841 70.889 73.2052 70.1871 73.4859 69.4852C73.6263 69.1343 73.6965 68.8536 73.8369 68.5026C74.1878 67.9411 74.1176 67.6604 73.6263 67.0287C73.8369 66.2566 74.258 65.625 74.8897 65.0635C75.8723 64.2212 76.4338 63.1684 76.9953 62.0454C79.3115 57.0621 81.6978 52.149 84.014 47.1658C85.2774 44.4285 86.4705 41.621 87.6637 38.8135C87.9445 38.1116 88.3656 37.48 88.7165 36.7781C89.3482 36.9887 88.9973 37.5501 89.278 37.8309C89.4886 37.5501 89.7693 37.2694 90.0501 36.9185C90.1905 37.6203 89.5588 38.252 90.3308 38.8837C90.4712 38.8135 90.6818 38.8135 90.9625 38.7433C90.8221 38.8837 90.8923 39.0241 90.8221 39.0943ZM72.7841 74.8195C72.7139 74.8195 72.6437 74.7493 72.5735 74.7493V75.1704C72.6437 75.1002 72.7139 74.9598 72.7841 74.8195ZM79.3115 64.6423C78.6096 64.9933 78.2587 65.4846 78.1183 66.2566C79.4518 66.397 81.4873 65.274 82.5401 63.6597C81.3469 63.8001 80.2941 64.151 79.3115 64.6423Z" fill="#1D5EAA"/>
<path d="M101.561 65.6951C101.561 66.5374 100.929 67.4498 100.017 67.7306C99.8763 67.52 99.6657 67.3095 99.5254 67.0287C99.4552 67.0287 99.385 66.9585 99.3148 66.9585C98.9639 66.8883 98.6129 67.3095 98.3322 66.8883C98.262 66.8181 98.0514 66.9585 97.9111 67.0287C97.4198 67.2393 96.9284 67.52 96.4371 67.8008C95.3141 68.4324 94.3315 69.2045 93.4191 70.1169V70.0467C93.0682 70.5381 92.7874 71.0294 92.4365 71.4505C91.9452 72.0822 91.3135 72.6437 90.752 73.2753C90.4011 73.6965 90.0501 74.1878 89.8396 74.6089C89.4184 75.5915 88.8569 76.4338 88.2954 77.3462L87.0321 76.6443C86.8917 76.0828 86.6811 75.5213 86.5408 74.8195C88.0147 70.7486 90.2607 66.8883 91.524 62.6069L92.647 63.1684C92.5769 63.379 92.5768 63.6597 92.5768 63.9405C92.9278 64.0107 93.2085 64.0808 93.6297 64.151C93.4191 64.9231 93.2787 65.625 93.0682 66.4672C93.3489 66.2566 93.5595 66.1163 93.6998 65.9759C94.9632 64.8529 96.5073 64.0809 98.1918 63.7299C98.6129 63.5895 99.0341 63.5895 99.4552 63.5895C99.6657 63.5895 99.8763 63.7299 100.017 63.9405C100.297 64.2212 100.438 64.5722 100.719 64.8529C100.859 64.9933 101.069 64.9231 101.28 64.9933C101.42 65.1337 101.561 65.3442 101.561 65.6951ZM93.3489 70.0467C93.2787 69.9064 93.2787 69.8362 93.2085 69.6958C92.2259 70.2573 91.524 71.0996 90.8222 71.8716C90.6818 72.012 90.6818 72.2927 90.5414 72.784C91.3837 71.8716 91.9452 71.0996 92.647 70.3977C92.8576 70.2573 93.1383 70.1871 93.3489 70.0467ZM99.8061 64.3616C99.2446 63.9405 98.8937 64.0808 98.4726 64.151C96.9986 64.502 95.5949 65.0635 94.1912 66.1163C96.1564 65.4846 97.9111 64.9231 99.8061 64.3616Z" fill="#1D5EAA"/>
<path d="M101.561 73.0648C101.28 73.4157 101.07 73.907 100.719 74.4685C101.561 73.9772 102.263 73.6263 102.894 73.135C105.211 71.3803 107.527 69.6256 109.913 67.8709L111.668 66.4672C111.878 66.3268 112.159 66.2566 112.37 66.1163L112.931 67.3094C113.422 67.1691 113.773 66.6778 114.265 67.0287C114.896 67.9411 114.616 68.8536 114.265 69.6958C114.054 70.2573 113.773 70.8188 113.493 71.3803L110.475 77.4164C110.334 77.6269 110.194 77.8375 110.054 78.1182C109.703 77.6971 109.983 77.3462 110.124 77.0654C110.334 76.6443 110.475 76.2232 110.685 75.8021C111.177 75.1704 111.527 74.4685 111.808 73.6965C111.317 74.3281 110.685 74.8896 110.685 75.8021C110.194 76.0126 110.054 76.5039 109.843 76.9251C109.562 77.4866 109.352 77.9779 109.001 78.6797L108.439 78.048C108.299 78.1182 108.158 78.1884 107.948 78.3288C107.808 78.1884 107.667 78.048 107.457 77.9077C107.667 77.276 108.018 76.7145 107.878 76.0126C107.808 75.8021 108.018 75.5915 108.158 75.3809L109.843 72.0822C109.913 71.8716 109.983 71.661 110.194 71.3101L107.106 73.4859C106.965 73.4859 106.895 73.4859 106.755 73.5561C106.404 73.4157 106.334 73.4859 106.053 73.9772C106.193 73.907 106.404 73.907 106.614 73.907C106.895 74.0474 107.106 73.8368 107.246 73.6263C107.597 73.4859 107.878 73.3455 108.369 73.2051C106.825 74.6089 105.211 75.6617 103.596 76.6443C102.754 77.2058 101.842 77.6269 100.929 78.048C99.8062 78.6095 98.6832 78.4692 97.6304 77.9779C97.0689 77.7673 96.8584 77.3462 96.9286 76.7145C96.9987 75.4511 97.3497 74.3281 97.9814 73.2753C98.7534 72.1523 99.5255 71.0293 100.438 69.9765C102.333 67.8007 104.439 65.8355 106.825 64.151C107.667 63.5895 108.65 63.1684 109.632 62.9578C110.054 62.8175 110.404 62.5367 110.826 62.3262C111.247 62.1156 111.668 61.8349 112.159 61.7647C112.931 61.5541 113.423 62.0454 113.914 62.6069C113.773 62.5367 113.633 62.4665 113.423 62.3963C113.352 62.6069 113.282 62.7473 113.282 63.028C113.633 63.0982 113.914 63.1684 114.195 63.1684C114.896 63.8703 115.107 64.6423 114.686 65.6249C113.914 65.9759 113.844 65.9759 113.352 65.274C113.212 65.3442 113.001 65.4144 112.861 65.5548C112.721 65.4144 112.58 65.3442 112.51 65.274C112.44 65.1336 112.37 65.0635 112.3 64.8529C111.808 65.0635 111.387 65.2038 110.966 65.4846C109.632 66.3268 108.229 67.2393 106.895 68.1517C106.123 68.643 105.491 69.2045 104.719 69.6958C103.456 70.4679 102.614 71.8014 101.561 73.0648ZM100.227 76.2934C100.017 76.3636 99.8062 76.4338 99.5957 76.4338C100.157 76.6443 100.298 76.5741 100.227 76.2934ZM100.929 75.7319C101.14 75.8021 101.28 75.8723 101.421 75.9424C101.491 75.8021 101.561 75.6617 101.771 75.3809L100.929 75.7319ZM105.702 73.9772C105.772 74.0474 105.772 74.0474 105.772 74.1176L105.983 73.8368L105.702 73.9772Z" fill="#1D5EAA"/>
<path d="M116.37 76.9251C115.949 75.8723 116.09 74.8195 116.16 73.7667C116.37 71.3101 117.423 69.1343 118.616 66.9585C118.897 66.4672 119.037 66.0461 119.318 65.5548C119.599 64.9933 119.95 64.502 120.371 64.0808C120.511 64.2212 121.073 64.3616 121.213 64.502C120.862 64.8529 120.511 65.0635 120.02 65.4846L120.441 65.7653C120.582 65.625 120.722 65.4846 120.862 65.3442C121.003 65.1336 121.354 65.4144 121.424 65.1337C121.564 64.9231 121.705 64.7827 121.915 64.9231C122.126 65.5548 122.126 65.7653 121.634 66.1163C121.424 66.3268 121.283 66.4672 121.143 66.748C120.862 67.1691 120.652 67.5902 120.371 68.0113L120.231 67.5902C119.739 68.643 119.248 69.5554 118.827 70.5381C118.686 70.889 118.757 71.3101 118.757 71.661C118.757 71.8014 118.827 72.012 118.757 72.0822C118.476 72.7138 118.476 73.4157 118.406 74.1176C118.265 74.9598 118.406 75.8723 118.687 76.7145C118.687 76.8549 118.757 76.9251 118.827 77.0654C119.318 76.9953 119.669 76.8549 119.88 76.4338C119.739 76.3636 119.669 76.3636 119.669 76.3636L120.722 75.4511C121.003 75.7319 120.371 75.8021 120.371 76.153C120.792 76.2934 121.213 76.2934 121.705 76.2232C121.424 76.5039 121.283 76.7847 121.143 76.9953C120.722 77.3462 120.231 77.6269 119.88 77.9779C119.739 78.0481 119.669 78.1182 119.599 78.1884C118.336 78.8201 116.932 78.399 116.37 76.9251ZM122.055 61.3436C121.845 61.3436 121.705 61.4839 121.634 61.4137C121.494 61.3436 121.354 61.133 121.354 60.9926C121.424 60.2907 121.564 59.6591 122.126 59.1678C122.687 59.2379 122.898 59.5889 123.038 60.1504C123.249 59.7292 123.529 59.5889 123.88 59.7994C123.951 60.1504 124.161 60.4311 124.021 60.7821C123.74 61.2734 123.389 61.5541 123.038 61.8349C122.687 62.1156 122.336 61.905 122.055 61.3436Z" fill="#1D5EAA"/>
<path d="M136.935 69.6958C136.303 72.1524 135.672 74.5387 135.04 76.9953L134.619 78.6797C134.549 79.0307 134.478 79.3816 134.549 79.6624C134.759 80.3642 134.549 80.9257 133.987 81.4872C133.566 81.6978 133.005 81.8382 132.583 81.2767C132.443 81.1363 132.303 81.0661 132.162 80.9959C131.46 80.645 131.32 80.3642 131.46 79.6624L132.373 75.8021C132.654 74.7493 132.934 73.6965 133.215 72.6437C133.355 72.012 133.426 71.3803 133.917 70.8188C134.057 70.7486 134.128 70.5381 134.128 70.3977C134.268 69.9766 134.408 69.5554 134.478 69.1343C134.549 68.7132 134.408 68.3623 134.408 68.0113C133.777 67.8709 133.285 68.0815 132.864 68.2921C129.916 69.6256 127.319 71.5909 125.214 74.0474C125.003 74.258 124.793 74.5387 124.512 74.6791C123.95 74.8897 123.67 74.6089 123.74 74.0474C123.88 73.3455 124.021 72.6437 124.231 71.8716C124.582 70.3977 125.354 68.9939 126.056 67.6604L127.039 65.8355C126.968 65.8355 126.828 65.9057 126.618 65.9057C127.249 64.7125 127.881 63.4492 128.864 62.3964C129.074 62.6069 129.214 62.6771 129.425 62.9579C129.074 63.2386 128.793 63.5194 128.513 63.8001C128.934 64.4318 128.793 65.1337 128.653 65.9057C129.214 65.1337 129.776 64.502 130.337 63.6597C130.408 63.8001 130.408 64.0107 130.408 64.151C130.408 64.2914 130.197 64.502 130.267 64.502C130.759 65.2038 130.197 65.625 129.776 66.1163C129.495 66.4672 129.285 66.8883 129.214 67.3095L131.18 66.3268C131.039 66.748 130.969 66.8883 130.829 67.1691C131.39 66.9585 131.882 66.8181 132.373 66.6076C132.162 66.4672 132.092 66.397 131.952 66.3268C133.285 64.4318 135.531 65.1337 136.374 66.397C136.935 67.3095 137.216 68.4324 136.935 69.6958ZM127.249 65.2038C127.179 65.3442 127.039 65.4144 126.968 65.5548C126.898 65.625 126.968 65.6952 126.968 65.8355C127.179 65.6952 127.46 65.5548 127.249 65.2038Z" fill="#1D5EAA"/>
<path d="M137.497 76.9251C137.075 75.8723 137.216 74.8195 137.286 73.7667C137.497 71.3101 138.549 69.1343 139.743 66.9585C140.023 66.4672 140.164 66.0461 140.444 65.5548C140.725 64.9933 141.076 64.502 141.497 64.0808C141.638 64.2212 142.199 64.3616 142.339 64.502C141.989 64.8529 141.638 65.0635 141.146 65.4846L141.567 65.7653C141.708 65.625 141.848 65.4846 141.989 65.3442C142.129 65.1336 142.48 65.4144 142.55 65.1337C142.69 64.9231 142.831 64.7827 143.041 64.9231C143.252 65.5548 143.252 65.7653 142.761 66.1163C142.55 66.3268 142.41 66.4672 142.269 66.748C141.989 67.1691 141.778 67.5902 141.497 68.0113L141.357 67.5902C140.866 68.643 140.374 69.5554 139.953 70.5381C139.813 70.889 139.883 71.3101 139.883 71.661C139.883 71.8014 139.953 72.012 139.883 72.0822C139.602 72.7138 139.602 73.4157 139.532 74.1176C139.392 74.9598 139.532 75.8723 139.813 76.7145C139.813 76.8549 139.883 76.9251 139.953 77.0654C140.444 76.9953 140.795 76.8549 141.006 76.4338C140.866 76.3636 140.795 76.3636 140.795 76.3636L141.848 75.4511C142.129 75.7319 141.497 75.8021 141.497 76.153C141.918 76.2934 142.339 76.2934 142.831 76.2232C142.55 76.5039 142.41 76.7847 142.269 76.9953C141.848 77.3462 141.357 77.6269 141.006 77.9779C140.866 78.0481 140.795 78.1182 140.725 78.1884C139.462 78.8201 138.058 78.399 137.497 76.9251ZM143.182 61.3436C142.971 61.3436 142.831 61.4839 142.761 61.4137C142.62 61.3436 142.48 61.133 142.48 60.9926C142.55 60.2907 142.69 59.6591 143.252 59.1678C143.813 59.2379 144.024 59.5889 144.164 60.1504C144.375 59.7292 144.656 59.5889 145.007 59.7994C145.077 60.1504 145.287 60.4311 145.147 60.7821C144.866 61.2734 144.515 61.5541 144.164 61.8349C143.813 62.1156 143.462 61.905 143.182 61.3436Z" fill="#1D5EAA"/>
<path d="M149.849 73.0648C149.569 73.4157 149.358 73.907 149.007 74.4685C149.849 73.9772 150.551 73.6263 151.183 73.135C153.499 71.3803 155.815 69.6256 158.202 67.8709L159.956 66.4672C160.167 66.3268 160.448 66.2566 160.658 66.1163L161.22 67.3094C161.711 67.1691 162.062 66.6778 162.553 67.0287C163.185 67.9411 162.904 68.8536 162.553 69.6958C162.343 70.2573 162.062 70.8188 161.781 71.3803L158.763 77.4164C158.623 77.6269 158.482 77.8375 158.342 78.1182C157.991 77.6971 158.272 77.3462 158.412 77.0654C158.623 76.6443 158.763 76.2232 158.974 75.8021C159.465 75.1704 159.816 74.4685 160.097 73.6965C159.605 74.3281 158.974 74.8896 158.974 75.8021C158.482 76.0126 158.342 76.5039 158.132 76.9251C157.851 77.4866 157.64 77.9779 157.289 78.6797L156.728 78.048C156.587 78.1182 156.447 78.1884 156.236 78.3288C156.096 78.1884 155.956 78.048 155.745 77.9077C155.956 77.276 156.307 76.7145 156.166 76.0126C156.096 75.8021 156.307 75.5915 156.447 75.3809L158.132 72.0822C158.202 71.8716 158.272 71.661 158.482 71.3101L155.394 73.4859C155.254 73.4859 155.184 73.4859 155.043 73.5561C154.692 73.4157 154.622 73.4859 154.341 73.9772C154.482 73.907 154.692 73.907 154.903 73.907C155.184 74.0474 155.394 73.8368 155.535 73.6263C155.886 73.4859 156.166 73.3455 156.658 73.2051C155.113 74.6089 153.499 75.6617 151.885 76.6443C151.043 77.2058 150.13 77.6269 149.218 78.048C148.095 78.6095 146.972 78.4692 145.919 77.9779C145.358 77.7673 145.147 77.3462 145.217 76.7145C145.287 75.4511 145.638 74.3281 146.27 73.2753C147.042 72.1523 147.814 71.0293 148.726 69.9765C150.622 67.8007 152.727 65.8355 155.114 64.151C155.956 63.5895 156.938 63.1684 157.921 62.9578C158.342 62.8175 158.693 62.5367 159.114 62.3262C159.535 62.1156 159.956 61.8349 160.448 61.7647C161.22 61.5541 161.711 62.0454 162.202 62.6069C162.062 62.5367 161.922 62.4665 161.711 62.3963C161.641 62.6069 161.571 62.7473 161.571 63.028C161.922 63.0982 162.202 63.1684 162.483 63.1684C163.185 63.8703 163.396 64.6423 162.974 65.6249C162.202 65.9759 162.132 65.9759 161.641 65.274C161.501 65.3442 161.29 65.4144 161.15 65.5548C161.009 65.4144 160.869 65.3442 160.799 65.274C160.728 65.1336 160.658 65.0635 160.588 64.8529C160.097 65.0635 159.676 65.2038 159.255 65.4846C157.921 66.3268 156.517 67.2393 155.184 68.1517C154.412 68.643 153.78 69.2045 153.008 69.6958C151.745 70.4679 150.832 71.8014 149.849 73.0648ZM148.516 76.2934C148.305 76.3636 148.095 76.4338 147.884 76.4338C148.446 76.6443 148.586 76.5741 148.516 76.2934ZM149.148 75.7319C149.358 75.8021 149.499 75.8723 149.639 75.9424C149.709 75.8021 149.779 75.6617 149.99 75.3809L149.148 75.7319ZM153.991 73.9772C154.061 74.0474 154.061 74.0474 154.061 74.1176L154.271 73.8368L153.991 73.9772Z" fill="#1D5EAA"/>
<path d="M178.205 69.6958C177.573 72.1524 176.942 74.5387 176.31 76.9953L175.889 78.6797C175.819 79.0307 175.748 79.3816 175.819 79.6624C176.029 80.3642 175.819 80.9257 175.257 81.4872C174.836 81.6978 174.275 81.8382 173.853 81.2767C173.713 81.1363 173.573 81.0661 173.432 80.9959C172.73 80.645 172.59 80.3642 172.73 79.6624L173.643 75.8021C173.924 74.7493 174.204 73.6965 174.485 72.6437C174.625 72.012 174.696 71.3803 175.187 70.8188C175.327 70.7486 175.398 70.5381 175.398 70.3977C175.538 69.9766 175.678 69.5554 175.748 69.1343C175.819 68.7132 175.678 68.3623 175.678 68.0113C175.047 67.8709 174.555 68.0815 174.134 68.2921C171.186 69.6256 168.589 71.5909 166.484 74.0474C166.273 74.258 166.063 74.5387 165.782 74.6791C165.22 74.8897 164.94 74.6089 165.01 74.0474C165.15 73.3455 165.291 72.6437 165.501 71.8716C165.852 70.3977 166.624 68.9939 167.326 67.6604L168.309 65.8355C168.238 65.8355 168.098 65.9057 167.888 65.9057C168.519 64.7125 169.151 63.4492 170.134 62.3964C170.344 62.6069 170.484 62.6771 170.695 62.9579C170.344 63.2386 170.063 63.5194 169.783 63.8001C170.204 64.4318 170.063 65.1337 169.923 65.9057C170.484 65.1337 171.046 64.502 171.607 63.6597C171.678 63.8001 171.678 64.0107 171.678 64.151C171.678 64.2914 171.467 64.502 171.537 64.502C172.029 65.2038 171.467 65.625 171.046 66.1163C170.765 66.4672 170.555 66.8883 170.484 67.3095L172.45 66.3268C172.309 66.748 172.239 66.8883 172.099 67.1691C172.66 66.9585 173.152 66.8181 173.643 66.6076C173.432 66.4672 173.362 66.397 173.222 66.3268C174.555 64.4318 176.801 65.1337 177.644 66.397C178.205 67.3095 178.556 68.4324 178.205 69.6958ZM168.519 65.2038C168.449 65.3442 168.309 65.4144 168.238 65.5548C168.168 65.625 168.238 65.6952 168.238 65.8355C168.519 65.6952 168.8 65.5548 168.519 65.2038Z" fill="#1D5EAA"/>
<path d="M288.75 36.2868C288.679 36.357 288.539 36.4272 288.399 36.4973C288.118 36.0762 287.907 35.7253 287.697 35.3743C287.627 35.4445 287.556 35.4445 287.556 35.4445C287.697 35.8657 287.837 36.2166 287.978 36.6377C287.556 36.9185 287.206 36.6377 287.065 36.357C286.433 35.234 285.381 34.9532 284.258 34.883C282.714 34.7427 281.169 34.6725 279.625 34.6023C277.59 34.5321 275.625 34.4619 273.659 34.3215C274.221 34.1812 274.712 34.0408 275.274 33.9706C275.204 33.8302 275.204 33.76 275.204 33.6899C273.168 33.76 271.133 33.8302 269.027 33.9004L269.448 34.5321C265.939 35.0234 262.57 35.0234 259.131 35.234H259.973V35.3042C251.129 36.0762 242.356 36.8483 233.442 37.6203C233.232 37.9713 232.74 38.1818 232.74 38.7433C232.74 38.8135 232.67 38.9539 232.6 38.9539C231.968 39.3048 231.758 40.0067 231.407 40.498C230.635 41.8316 229.933 43.2353 229.161 44.5688C229.02 44.7092 228.95 44.9198 228.95 45.0602C228.81 46.7446 227.968 48.0782 227.476 49.6223C226.494 52.6404 225.441 55.6584 224.178 58.6063L224.037 59.0274C224.739 58.9572 225.301 58.887 225.932 58.8168C227.125 58.6764 228.319 58.5361 229.582 58.3957C229.863 58.3255 230.214 58.3255 230.494 58.3957C231.056 58.3957 231.547 58.3957 232.039 58.2553C232.881 58.0448 233.793 57.9746 234.635 57.9746C235.197 58.0448 235.688 58.4659 236.46 58.7466C236.881 58.6764 237.513 58.5361 238.145 58.4659C239.198 58.3255 240.321 58.2553 241.373 58.1149C241.795 58.0448 242.145 57.9746 242.567 57.8342C244.181 57.8342 245.514 58.5361 246.708 59.5187C248.111 60.7119 247.971 62.256 246.848 63.5895C246.216 64.2914 245.655 64.151 245.163 63.4492L244.251 63.5895C244.462 63.1684 244.602 62.9578 244.742 62.6069C244.391 62.1858 244.462 61.6243 244.672 60.9926C244.111 60.9224 243.549 60.8522 242.988 60.8522C240.25 60.6417 237.443 60.8522 234.706 61.133C230.986 61.5541 227.196 61.905 223.476 62.3262C223.195 62.3964 222.984 62.3964 222.633 62.4665C222.283 63.3088 221.861 64.2212 221.51 65.0635C219.264 70.2573 217.089 75.3809 214.773 80.5748C214.211 81.8382 213.65 83.1717 213.018 84.4351C212.667 85.0668 212.316 85.6984 211.965 86.3301C211.684 86.6811 211.404 86.9618 211.053 87.1724C210.21 87.6637 210 87.5935 209.298 86.8214L207.964 86.6109C206.982 85.6283 206.631 84.2947 206.21 82.9611C206.14 82.7506 206.28 82.4698 206.35 82.2593C206.912 83.5226 206.982 84.9966 208.105 86.0494L206.701 81.9785C205.718 81.1363 205.789 79.8729 205.297 78.8201C203.894 75.9424 202.981 72.784 200.595 70.4679C200.174 70.0467 199.823 69.6256 199.542 69.2747C198.138 68.5026 196.805 67.8008 195.541 66.7479L195.892 65.0635C196.033 64.2212 196.594 63.7299 197.366 63.4492C198.419 63.1684 199.472 62.8877 200.525 62.6771C203.332 62.1156 206.21 61.6243 209.087 61.2032C210.07 61.0628 211.053 61.133 211.965 61.2734C213.018 61.3435 214 61.133 214.983 60.9224C216.457 60.6417 218.001 60.4311 219.475 60.2206C219.966 60.1504 220.387 60.01 220.879 59.9398C223.897 52.5702 226.774 45.2005 230.284 38.1116C230.143 38.0415 230.073 37.9011 230.073 37.9713C228.459 38.1116 226.845 38.1818 225.23 38.3924C223.756 38.5328 222.212 38.7433 220.738 38.9539C218.352 39.3048 215.966 39.6558 213.509 39.9365C212.597 40.0769 211.684 40.3576 210.702 40.0769L212.316 39.4452C210.14 39.2346 208.315 39.7961 206.35 40.1471C206.631 40.2874 206.771 40.3576 206.982 40.498C206.42 40.8489 205.859 40.9191 205.227 41.0595C204.104 41.2701 203.051 41.4806 201.928 41.7614C200.805 41.9719 199.612 42.1825 198.489 42.4632C196.664 43.0247 194.91 43.5862 193.085 44.2179C192.313 44.4987 191.611 44.99 190.839 45.3409C190.207 45.1303 190.207 45.1303 189.997 44.3583C190.418 44.0775 190.769 43.7968 191.19 43.516L190.909 43.1651C190.488 43.4459 190.137 43.6564 189.716 44.0074C189.365 43.5862 189.505 43.2353 189.926 43.0247C190.628 42.6036 191.33 42.2527 192.102 41.9017C192.593 41.6912 193.155 41.4806 193.646 41.2701C194.208 41.1297 194.769 40.9893 195.331 40.9191C195.962 40.7787 196.594 40.7787 197.226 40.6384C197.717 40.5682 198.208 40.4278 198.7 40.3576C199.823 40.2173 200.946 40.0067 202.069 39.7259C202.209 39.6558 202.42 39.6558 202.56 39.6558C203.192 39.6558 203.823 39.4452 204.385 39.0241L203.543 38.8837C203.894 38.6731 204.034 38.603 204.244 38.5328C205.929 38.1818 207.543 37.9011 209.228 37.6203C210.631 37.4098 212.105 37.0588 213.579 37.129C214.281 37.1992 214.983 36.9886 215.755 36.9185V36.9886C215.825 36.7079 216.106 36.5675 216.387 36.5675C216.878 36.4973 217.369 36.357 217.861 36.2868C220.879 35.8657 223.967 35.5147 226.985 35.234C227.687 35.0936 228.389 35.234 229.091 35.1638C230.143 35.0234 231.196 34.7427 232.319 34.6023C232.951 33.9706 233.302 33.0582 234.284 32.6371C234.846 33.1284 235.478 33.6197 236.32 34.2514C236.46 34.1812 236.881 34.1812 237.232 34.111C242.707 33.6197 248.182 33.1284 253.726 32.7072C259.201 32.2861 264.746 32.0054 270.29 31.6544C271.413 31.5842 272.607 31.5141 273.73 31.5141C275.133 31.5842 276.467 31.6544 277.871 31.7246C278.222 31.7948 278.573 31.9352 278.923 32.0054C279.274 32.0756 279.555 31.9352 280.046 31.865C279.625 31.6544 279.415 31.5842 279.134 31.5141V31.3737C279.976 31.3737 280.889 31.3035 281.731 31.4439C283.064 31.5141 284.468 31.5842 285.872 31.7246C286.855 31.7948 287.627 32.2159 288.188 32.988C288.469 33.3389 288.75 33.6197 288.96 33.9004C289.101 34.5321 289.311 35.5147 288.75 36.2868ZM219.335 63.028C217.018 63.3088 214.913 63.5895 212.807 63.8703C212.667 63.6597 212.597 63.5895 212.527 63.379C211.825 63.5193 211.123 63.6597 210.351 63.8001C208.877 64.0107 207.333 64.2212 205.859 64.3616C205.227 64.4318 204.666 64.4318 204.034 64.5721C202.42 64.9231 200.805 65.274 199.261 65.625C199.051 65.6951 198.91 65.8355 198.77 65.9057C198.98 66.0461 199.121 66.0461 199.261 66.0461C199.682 65.9057 200.033 65.7653 200.384 65.6951C201.507 65.4144 202.7 65.2038 203.823 64.9933C204.034 64.9231 204.174 64.9933 204.315 64.9933V65.1336C202.771 65.5548 201.226 65.9759 199.402 66.397C199.893 66.7479 200.244 66.9585 200.525 67.1691C201.437 67.8007 202.349 68.4324 202.911 69.4852C203.402 70.2573 203.823 71.0294 204.385 71.661C205.438 72.8542 206.069 74.258 206.631 75.6617C206.841 76.153 206.982 76.5741 207.052 77.0654C207.473 78.8903 207.894 80.7853 208.315 82.8208L208.456 81.6276C208.526 81.6276 208.526 81.5574 208.596 81.5574C208.877 82.3295 209.158 83.0313 209.438 83.8736C210.07 83.4525 210.281 82.8208 210.561 82.3295C211.544 80.294 212.597 78.2586 213.439 76.2232C215.264 72.1523 216.948 68.0113 218.703 63.9405C219.054 63.8001 219.194 63.4492 219.335 63.028ZM213.158 80.1537C213.299 79.7325 213.439 79.3114 213.579 78.8903C213.509 78.8903 213.439 78.8201 213.369 78.8201L210.491 85.2071C210.912 85.4177 211.053 85.0668 211.263 84.8562C212.176 83.8736 212.667 82.6102 213.158 81.3468C213.228 81.2065 213.299 80.9959 213.228 80.9257C212.737 80.7854 213.088 80.5046 213.158 80.1537ZM216.597 71.7312C215.966 72.4331 215.053 74.6089 214.632 76.0126C214.141 76.7145 213.93 77.4866 213.72 78.3288C214.141 77.6269 214.562 76.9251 214.702 76.0828C214.843 75.9424 214.983 75.8723 215.053 75.7319C215.545 74.7493 215.966 73.6965 216.387 72.6437C216.457 72.4331 216.527 72.1523 216.597 71.7312ZM217.159 36.8483C216.597 36.7781 216.036 36.6377 215.474 36.9886C215.474 37.0588 215.474 37.129 215.545 37.129C216.106 37.129 216.597 37.0588 217.159 36.8483ZM266.5 32.6371C266.36 32.1457 266.079 32.1457 265.728 32.1457C264.886 32.2159 263.974 32.2861 263.131 32.3563C260.394 32.5669 257.727 32.8476 254.99 32.9178C252.603 32.988 250.217 33.2687 247.831 33.4793C247.55 33.4793 247.269 33.5495 246.988 33.6197V33.76C248.883 33.6899 250.708 33.8302 252.533 33.6197C253.375 33.5495 254.218 33.5495 255.06 33.3389C256.183 33.1284 257.306 33.1985 258.429 33.1284C259.762 33.0582 261.026 33.0582 262.359 32.988H262.429C263.552 33.2687 264.675 32.988 265.728 32.8476C266.079 32.9178 266.29 32.7774 266.5 32.6371ZM256.183 34.8128C255.06 34.8128 253.867 34.883 252.744 34.883C252.744 35.0234 252.744 35.0936 252.814 35.234C253.937 35.3743 255.06 35.0936 256.183 34.8128Z" fill="#FFD206"/>
<path d="M239.97 65.6951C239.97 66.5374 239.338 67.4498 238.426 67.7306C238.285 67.52 238.075 67.3095 237.934 67.0287C237.864 67.0287 237.794 66.9585 237.724 66.9585C237.373 66.8883 237.022 67.3095 236.741 66.8883C236.671 66.8181 236.46 66.9585 236.32 67.0287C235.829 67.2393 235.337 67.52 234.846 67.8008C233.723 68.4324 232.74 69.2045 231.828 70.1169V70.0467C231.477 70.5381 231.196 71.0294 230.845 71.4505C230.354 72.0822 229.722 72.6437 229.161 73.2753C228.81 73.6965 228.459 74.1878 228.249 74.6089C227.827 75.5915 227.266 76.4338 226.704 77.3462L225.441 76.6443C225.301 76.0828 225.09 75.5213 224.95 74.8195C226.424 70.7486 228.67 66.8883 229.933 62.6069L231.056 63.1684C230.986 63.379 230.986 63.6597 230.986 63.9405C231.337 64.0107 231.617 64.0808 232.039 64.151C231.828 64.9231 231.688 65.625 231.477 66.4672C231.758 66.2566 231.968 66.1163 232.109 65.9759C233.372 64.8529 234.916 64.0809 236.601 63.7299C237.022 63.5895 237.443 63.5895 237.864 63.5895C238.075 63.5895 238.285 63.7299 238.426 63.9405C238.706 64.2212 238.847 64.5722 239.127 64.8529C239.268 64.9933 239.478 64.9231 239.689 64.9933C239.829 65.1337 239.97 65.3442 239.97 65.6951ZM231.688 70.0467C231.617 69.9064 231.617 69.8362 231.547 69.6958C230.565 70.2573 229.863 71.0996 229.161 71.8716C229.021 72.012 229.021 72.2927 228.88 72.784C229.722 71.8716 230.284 71.0996 230.986 70.3977C231.267 70.2573 231.477 70.1871 231.688 70.0467ZM238.215 64.3616C237.654 63.9405 237.303 64.0808 236.882 64.151C235.408 64.502 234.004 65.0635 232.6 66.1163C234.565 65.4846 236.32 64.9231 238.215 64.3616Z" fill="#FFD206"/>
<path d="M239.549 74.3281C239.478 73.7667 239.549 73.2052 239.689 72.7138C240.11 70.6784 240.882 68.8536 242.216 67.2393C242.847 66.4672 243.409 65.6951 244.111 64.9933C244.532 64.5722 245.093 64.151 245.655 63.8703C246.076 63.5895 246.357 63.3088 246.567 62.8877C247.059 61.8349 248.041 61.5541 249.024 61.4137C249.655 61.2734 250.006 61.8349 250.147 62.256C250.568 62.5367 250.919 62.6069 251.059 62.8175C251.34 63.2386 251.621 63.8001 251.41 64.2914C251.129 64.8529 251.27 65.3442 251.34 65.9057C251.691 67.2393 251.761 68.643 251.621 70.0467C251.48 71.1697 250.989 72.1523 250.428 73.135C249.655 74.3983 248.532 75.5213 247.199 76.2934C246.287 76.0828 245.444 76.0126 244.602 76.3636C244.181 76.5741 243.76 76.7145 243.339 76.8549C241.093 77.4866 239.689 75.7319 239.549 74.3281ZM243.549 68.9939C244.181 68.5026 244.742 68.0815 245.163 67.3796C245.444 66.9585 245.865 66.6076 246.286 66.2566C246.708 65.9057 247.129 65.5548 247.48 65.1337C247.831 64.7827 248.111 64.4318 248.462 63.9405L248.182 63.5193C247.62 63.8703 247.129 64.2212 246.637 64.5722C245.374 65.4144 244.462 66.748 243.268 67.7306C242.216 68.643 241.795 70.0467 241.163 71.3101C241.724 70.3275 242.637 69.6958 243.549 68.9939ZM245.023 75.1002C245.936 74.8896 246.708 74.3983 247.269 73.6965C247.901 72.8542 248.813 72.2225 249.234 71.1697C249.305 71.0995 249.515 71.0995 249.655 71.0995C250.287 70.2573 250.147 69.1343 250.077 68.0113C249.796 68.8536 249.515 69.5554 249.305 70.2573C249.796 68.4324 249.655 66.6778 248.954 64.7125L248.813 65.4144C248.743 65.274 248.673 65.2038 248.603 65.0635H248.462C247.199 65.9057 246.006 67.0287 244.883 68.0815C244.041 68.9237 243.479 69.9064 242.847 70.889C242.216 71.8716 241.865 73.0648 242.145 74.3281C242.777 74.4685 243.339 74.5387 243.9 74.6089C243.9 74.6791 243.9 74.6791 243.83 74.7493H242.286C242.637 75.381 242.988 75.5915 243.619 75.381C244.041 75.3108 244.462 75.1704 245.023 75.1002Z" fill="#FFD206"/>
<path d="M266.009 69.6958C265.377 72.1524 264.746 74.5387 264.114 76.9953L263.693 78.6797C263.623 79.0307 263.552 79.3816 263.623 79.6624C263.833 80.3642 263.623 80.9257 263.061 81.4872C262.64 81.6978 262.078 81.8382 261.657 81.2767C261.517 81.1363 261.377 81.0661 261.236 80.9959C260.534 80.645 260.394 80.3642 260.534 79.6624L261.447 75.8021C261.728 74.7493 262.008 73.6965 262.289 72.6437C262.429 72.012 262.5 71.3803 262.991 70.8188C263.131 70.7486 263.201 70.5381 263.201 70.3977C263.342 69.9766 263.482 69.5554 263.552 69.1343C263.623 68.7132 263.482 68.3623 263.482 68.0113C262.851 67.8709 262.359 68.0815 261.938 68.2921C258.99 69.6256 256.393 71.5909 254.288 74.0474C254.077 74.258 253.867 74.5387 253.586 74.6791C253.024 74.8897 252.744 74.6089 252.814 74.0474C252.954 73.3455 253.095 72.6437 253.305 71.8716C253.656 70.3977 254.428 68.9939 255.13 67.6604L256.113 65.8355C256.042 65.8355 255.902 65.9057 255.691 65.9057C256.323 64.7125 256.955 63.4492 257.937 62.3964C258.148 62.6069 258.288 62.6771 258.499 62.9579C258.148 63.2386 257.867 63.5194 257.587 63.8001C258.008 64.4318 257.867 65.1337 257.727 65.9057C258.288 65.1337 258.85 64.502 259.411 63.6597C259.482 63.8001 259.482 64.0107 259.482 64.151C259.482 64.2914 259.271 64.502 259.341 64.502C259.833 65.2038 259.271 65.625 258.85 66.1163C258.569 66.4672 258.359 66.8883 258.288 67.3095L260.254 66.3268C260.113 66.748 260.043 66.8883 259.903 67.1691C260.464 66.9585 260.956 66.8181 261.447 66.6076C261.236 66.4672 261.166 66.397 261.026 66.3268C262.359 64.4318 264.605 65.1337 265.447 66.397C266.009 67.3095 266.29 68.4324 266.009 69.6958ZM256.323 65.2038C256.253 65.3442 256.113 65.4144 256.042 65.5548C255.972 65.625 256.042 65.6952 256.042 65.8355C256.253 65.6952 256.534 65.5548 256.323 65.2038Z" fill="#FFD206"/>
<path d="M272.396 78.9605L272.045 79.2412C271.413 79.0307 271.413 78.5394 271.413 78.0481C271.484 76.5039 271.063 75.03 270.29 73.6965C269.729 72.784 269.097 71.9418 268.395 71.0294C268.115 70.6082 267.764 70.2573 267.483 69.9064C266.571 68.8536 266.571 67.6604 267.202 66.4672C267.272 66.397 267.343 66.3268 267.343 66.3268C267.553 64.9933 268.606 64.3616 269.659 63.8703C271.203 63.1684 272.817 62.6771 274.432 62.1156C274.502 62.0454 274.642 62.1156 274.782 62.1156C274.01 62.8877 273.028 63.1684 272.256 63.8001C273.098 63.5193 274.01 63.2386 274.853 62.8877C274.993 62.8175 275.063 62.7473 275.204 62.6771C276.607 62.3964 277.239 61.2734 277.73 60.0802L278.151 59.6591C278.081 59.5889 278.081 59.5889 278.081 59.5889C277.941 59.6591 277.871 59.7292 277.73 59.7292C277.941 59.2379 278.151 58.6764 278.362 58.2553C280.117 54.9565 281.871 51.7279 283.696 48.4291C283.907 48.0782 284.117 47.8676 284.328 47.4465C284.538 47.7975 284.749 48.008 284.889 48.2888C285.1 48.0782 285.24 47.8676 285.451 47.6571C286.012 47.8676 286.504 48.2186 286.434 48.8503C286.363 49.3416 286.223 49.8329 286.012 50.1838C285.311 51.377 284.538 52.5 283.837 53.6932C282.714 55.7286 281.731 57.764 280.678 59.7994C280.538 60.0802 280.397 60.4311 280.257 60.7821C280.889 60.8522 281.38 60.9224 281.942 61.0628C283.626 61.2734 284.679 62.3262 285.591 63.5895C285.661 63.7299 285.732 63.8703 285.732 64.0107C285.732 64.2212 285.661 64.3616 285.661 64.5722C285.661 64.7827 285.732 64.9231 285.802 65.0635C285.381 65.4846 285.03 65.5548 284.609 65.2038C284.398 65.0635 284.258 64.9933 284.047 65.0635C283.837 65.1336 283.556 64.8529 283.415 64.6423C283.065 64.0808 282.573 63.8703 281.942 63.9405C280.889 64.0107 279.836 64.151 278.643 64.2212C277.941 65.9759 277.309 67.5902 276.678 69.2747C275.625 72.1523 274.642 75.1002 274.151 78.1182C274.081 78.399 274.01 78.6797 273.87 78.9605C273.589 79.6624 273.098 79.7325 272.536 79.2412C272.536 79.1711 272.466 79.0307 272.396 78.9605ZM268.045 67.6604C267.553 68.1517 267.904 68.4324 268.185 68.7834C268.255 68.4324 268.395 68.0113 268.045 67.6604ZM275.274 65.274C272.887 65.6951 270.22 66.9585 269.589 68.0815C270.641 69.5554 271.764 71.0294 272.887 72.5033L275.274 65.274Z" fill="#FFD206"/>
</svg>
