<svg width="75" height="74" viewBox="0 0 75 74" fill="none" xmlns="http://www.w3.org/2000/svg">
<path fill-rule="evenodd" clip-rule="evenodd" d="M37.5002 0.333252C57.7504 0.333252 74.1668 16.7495 74.1668 36.9999C74.1668 57.2502 57.7504 73.6666 37.5002 73.6666C17.2497 73.6666 0.833496 57.2502 0.833496 36.9999C0.833496 16.7495 17.2497 0.333252 37.5002 0.333252ZM37.5002 7.66659C21.2998 7.66659 8.16683 20.7996 8.16683 36.9999C8.16683 53.2004 21.2998 66.3333 37.5002 66.3333C53.7006 66.3333 66.8335 53.2004 66.8335 36.9999C66.8335 20.7996 53.7006 7.66659 37.5002 7.66659ZM26.37 24.7176C26.7246 21.8162 29.7485 20.0775 32.4325 21.2221L33.6255 21.7449L35.2345 22.4878L36.5161 23.1066L37.9495 23.8252L39.5215 24.6445L41.2187 25.5652L43.028 26.5882L43.9412 27.121L45.6605 28.1551L47.2322 29.1373L49.3 30.4874L51.0024 31.654L52.6694 32.8548C52.7784 32.9356 52.8798 33.0114 52.9735 33.0817C55.3029 34.8307 55.3169 38.3181 52.9783 40.0785L51.9377 40.8449L50.4997 41.8601L48.6791 43.0873L47.2602 44.0053L45.6821 44.9904L43.9493 46.0318C43.6478 46.2095 43.3401 46.3891 43.0262 46.5703L41.1985 47.6041L39.4913 48.5312L37.9161 49.3532L36.4846 50.0717L34.6319 50.9591L33.1675 51.6228L32.4262 51.9438C29.7368 53.0871 26.7239 51.3384 26.3703 48.4469L26.1724 46.6186L26.0636 45.3936L25.909 43.197L25.8222 41.5087L25.7571 39.6535L25.7211 37.6419V35.5202L25.7571 33.5096L25.8221 31.6552L25.9088 29.9675L26.0633 27.7715L26.3252 25.0939C26.3408 24.9593 26.3558 24.8338 26.37 24.7176ZM33.2747 29.6846L33.1754 31.3957L33.0988 33.3218L33.0555 35.4478V37.7141L33.0988 39.8404L33.1754 41.7669L33.2747 43.4782L34.8002 42.7098C35.0699 42.571 35.3469 42.4269 35.6311 42.2774L37.4185 41.3146L39.3595 40.2196L41.2771 39.0869C41.5809 38.9033 41.8768 38.7224 42.1646 38.5447L43.793 37.5181L45.2207 36.5816L43.786 35.6388L42.1555 34.6091L40.3377 33.5096C40.0197 33.3215 39.6941 33.1312 39.3614 32.9391C38.6954 32.5546 38.0503 32.1916 37.4293 31.85L35.642 30.8888L34.0188 30.0544C33.763 29.9259 33.5148 29.8026 33.2747 29.6846Z" fill="white"/>
</svg>
