<svg width="24" height="25" viewBox="0 0 24 25" fill="none" xmlns="http://www.w3.org/2000/svg">
<path fill-rule="evenodd" clip-rule="evenodd" d="M21.8394 7.01147C22.0315 5.84678 20.8652 4.92685 19.7773 5.38492L2.67703 12.5851C1.48461 13.0871 1.42351 14.8109 2.67788 15.3309C3.60596 15.7156 5.02633 16.2797 6.45085 16.7494C7.61932 17.1346 8.8931 17.4922 9.91353 17.5934C10.1929 17.9276 10.5445 18.2486 10.9017 18.5423C11.4487 18.9922 12.1074 19.4563 12.7873 19.9006C14.1489 20.7903 15.6597 21.6416 16.678 22.1947C17.8949 22.8557 19.3517 22.0946 19.5705 20.7682L21.8394 7.01147ZM4.59485 13.9476L19.7186 7.57967L17.6009 20.42C16.6024 19.877 15.163 19.0638 13.8813 18.2264C13.2329 17.8026 12.6407 17.383 12.172 16.9976C12.0051 16.8603 11.8638 16.7353 11.7461 16.6234L15.7072 12.6622C16.0977 12.2717 16.0977 11.6385 15.7072 11.248C15.3167 10.8574 14.6835 10.8574 14.293 11.248L9.95476 15.5862C9.22132 15.4924 8.19888 15.2198 7.07709 14.85C6.21377 14.5653 5.34574 14.242 4.59485 13.9476Z" fill="black" fill-opacity="0.8"/>
</svg>
