<svg width="19" height="18" viewBox="0 0 19 18" fill="none" xmlns="http://www.w3.org/2000/svg">
<path fill-rule="evenodd" clip-rule="evenodd" d="M2.3132 3.72763L13.3132 0.584773C14.9102 0.128473 16.5 1.32763 16.5 2.98858V3.99999C17.6046 3.99999 18.5 4.89542 18.5 5.99999V16C18.5 17.1046 17.6046 18 16.5 18H2.5C1.39543 18 0.5 17.1046 0.5 16V5.99999C0.5 4.95543 1.33483 4.00716 2.3132 3.72763ZM13.8626 2.50782C14.182 2.41656 14.5 2.65639 14.5 2.98858V3.99999H8.6401L13.8626 2.50782ZM2.5 5.99999H16.5V16H2.5C2.5 13.0151 2.5 5.99999 2.5 5.99999Z" fill="black"/>
</svg>
