<svg width="24" height="25" viewBox="0 0 24 25" fill="none" xmlns="http://www.w3.org/2000/svg">
<g clip-path="url(#clip0_1401_6713)">
<path d="M12 4.95508C12.8554 4.95508 13.7316 4.9775 14.5817 5.01285L15.5861 5.06086L16.5475 5.11765L17.4476 5.17956L18.2685 5.24295C20.1065 5.3921 21.5836 6.8145 21.7633 8.66617L21.8031 9.09071L21.8781 10.0007C21.9482 10.9439 22 11.9724 22 12.9551C22 13.9377 21.9482 14.9663 21.8781 15.9095L21.8031 16.8194C21.79 16.9647 21.7767 17.1065 21.7633 17.244C21.5836 19.0957 20.1065 20.5181 18.2685 20.6672L17.4476 20.7306L16.5475 20.7925L15.5861 20.8493L14.5817 20.8973C13.7316 20.9327 12.8554 20.9551 12 20.9551C11.1446 20.9551 10.2684 20.9327 9.41834 20.8973L8.41386 20.8493L7.45253 20.7925L6.5524 20.7306L5.7315 20.6672C3.89351 20.5181 2.4164 19.0957 2.23668 17.244L2.19692 16.8194L2.12192 15.9095C2.0518 14.9663 2 13.9377 2 12.9551C2 11.9724 2.0518 10.9439 2.12192 10.0007L2.19692 9.09071C2.21003 8.94541 2.22333 8.80369 2.23668 8.66617C2.4164 6.8145 3.89351 5.3921 5.7315 5.24295L6.5524 5.17956L7.45253 5.11765L8.41385 5.06086L9.41834 5.01285C10.2684 4.9775 11.1446 4.95508 12 4.95508ZM12 6.95508C11.1746 6.95508 10.3259 6.9768 9.49966 7.01119L8.52183 7.05795L7.5831 7.11339L6.70106 7.17403L5.89327 7.23639C5.00396 7.30856 4.31194 7.98757 4.22732 8.85938C4.11002 10.068 4 11.5732 4 12.9551C4 14.337 4.11002 15.8422 4.22732 17.0508C4.31194 17.9226 5.00396 18.6016 5.89327 18.6738L6.70106 18.7361L7.5831 18.7968L8.52183 18.8522L9.49966 18.899C10.3259 18.9334 11.1746 18.9551 12 18.9551C12.8253 18.9551 13.6741 18.9334 14.5003 18.899L15.4782 18.8522L16.4169 18.7968L17.2989 18.7361L18.1067 18.6738C18.996 18.6016 19.6881 17.9226 19.7727 17.0508C19.89 15.8422 20 14.337 20 12.9551C20 11.5732 19.89 10.068 19.7727 8.85938C19.6881 7.98757 18.996 7.30856 18.1067 7.23639L17.2989 7.17403L16.4169 7.11339L15.4782 7.05795L14.5003 7.01119C13.6741 6.9768 12.8253 6.95508 12 6.95508ZM10 10.5302C10 10.0991 10.4356 9.81891 10.8188 9.97123L10.9 10.0106L15.1 12.4355C15.4692 12.6486 15.4976 13.157 15.1852 13.4156L15.1 13.4747L10.9 15.8996C10.5267 16.1151 10.0662 15.878 10.0065 15.4699L10 15.38V10.5302Z" fill="black" fill-opacity="0.8"/>
</g>
<defs>
<clipPath id="clip0_1401_6713">
<rect width="24" height="24" fill="white" transform="translate(0 0.955078)"/>
</clipPath>
</defs>
</svg>
